%
M48
M72
T01C0.0160
T02C0.0240
T03C0.0320
T04C0.0400
%
T01
X1150Y4893
X6150Y9893
X6150Y7393
X10900Y7393
X10900Y9893
X24700Y24343
X25450Y22843
X25850Y22843
X25850Y22443
X25450Y22443
X26900Y22893
X28150Y25893
X23650Y25893
X16150Y25393
X10150Y25393
X9150Y25393
X8150Y25393
X4603Y25074
X4209Y24681
X3815Y25074
X4209Y23106
X3815Y22712
X1650Y22893
X1650Y24393
X27650Y7393
X25150Y9893
X25650Y7393
X22900Y6643
X20400Y9893
X20400Y7393
X15650Y9893
X15650Y7393
T02
X14996Y8145
X16256Y9051
X14996Y9405
X11532Y9051
X10272Y9405
X10272Y8145
X6807Y9051
X5548Y9405
X5548Y8145
X2083Y9051
X5548Y14130
X6807Y13775
X10272Y14130
X11532Y13775
X14996Y14130
X16256Y13775
X19721Y14130
X20981Y13775
X24445Y14130
X25705Y13775
X27437Y14681
X29170Y14130
X29170Y16019
X25705Y16413
X25075Y16413
X24445Y16413
X20981Y18500
X19721Y18854
X14996Y18854
X16256Y18500
X11532Y18500
X10272Y18854
X6807Y18500
X5548Y18854
X2083Y18500
X20981Y9051
X19721Y9405
X19721Y8145
X25705Y9051
X24445Y9405
X27437Y11295
X29170Y9405
T03
X29170Y8145
X24445Y8145
X2083Y13775
X20900Y21643
T04
X8650Y23893
X7650Y23893
X6650Y23893
X18650Y23893
X17650Y23893
X16650Y23893
X15650Y23893
X14650Y23893
X13650Y23893
X11650Y23893
X10650Y23893
X9650Y23893
X22250Y4893
X21250Y4893
X20250Y4893
X19250Y4893
X18250Y4893
X17250Y4893
X16250Y4893
X15250Y4893
X13650Y4893
X12650Y4893
X11650Y4893
X10650Y4893
X9650Y4893
X8650Y4893
X7650Y4893
X6650Y4893
M30
