G75*
%MOIN*%
%OFA0B0*%
%FSLAX24Y24*%
%IPPOS*%
%LPD*%
%AMOC8*
5,1,8,0,0,1.08239X$1,22.5*
%
%ADD10C,0.0157*%
%ADD11R,0.0157X0.0472*%
%ADD12C,0.0740*%
%ADD13R,0.5906X0.5906*%
%ADD14C,0.0433*%
%ADD15C,0.0100*%
%ADD16OC8,0.0300*%
%ADD17OC8,0.0380*%
%ADD18C,0.0640*%
%ADD19OC8,0.0480*%
%ADD20C,0.0320*%
%ADD21C,0.0160*%
D10*
X003559Y023440D02*
X003559Y023756D01*
X003559Y023756D01*
X003559Y023440D01*
X003559Y023440D01*
X003559Y023596D02*
X003559Y023596D01*
X003559Y023752D02*
X003559Y023752D01*
X003815Y023756D02*
X003815Y023440D01*
X003815Y023756D02*
X003815Y023756D01*
X003815Y023440D01*
X003815Y023440D01*
X003815Y023596D02*
X003815Y023596D01*
X003815Y023752D02*
X003815Y023752D01*
X004071Y023756D02*
X004071Y023440D01*
X004071Y023756D02*
X004071Y023756D01*
X004071Y023440D01*
X004071Y023440D01*
X004071Y023596D02*
X004071Y023596D01*
X004071Y023752D02*
X004071Y023752D01*
X003815Y024031D02*
X003815Y024347D01*
X003815Y024347D01*
X003815Y024031D01*
X003815Y024031D01*
X003815Y024187D02*
X003815Y024187D01*
X003815Y024343D02*
X003815Y024343D01*
X003559Y024347D02*
X003559Y024031D01*
X003559Y024347D02*
X003559Y024347D01*
X003559Y024031D01*
X003559Y024031D01*
X003559Y024187D02*
X003559Y024187D01*
X003559Y024343D02*
X003559Y024343D01*
D11*
X004071Y024189D03*
D12*
X006650Y023893D03*
X007650Y023893D03*
X008650Y023893D03*
X009650Y023893D03*
X010650Y023893D03*
X011650Y023893D03*
X013650Y023893D03*
X014650Y023893D03*
X015650Y023893D03*
X016650Y023893D03*
X017650Y023893D03*
X018650Y023893D03*
X018250Y004893D03*
X017250Y004893D03*
X016250Y004893D03*
X015250Y004893D03*
X013650Y004893D03*
X012650Y004893D03*
X011650Y004893D03*
X010650Y004893D03*
X009650Y004893D03*
X008650Y004893D03*
X007650Y004893D03*
X006650Y004893D03*
X019250Y004893D03*
X020250Y004893D03*
X021250Y004893D03*
X022250Y004893D03*
D13*
X019150Y029143D03*
X026150Y029143D03*
X012150Y029143D03*
X005150Y029143D03*
D14*
X004937Y019838D02*
X004583Y019838D01*
X004583Y019838D01*
X004937Y019838D01*
X004937Y019838D01*
X004937Y019169D02*
X004583Y019169D01*
X004583Y019169D01*
X004937Y019169D01*
X004937Y019169D01*
X004937Y018500D02*
X004583Y018500D01*
X004583Y018500D01*
X004937Y018500D01*
X004937Y018500D01*
X003047Y018500D02*
X002693Y018500D01*
X002693Y018500D01*
X003047Y018500D01*
X003047Y018500D01*
X003047Y019169D02*
X002693Y019169D01*
X002693Y019169D01*
X003047Y019169D01*
X003047Y019169D01*
X003047Y019838D02*
X002693Y019838D01*
X002693Y019838D01*
X003047Y019838D01*
X003047Y019838D01*
X003047Y015114D02*
X002693Y015114D01*
X002693Y015114D01*
X003047Y015114D01*
X003047Y015114D01*
X003047Y014444D02*
X002693Y014444D01*
X002693Y014444D01*
X003047Y014444D01*
X003047Y014444D01*
X003047Y013775D02*
X002693Y013775D01*
X002693Y013775D01*
X003047Y013775D01*
X003047Y013775D01*
X004583Y013775D02*
X004937Y013775D01*
X004583Y013775D02*
X004583Y013775D01*
X004937Y013775D01*
X004937Y013775D01*
X004937Y014444D02*
X004583Y014444D01*
X004583Y014444D01*
X004937Y014444D01*
X004937Y014444D01*
X004937Y015114D02*
X004583Y015114D01*
X004583Y015114D01*
X004937Y015114D01*
X004937Y015114D01*
X007418Y015114D02*
X007772Y015114D01*
X007418Y015114D02*
X007418Y015114D01*
X007772Y015114D01*
X007772Y015114D01*
X007772Y014444D02*
X007418Y014444D01*
X007418Y014444D01*
X007772Y014444D01*
X007772Y014444D01*
X007772Y013775D02*
X007418Y013775D01*
X007418Y013775D01*
X007772Y013775D01*
X007772Y013775D01*
X009308Y013775D02*
X009662Y013775D01*
X009308Y013775D02*
X009308Y013775D01*
X009662Y013775D01*
X009662Y013775D01*
X009662Y014444D02*
X009308Y014444D01*
X009308Y014444D01*
X009662Y014444D01*
X009662Y014444D01*
X009662Y015114D02*
X009308Y015114D01*
X009308Y015114D01*
X009662Y015114D01*
X009662Y015114D01*
X012142Y015114D02*
X012496Y015114D01*
X012142Y015114D02*
X012142Y015114D01*
X012496Y015114D01*
X012496Y015114D01*
X012496Y014444D02*
X012142Y014444D01*
X012142Y014444D01*
X012496Y014444D01*
X012496Y014444D01*
X012496Y013775D02*
X012142Y013775D01*
X012142Y013775D01*
X012496Y013775D01*
X012496Y013775D01*
X014032Y013775D02*
X014386Y013775D01*
X014032Y013775D02*
X014032Y013775D01*
X014386Y013775D01*
X014386Y013775D01*
X014386Y014444D02*
X014032Y014444D01*
X014032Y014444D01*
X014386Y014444D01*
X014386Y014444D01*
X014386Y015114D02*
X014032Y015114D01*
X014032Y015114D01*
X014386Y015114D01*
X014386Y015114D01*
X016867Y015114D02*
X017221Y015114D01*
X016867Y015114D02*
X016867Y015114D01*
X017221Y015114D01*
X017221Y015114D01*
X017221Y014444D02*
X016867Y014444D01*
X016867Y014444D01*
X017221Y014444D01*
X017221Y014444D01*
X017221Y013775D02*
X016867Y013775D01*
X016867Y013775D01*
X017221Y013775D01*
X017221Y013775D01*
X018756Y013775D02*
X019110Y013775D01*
X018756Y013775D02*
X018756Y013775D01*
X019110Y013775D01*
X019110Y013775D01*
X019110Y014444D02*
X018756Y014444D01*
X018756Y014444D01*
X019110Y014444D01*
X019110Y014444D01*
X019110Y015114D02*
X018756Y015114D01*
X018756Y015114D01*
X019110Y015114D01*
X019110Y015114D01*
X021591Y015114D02*
X021945Y015114D01*
X021591Y015114D02*
X021591Y015114D01*
X021945Y015114D01*
X021945Y015114D01*
X021945Y014444D02*
X021591Y014444D01*
X021591Y014444D01*
X021945Y014444D01*
X021945Y014444D01*
X021945Y013775D02*
X021591Y013775D01*
X021591Y013775D01*
X021945Y013775D01*
X021945Y013775D01*
X023481Y013775D02*
X023835Y013775D01*
X023481Y013775D02*
X023481Y013775D01*
X023835Y013775D01*
X023835Y013775D01*
X023835Y014444D02*
X023481Y014444D01*
X023481Y014444D01*
X023835Y014444D01*
X023835Y014444D01*
X023835Y015114D02*
X023481Y015114D01*
X023481Y015114D01*
X023835Y015114D01*
X023835Y015114D01*
X026316Y015114D02*
X026670Y015114D01*
X026316Y015114D02*
X026316Y015114D01*
X026670Y015114D01*
X026670Y015114D01*
X026670Y014444D02*
X026316Y014444D01*
X026316Y014444D01*
X026670Y014444D01*
X026670Y014444D01*
X026670Y013775D02*
X026316Y013775D01*
X026316Y013775D01*
X026670Y013775D01*
X026670Y013775D01*
X028205Y013775D02*
X028559Y013775D01*
X028205Y013775D02*
X028205Y013775D01*
X028559Y013775D01*
X028559Y013775D01*
X028559Y014444D02*
X028205Y014444D01*
X028205Y014444D01*
X028559Y014444D01*
X028559Y014444D01*
X028559Y015114D02*
X028205Y015114D01*
X028205Y015114D01*
X028559Y015114D01*
X028559Y015114D01*
X028559Y018500D02*
X028205Y018500D01*
X028205Y018500D01*
X028559Y018500D01*
X028559Y018500D01*
X028559Y019169D02*
X028205Y019169D01*
X028205Y019169D01*
X028559Y019169D01*
X028559Y019169D01*
X028559Y019838D02*
X028205Y019838D01*
X028205Y019838D01*
X028559Y019838D01*
X028559Y019838D01*
X026670Y019838D02*
X026316Y019838D01*
X026316Y019838D01*
X026670Y019838D01*
X026670Y019838D01*
X026670Y019169D02*
X026316Y019169D01*
X026316Y019169D01*
X026670Y019169D01*
X026670Y019169D01*
X026670Y018500D02*
X026316Y018500D01*
X026316Y018500D01*
X026670Y018500D01*
X026670Y018500D01*
X023835Y018500D02*
X023481Y018500D01*
X023481Y018500D01*
X023835Y018500D01*
X023835Y018500D01*
X023835Y019169D02*
X023481Y019169D01*
X023481Y019169D01*
X023835Y019169D01*
X023835Y019169D01*
X023835Y019838D02*
X023481Y019838D01*
X023481Y019838D01*
X023835Y019838D01*
X023835Y019838D01*
X021945Y019838D02*
X021591Y019838D01*
X021591Y019838D01*
X021945Y019838D01*
X021945Y019838D01*
X021945Y019169D02*
X021591Y019169D01*
X021591Y019169D01*
X021945Y019169D01*
X021945Y019169D01*
X021945Y018500D02*
X021591Y018500D01*
X021591Y018500D01*
X021945Y018500D01*
X021945Y018500D01*
X019110Y018500D02*
X018756Y018500D01*
X018756Y018500D01*
X019110Y018500D01*
X019110Y018500D01*
X019110Y019169D02*
X018756Y019169D01*
X018756Y019169D01*
X019110Y019169D01*
X019110Y019169D01*
X019110Y019838D02*
X018756Y019838D01*
X018756Y019838D01*
X019110Y019838D01*
X019110Y019838D01*
X017221Y019838D02*
X016867Y019838D01*
X016867Y019838D01*
X017221Y019838D01*
X017221Y019838D01*
X017221Y019169D02*
X016867Y019169D01*
X016867Y019169D01*
X017221Y019169D01*
X017221Y019169D01*
X017221Y018500D02*
X016867Y018500D01*
X016867Y018500D01*
X017221Y018500D01*
X017221Y018500D01*
X014386Y018500D02*
X014032Y018500D01*
X014032Y018500D01*
X014386Y018500D01*
X014386Y018500D01*
X014386Y019169D02*
X014032Y019169D01*
X014032Y019169D01*
X014386Y019169D01*
X014386Y019169D01*
X014386Y019838D02*
X014032Y019838D01*
X014032Y019838D01*
X014386Y019838D01*
X014386Y019838D01*
X012496Y019838D02*
X012142Y019838D01*
X012142Y019838D01*
X012496Y019838D01*
X012496Y019838D01*
X012496Y019169D02*
X012142Y019169D01*
X012142Y019169D01*
X012496Y019169D01*
X012496Y019169D01*
X012496Y018500D02*
X012142Y018500D01*
X012142Y018500D01*
X012496Y018500D01*
X012496Y018500D01*
X009662Y018500D02*
X009308Y018500D01*
X009308Y018500D01*
X009662Y018500D01*
X009662Y018500D01*
X009662Y019169D02*
X009308Y019169D01*
X009308Y019169D01*
X009662Y019169D01*
X009662Y019169D01*
X009662Y019838D02*
X009308Y019838D01*
X009308Y019838D01*
X009662Y019838D01*
X009662Y019838D01*
X007772Y019838D02*
X007418Y019838D01*
X007418Y019838D01*
X007772Y019838D01*
X007772Y019838D01*
X007772Y019169D02*
X007418Y019169D01*
X007418Y019169D01*
X007772Y019169D01*
X007772Y019169D01*
X007772Y018500D02*
X007418Y018500D01*
X007418Y018500D01*
X007772Y018500D01*
X007772Y018500D01*
X007772Y010389D02*
X007418Y010389D01*
X007418Y010389D01*
X007772Y010389D01*
X007772Y010389D01*
X007772Y009720D02*
X007418Y009720D01*
X007418Y009720D01*
X007772Y009720D01*
X007772Y009720D01*
X007772Y009051D02*
X007418Y009051D01*
X007418Y009051D01*
X007772Y009051D01*
X007772Y009051D01*
X009308Y009051D02*
X009662Y009051D01*
X009308Y009051D02*
X009308Y009051D01*
X009662Y009051D01*
X009662Y009051D01*
X009662Y009720D02*
X009308Y009720D01*
X009308Y009720D01*
X009662Y009720D01*
X009662Y009720D01*
X009662Y010389D02*
X009308Y010389D01*
X009308Y010389D01*
X009662Y010389D01*
X009662Y010389D01*
X012142Y010389D02*
X012496Y010389D01*
X012142Y010389D02*
X012142Y010389D01*
X012496Y010389D01*
X012496Y010389D01*
X012496Y009720D02*
X012142Y009720D01*
X012142Y009720D01*
X012496Y009720D01*
X012496Y009720D01*
X012496Y009051D02*
X012142Y009051D01*
X012142Y009051D01*
X012496Y009051D01*
X012496Y009051D01*
X014032Y009051D02*
X014386Y009051D01*
X014032Y009051D02*
X014032Y009051D01*
X014386Y009051D01*
X014386Y009051D01*
X014386Y009720D02*
X014032Y009720D01*
X014032Y009720D01*
X014386Y009720D01*
X014386Y009720D01*
X014386Y010389D02*
X014032Y010389D01*
X014032Y010389D01*
X014386Y010389D01*
X014386Y010389D01*
X016867Y010389D02*
X017221Y010389D01*
X016867Y010389D02*
X016867Y010389D01*
X017221Y010389D01*
X017221Y010389D01*
X017221Y009720D02*
X016867Y009720D01*
X016867Y009720D01*
X017221Y009720D01*
X017221Y009720D01*
X017221Y009051D02*
X016867Y009051D01*
X016867Y009051D01*
X017221Y009051D01*
X017221Y009051D01*
X018756Y009051D02*
X019110Y009051D01*
X018756Y009051D02*
X018756Y009051D01*
X019110Y009051D01*
X019110Y009051D01*
X019110Y009720D02*
X018756Y009720D01*
X018756Y009720D01*
X019110Y009720D01*
X019110Y009720D01*
X019110Y010389D02*
X018756Y010389D01*
X018756Y010389D01*
X019110Y010389D01*
X019110Y010389D01*
X021591Y010389D02*
X021945Y010389D01*
X021591Y010389D02*
X021591Y010389D01*
X021945Y010389D01*
X021945Y010389D01*
X021945Y009720D02*
X021591Y009720D01*
X021591Y009720D01*
X021945Y009720D01*
X021945Y009720D01*
X021945Y009051D02*
X021591Y009051D01*
X021591Y009051D01*
X021945Y009051D01*
X021945Y009051D01*
X023481Y009051D02*
X023835Y009051D01*
X023481Y009051D02*
X023481Y009051D01*
X023835Y009051D01*
X023835Y009051D01*
X023835Y009720D02*
X023481Y009720D01*
X023481Y009720D01*
X023835Y009720D01*
X023835Y009720D01*
X023835Y010389D02*
X023481Y010389D01*
X023481Y010389D01*
X023835Y010389D01*
X023835Y010389D01*
X026316Y010389D02*
X026670Y010389D01*
X026316Y010389D02*
X026316Y010389D01*
X026670Y010389D01*
X026670Y010389D01*
X026670Y009720D02*
X026316Y009720D01*
X026316Y009720D01*
X026670Y009720D01*
X026670Y009720D01*
X026670Y009051D02*
X026316Y009051D01*
X026316Y009051D01*
X026670Y009051D01*
X026670Y009051D01*
X028205Y009051D02*
X028559Y009051D01*
X028205Y009051D02*
X028205Y009051D01*
X028559Y009051D01*
X028559Y009051D01*
X028559Y009720D02*
X028205Y009720D01*
X028205Y009720D01*
X028559Y009720D01*
X028559Y009720D01*
X028559Y010389D02*
X028205Y010389D01*
X028205Y010389D01*
X028559Y010389D01*
X028559Y010389D01*
X004937Y010389D02*
X004583Y010389D01*
X004583Y010389D01*
X004937Y010389D01*
X004937Y010389D01*
X004937Y009720D02*
X004583Y009720D01*
X004583Y009720D01*
X004937Y009720D01*
X004937Y009720D01*
X004937Y009051D02*
X004583Y009051D01*
X004583Y009051D01*
X004937Y009051D01*
X004937Y009051D01*
X003047Y009051D02*
X002693Y009051D01*
X002693Y009051D01*
X003047Y009051D01*
X003047Y009051D01*
X003047Y009720D02*
X002693Y009720D01*
X002693Y009720D01*
X003047Y009720D01*
X003047Y009720D01*
X003047Y010389D02*
X002693Y010389D01*
X002693Y010389D01*
X003047Y010389D01*
X003047Y010389D01*
D15*
X000350Y004093D02*
X000350Y033943D01*
X030950Y033943D01*
X030950Y004093D01*
X000350Y004093D01*
X000350Y004189D02*
X030950Y004189D01*
X030950Y004287D02*
X000350Y004287D01*
X000350Y004386D02*
X006516Y004386D01*
X006547Y004373D02*
X006753Y004373D01*
X006945Y004452D01*
X007091Y004599D01*
X007150Y004742D01*
X007209Y004599D01*
X007355Y004452D01*
X007547Y004373D01*
X007753Y004373D01*
X007945Y004452D01*
X008091Y004599D01*
X008150Y004742D01*
X008209Y004599D01*
X008355Y004452D01*
X008547Y004373D01*
X008753Y004373D01*
X008945Y004452D01*
X009091Y004599D01*
X009150Y004742D01*
X009209Y004599D01*
X009355Y004452D01*
X009547Y004373D01*
X009753Y004373D01*
X009945Y004452D01*
X010091Y004599D01*
X010150Y004742D01*
X010209Y004599D01*
X010355Y004452D01*
X010547Y004373D01*
X010753Y004373D01*
X010945Y004452D01*
X011091Y004599D01*
X011150Y004742D01*
X011209Y004599D01*
X011355Y004452D01*
X011547Y004373D01*
X011753Y004373D01*
X011945Y004452D01*
X012091Y004599D01*
X012150Y004742D01*
X012209Y004599D01*
X012355Y004452D01*
X012547Y004373D01*
X012753Y004373D01*
X012945Y004452D01*
X013091Y004599D01*
X013150Y004742D01*
X013209Y004599D01*
X013355Y004452D01*
X013547Y004373D01*
X013753Y004373D01*
X013945Y004452D01*
X014091Y004599D01*
X014170Y004790D01*
X014170Y004997D01*
X014091Y005188D01*
X013945Y005334D01*
X013753Y005413D01*
X013547Y005413D01*
X013355Y005334D01*
X013209Y005188D01*
X013150Y005045D01*
X013091Y005188D01*
X012945Y005334D01*
X012753Y005413D01*
X012547Y005413D01*
X012355Y005334D01*
X012209Y005188D01*
X012150Y005045D01*
X012091Y005188D01*
X011945Y005334D01*
X011753Y005413D01*
X011547Y005413D01*
X011355Y005334D01*
X011209Y005188D01*
X011150Y005045D01*
X011091Y005188D01*
X010945Y005334D01*
X010753Y005413D01*
X010547Y005413D01*
X010355Y005334D01*
X010209Y005188D01*
X010150Y005045D01*
X010091Y005188D01*
X009945Y005334D01*
X009753Y005413D01*
X009547Y005413D01*
X009482Y005387D01*
X009455Y005413D01*
X017405Y005413D01*
X017441Y005377D01*
X017353Y005413D01*
X017147Y005413D01*
X016955Y005334D01*
X016809Y005188D01*
X016750Y005045D01*
X016691Y005188D01*
X016545Y005334D01*
X016353Y005413D01*
X016147Y005413D01*
X015955Y005334D01*
X015809Y005188D01*
X015750Y005045D01*
X015691Y005188D01*
X015545Y005334D01*
X015353Y005413D01*
X015147Y005413D01*
X014955Y005334D01*
X014809Y005188D01*
X014730Y004997D01*
X014730Y004790D01*
X014809Y004599D01*
X014955Y004452D01*
X015147Y004373D01*
X015353Y004373D01*
X015545Y004452D01*
X015691Y004599D01*
X015750Y004742D01*
X015809Y004599D01*
X015955Y004452D01*
X016147Y004373D01*
X016353Y004373D01*
X016545Y004452D01*
X016691Y004599D01*
X016750Y004742D01*
X016809Y004599D01*
X016955Y004452D01*
X017147Y004373D01*
X017353Y004373D01*
X017545Y004452D01*
X017691Y004599D01*
X017750Y004742D01*
X017809Y004599D01*
X017955Y004452D01*
X018147Y004373D01*
X018353Y004373D01*
X018545Y004452D01*
X018691Y004599D01*
X018750Y004742D01*
X018809Y004599D01*
X018955Y004452D01*
X019147Y004373D01*
X019353Y004373D01*
X019545Y004452D01*
X019691Y004599D01*
X019750Y004742D01*
X019809Y004599D01*
X019955Y004452D01*
X020147Y004373D01*
X020353Y004373D01*
X020545Y004452D01*
X020691Y004599D01*
X020751Y004745D01*
X020768Y004694D01*
X020805Y004621D01*
X020853Y004555D01*
X020911Y004497D01*
X020977Y004449D01*
X021050Y004411D01*
X021128Y004386D01*
X021200Y004375D01*
X021200Y004843D01*
X021300Y004843D01*
X021300Y004375D01*
X021372Y004386D01*
X021450Y004411D01*
X021523Y004449D01*
X021589Y004497D01*
X021647Y004555D01*
X021695Y004621D01*
X021732Y004694D01*
X021749Y004745D01*
X021809Y004599D01*
X021955Y004452D01*
X022147Y004373D01*
X022353Y004373D01*
X022545Y004452D01*
X022691Y004599D01*
X022770Y004790D01*
X022770Y004997D01*
X022691Y005188D01*
X022545Y005334D01*
X022353Y005413D01*
X022147Y005413D01*
X021955Y005334D01*
X021809Y005188D01*
X021749Y005042D01*
X021732Y005093D01*
X021695Y005166D01*
X021647Y005232D01*
X021589Y005290D01*
X021523Y005338D01*
X021450Y005375D01*
X021372Y005401D01*
X021300Y005412D01*
X021300Y004943D01*
X021200Y004943D01*
X021200Y005412D01*
X021128Y005401D01*
X021050Y005375D01*
X020977Y005338D01*
X020911Y005290D01*
X020853Y005232D01*
X020805Y005166D01*
X020768Y005093D01*
X020751Y005042D01*
X020691Y005188D01*
X020545Y005334D01*
X020353Y005413D01*
X020147Y005413D01*
X019955Y005334D01*
X019809Y005188D01*
X019750Y005045D01*
X019691Y005188D01*
X019545Y005334D01*
X019353Y005413D01*
X019147Y005413D01*
X018955Y005334D01*
X018809Y005188D01*
X018750Y005045D01*
X018691Y005188D01*
X018545Y005334D01*
X018353Y005413D01*
X018147Y005413D01*
X018082Y005387D01*
X017595Y005873D01*
X009495Y005873D01*
X008745Y006623D01*
X003745Y006623D01*
X001880Y008489D01*
X001880Y008773D01*
X001942Y008711D01*
X002224Y008711D01*
X002254Y008741D01*
X002485Y008741D01*
X002486Y008740D01*
X002620Y008684D01*
X003121Y008684D01*
X003255Y008740D01*
X003358Y008843D01*
X003414Y008978D01*
X003414Y009124D01*
X003358Y009258D01*
X003255Y009362D01*
X003198Y009385D01*
X003255Y009409D01*
X004375Y009409D01*
X004433Y009385D01*
X004375Y009362D01*
X004272Y009258D01*
X004217Y009124D01*
X004217Y008978D01*
X004272Y008843D01*
X004375Y008740D01*
X004510Y008684D01*
X005010Y008684D01*
X005145Y008740D01*
X005238Y008833D01*
X005238Y008316D01*
X005208Y008286D01*
X005208Y008004D01*
X005407Y007805D01*
X005688Y007805D01*
X005888Y008004D01*
X005888Y008286D01*
X005858Y008316D01*
X005858Y009234D01*
X005888Y009264D01*
X005888Y009546D01*
X005688Y009745D01*
X005646Y009745D01*
X005408Y009983D01*
X005294Y010030D01*
X005146Y010030D01*
X005145Y010031D01*
X005087Y010055D01*
X005111Y010065D01*
X005171Y010105D01*
X005222Y010156D01*
X005262Y010216D01*
X005290Y010282D01*
X005301Y010339D01*
X004810Y010339D01*
X004810Y010087D01*
X004710Y010087D01*
X004710Y010339D01*
X004810Y010339D01*
X004810Y010439D01*
X005301Y010439D01*
X005290Y010496D01*
X005262Y010563D01*
X005222Y010623D01*
X005171Y010674D01*
X005111Y010714D01*
X005044Y010742D01*
X005004Y010750D01*
X006004Y010750D01*
X007051Y009702D01*
X007051Y009647D01*
X007107Y009512D01*
X007210Y009409D01*
X005888Y009409D01*
X005888Y009311D02*
X006587Y009311D01*
X006667Y009391D02*
X006467Y009192D01*
X006467Y008910D01*
X006667Y008711D01*
X006948Y008711D01*
X006978Y008741D01*
X007209Y008741D01*
X007210Y008740D01*
X007345Y008684D01*
X007845Y008684D01*
X007980Y008740D01*
X008083Y008843D01*
X008139Y008978D01*
X008139Y009124D01*
X008083Y009258D01*
X007980Y009362D01*
X007922Y009385D01*
X007980Y009409D01*
X008083Y009512D01*
X008139Y009647D01*
X008139Y009793D01*
X008083Y009928D01*
X007980Y010031D01*
X007922Y010055D01*
X007980Y010079D01*
X008083Y010182D01*
X008139Y010316D01*
X008139Y010462D01*
X008096Y010565D01*
X008281Y010750D01*
X009241Y010750D01*
X009201Y010742D01*
X009134Y010714D01*
X009074Y010674D01*
X009023Y010623D01*
X008983Y010563D01*
X008955Y010496D01*
X008944Y010439D01*
X009435Y010439D01*
X009435Y010339D01*
X009535Y010339D01*
X009535Y010439D01*
X010026Y010439D01*
X010014Y010496D01*
X009987Y010563D01*
X009947Y010623D01*
X009895Y010674D01*
X009835Y010714D01*
X009769Y010742D01*
X009728Y010750D01*
X010728Y010750D01*
X011776Y009702D01*
X011776Y009647D01*
X011831Y009512D01*
X011934Y009409D01*
X011992Y009385D01*
X011934Y009362D01*
X011934Y009361D01*
X011703Y009361D01*
X011673Y009391D01*
X011391Y009391D01*
X011192Y009192D01*
X011192Y008910D01*
X011391Y008711D01*
X011673Y008711D01*
X011703Y008741D01*
X011934Y008741D01*
X011934Y008740D01*
X012069Y008684D01*
X012569Y008684D01*
X012704Y008740D01*
X012807Y008843D01*
X012863Y008978D01*
X012863Y009124D01*
X012807Y009258D01*
X012704Y009362D01*
X012646Y009385D01*
X012704Y009409D01*
X013824Y009409D01*
X013882Y009385D01*
X013824Y009362D01*
X013721Y009258D01*
X013665Y009124D01*
X013665Y008978D01*
X013721Y008843D01*
X013824Y008740D01*
X013959Y008684D01*
X014459Y008684D01*
X014594Y008740D01*
X014686Y008833D01*
X014686Y008316D01*
X014656Y008286D01*
X014656Y008004D01*
X014856Y007805D01*
X015137Y007805D01*
X015336Y008004D01*
X015336Y008286D01*
X015306Y008316D01*
X015306Y009234D01*
X015336Y009264D01*
X015336Y009546D01*
X015137Y009745D01*
X015095Y009745D01*
X014857Y009983D01*
X014743Y010030D01*
X014595Y010030D01*
X014594Y010031D01*
X014536Y010055D01*
X014560Y010065D01*
X014620Y010105D01*
X014671Y010156D01*
X014711Y010216D01*
X014739Y010282D01*
X014750Y010339D01*
X014259Y010339D01*
X014259Y010087D01*
X014159Y010087D01*
X014159Y010339D01*
X014259Y010339D01*
X014259Y010439D01*
X014750Y010439D01*
X014739Y010496D01*
X014711Y010563D01*
X014671Y010623D01*
X014620Y010674D01*
X014560Y010714D01*
X014493Y010742D01*
X014452Y010750D01*
X015452Y010750D01*
X016500Y009702D01*
X016500Y009647D01*
X016556Y009512D01*
X016659Y009409D01*
X015336Y009409D01*
X015336Y009311D02*
X016036Y009311D01*
X016115Y009391D02*
X015916Y009192D01*
X015916Y008910D01*
X016115Y008711D01*
X016397Y008711D01*
X016427Y008741D01*
X016658Y008741D01*
X016659Y008740D01*
X016794Y008684D01*
X017294Y008684D01*
X017428Y008740D01*
X017532Y008843D01*
X017587Y008978D01*
X017587Y009124D01*
X017532Y009258D01*
X017428Y009362D01*
X017371Y009385D01*
X017428Y009409D01*
X018549Y009409D01*
X018606Y009385D01*
X018549Y009362D01*
X018446Y009258D01*
X018390Y009124D01*
X018390Y008978D01*
X018446Y008843D01*
X018549Y008740D01*
X018683Y008684D01*
X019184Y008684D01*
X019318Y008740D01*
X019411Y008833D01*
X019411Y008316D01*
X019381Y008286D01*
X019381Y008004D01*
X019580Y007805D01*
X019862Y007805D01*
X020061Y008004D01*
X020061Y008286D01*
X020031Y008316D01*
X020031Y009234D01*
X020061Y009264D01*
X020061Y009546D01*
X019862Y009745D01*
X019819Y009745D01*
X019582Y009983D01*
X019468Y010030D01*
X019319Y010030D01*
X019318Y010031D01*
X019261Y010055D01*
X019284Y010065D01*
X019344Y010105D01*
X019395Y010156D01*
X019435Y010216D01*
X019463Y010282D01*
X019474Y010339D01*
X018983Y010339D01*
X018983Y010087D01*
X018883Y010087D01*
X018883Y010339D01*
X018393Y010339D01*
X018404Y010282D01*
X018431Y010216D01*
X018472Y010156D01*
X018523Y010105D01*
X018583Y010065D01*
X018606Y010055D01*
X018549Y010031D01*
X018446Y009928D01*
X018390Y009793D01*
X018390Y009647D01*
X018446Y009512D01*
X018549Y009409D01*
X018498Y009311D02*
X017479Y009311D01*
X017428Y009409D02*
X017532Y009512D01*
X017587Y009647D01*
X017587Y009793D01*
X017532Y009928D01*
X017428Y010031D01*
X017371Y010055D01*
X017428Y010079D01*
X017532Y010182D01*
X017587Y010316D01*
X017587Y010462D01*
X017545Y010565D01*
X017730Y010750D01*
X018690Y010750D01*
X018649Y010742D01*
X018583Y010714D01*
X018523Y010674D01*
X018472Y010623D01*
X018431Y010563D01*
X018404Y010496D01*
X018393Y010439D01*
X018883Y010439D01*
X018883Y010339D01*
X018983Y010339D01*
X018983Y010439D01*
X018983Y010750D01*
X018883Y010750D01*
X018883Y010439D01*
X018983Y010439D01*
X019474Y010439D01*
X019463Y010496D01*
X019435Y010563D01*
X019395Y010623D01*
X019344Y010674D01*
X019284Y010714D01*
X019218Y010742D01*
X019177Y010750D01*
X020177Y010750D01*
X021224Y009702D01*
X021224Y009647D01*
X021280Y009512D01*
X021383Y009409D01*
X021441Y009385D01*
X021383Y009362D01*
X021383Y009361D01*
X021152Y009361D01*
X021122Y009391D01*
X020840Y009391D01*
X020641Y009192D01*
X020641Y008910D01*
X020840Y008711D01*
X021122Y008711D01*
X021152Y008741D01*
X021383Y008741D01*
X021383Y008740D01*
X021518Y008684D01*
X022018Y008684D01*
X022153Y008740D01*
X022256Y008843D01*
X022312Y008978D01*
X022312Y009124D01*
X022256Y009258D01*
X022153Y009362D01*
X022095Y009385D01*
X022153Y009409D01*
X023273Y009409D01*
X023331Y009385D01*
X023273Y009362D01*
X023170Y009258D01*
X023114Y009124D01*
X023114Y008978D01*
X023170Y008843D01*
X023273Y008740D01*
X023408Y008684D01*
X023908Y008684D01*
X024043Y008740D01*
X024135Y008833D01*
X024135Y008500D01*
X024047Y008412D01*
X023975Y008239D01*
X023975Y008052D01*
X024047Y007879D01*
X024179Y007747D01*
X024352Y007675D01*
X029263Y007675D01*
X029436Y007747D01*
X029568Y007879D01*
X029640Y008052D01*
X029640Y008239D01*
X029568Y008412D01*
X029480Y008500D01*
X029480Y009234D01*
X029510Y009264D01*
X029510Y009546D01*
X029311Y009745D01*
X029268Y009745D01*
X029030Y009983D01*
X028916Y010030D01*
X028768Y010030D01*
X028767Y010031D01*
X028709Y010055D01*
X028733Y010065D01*
X028793Y010105D01*
X028844Y010156D01*
X028884Y010216D01*
X028912Y010282D01*
X028923Y010339D01*
X028432Y010339D01*
X028432Y010087D01*
X028332Y010087D01*
X028332Y010339D01*
X028432Y010339D01*
X028432Y010439D01*
X028923Y010439D01*
X028912Y010496D01*
X028884Y010563D01*
X028844Y010623D01*
X028793Y010674D01*
X028733Y010714D01*
X028666Y010742D01*
X028596Y010756D01*
X028432Y010756D01*
X028432Y010439D01*
X028332Y010439D01*
X028332Y010339D01*
X027841Y010339D01*
X027853Y010282D01*
X027880Y010216D01*
X027920Y010156D01*
X027971Y010105D01*
X028031Y010065D01*
X028055Y010055D01*
X027997Y010031D01*
X027894Y009928D01*
X027839Y009793D01*
X027839Y009647D01*
X027894Y009512D01*
X027997Y009409D01*
X028055Y009385D01*
X027997Y009362D01*
X027894Y009258D01*
X027839Y009124D01*
X027839Y008978D01*
X027894Y008843D01*
X027997Y008740D01*
X028132Y008684D01*
X028632Y008684D01*
X028767Y008740D01*
X028860Y008833D01*
X028860Y008615D01*
X024755Y008615D01*
X024755Y009234D01*
X024785Y009264D01*
X024785Y009546D01*
X024586Y009745D01*
X024544Y009745D01*
X024306Y009983D01*
X024192Y010030D01*
X024043Y010030D01*
X024043Y010031D01*
X023985Y010055D01*
X024009Y010065D01*
X024069Y010105D01*
X024120Y010156D01*
X024160Y010216D01*
X024187Y010282D01*
X024199Y010339D01*
X023708Y010339D01*
X023708Y010087D01*
X023608Y010087D01*
X023608Y010339D01*
X023708Y010339D01*
X023708Y010439D01*
X024199Y010439D01*
X024187Y010496D01*
X024160Y010563D01*
X024120Y010623D01*
X024069Y010674D01*
X024009Y010714D01*
X023942Y010742D01*
X023901Y010750D01*
X024901Y010750D01*
X025949Y009702D01*
X025949Y009647D01*
X026005Y009512D01*
X026108Y009409D01*
X024785Y009409D01*
X024785Y009311D02*
X025484Y009311D01*
X025564Y009391D02*
X025365Y009192D01*
X025365Y008910D01*
X025564Y008711D01*
X025846Y008711D01*
X025876Y008741D01*
X026107Y008741D01*
X026108Y008740D01*
X026242Y008684D01*
X026743Y008684D01*
X026877Y008740D01*
X026980Y008843D01*
X027036Y008978D01*
X027036Y009124D01*
X026980Y009258D01*
X026877Y009362D01*
X026820Y009385D01*
X026877Y009409D01*
X027998Y009409D01*
X027947Y009311D02*
X026928Y009311D01*
X026877Y009409D02*
X026980Y009512D01*
X027036Y009647D01*
X027036Y009793D01*
X026980Y009928D01*
X026877Y010031D01*
X026820Y010055D01*
X026877Y010079D01*
X026980Y010182D01*
X027036Y010316D01*
X027036Y010462D01*
X026980Y010597D01*
X026877Y010700D01*
X026743Y010756D01*
X026242Y010756D01*
X026108Y010700D01*
X026005Y010597D01*
X025949Y010462D01*
X025949Y010353D01*
X025237Y011065D01*
X027187Y011065D01*
X027297Y010955D01*
X027578Y010955D01*
X027777Y011154D01*
X027777Y011436D01*
X027578Y011635D01*
X027297Y011635D01*
X027187Y011525D01*
X002775Y011525D01*
X002640Y011390D01*
X001932Y010681D01*
X001932Y009861D01*
X002067Y009726D01*
X002303Y009490D01*
X002405Y009490D01*
X002486Y009409D01*
X001880Y009409D01*
X001942Y009391D02*
X001880Y009329D01*
X001880Y013427D01*
X001922Y013385D01*
X002245Y013385D01*
X002325Y013465D01*
X002485Y013465D01*
X002486Y013464D01*
X002620Y013409D01*
X003121Y013409D01*
X003255Y013464D01*
X003358Y013568D01*
X003414Y013702D01*
X003414Y013848D01*
X003358Y013983D01*
X003255Y014086D01*
X003198Y014110D01*
X003255Y014134D01*
X003358Y014237D01*
X003414Y014372D01*
X003414Y014517D01*
X003358Y014652D01*
X003255Y014755D01*
X003198Y014779D01*
X003255Y014803D01*
X003358Y014906D01*
X003414Y015041D01*
X003414Y015187D01*
X003372Y015290D01*
X003556Y015474D01*
X004517Y015474D01*
X004476Y015466D01*
X004409Y015439D01*
X004349Y015398D01*
X004298Y015347D01*
X004258Y015287D01*
X004231Y015221D01*
X003400Y015221D01*
X003401Y015319D02*
X004280Y015319D01*
X004231Y015221D02*
X004219Y015164D01*
X004710Y015164D01*
X004710Y015064D01*
X004219Y015064D01*
X004231Y015007D01*
X004258Y014940D01*
X004298Y014880D01*
X004349Y014829D01*
X004409Y014789D01*
X004433Y014779D01*
X004375Y014755D01*
X004272Y014652D01*
X004217Y014517D01*
X004217Y014372D01*
X004272Y014237D01*
X004375Y014134D01*
X004433Y014110D01*
X004375Y014086D01*
X004272Y013983D01*
X004217Y013848D01*
X004217Y013702D01*
X004272Y013568D01*
X004375Y013464D01*
X004510Y013409D01*
X005010Y013409D01*
X005145Y013464D01*
X005248Y013568D01*
X005304Y013702D01*
X005304Y013848D01*
X005273Y013924D01*
X005407Y013790D01*
X005688Y013790D01*
X005888Y013989D01*
X005888Y014270D01*
X005688Y014470D01*
X005646Y014470D01*
X005408Y014707D01*
X005294Y014754D01*
X005146Y014754D01*
X005145Y014755D01*
X005087Y014779D01*
X005111Y014789D01*
X005171Y014829D01*
X005222Y014880D01*
X005262Y014940D01*
X005290Y015007D01*
X005301Y015064D01*
X004810Y015064D01*
X004810Y014811D01*
X004710Y014811D01*
X004710Y015064D01*
X004810Y015064D01*
X004810Y015164D01*
X004810Y015474D01*
X004710Y015474D01*
X004710Y015164D01*
X004810Y015164D01*
X005301Y015164D01*
X005290Y015221D01*
X006257Y015221D01*
X006159Y015319D02*
X005241Y015319D01*
X005222Y015347D02*
X005171Y015398D01*
X005111Y015439D01*
X005044Y015466D01*
X005004Y015474D01*
X006004Y015474D01*
X007051Y014427D01*
X007051Y014372D01*
X007107Y014237D01*
X007210Y014134D01*
X007268Y014110D01*
X007210Y014086D01*
X007209Y014085D01*
X006978Y014085D01*
X006948Y014115D01*
X006667Y014115D01*
X006467Y013916D01*
X006467Y013634D01*
X006667Y013435D01*
X006948Y013435D01*
X006978Y013465D01*
X007209Y013465D01*
X007210Y013464D01*
X007345Y013409D01*
X007845Y013409D01*
X007980Y013464D01*
X008083Y013568D01*
X008139Y013702D01*
X008139Y013848D01*
X008083Y013983D01*
X007980Y014086D01*
X007922Y014110D01*
X007980Y014134D01*
X008083Y014237D01*
X008139Y014372D01*
X008139Y014517D01*
X008083Y014652D01*
X007980Y014755D01*
X007922Y014779D01*
X007980Y014803D01*
X008083Y014906D01*
X008139Y015041D01*
X008139Y015187D01*
X008096Y015290D01*
X008281Y015474D01*
X009241Y015474D01*
X009201Y015466D01*
X009134Y015439D01*
X009074Y015398D01*
X009023Y015347D01*
X008983Y015287D01*
X008955Y015221D01*
X008124Y015221D01*
X008126Y015319D02*
X009004Y015319D01*
X008955Y015221D02*
X008944Y015164D01*
X009435Y015164D01*
X009435Y015474D01*
X009535Y015474D01*
X009535Y015164D01*
X010026Y015164D01*
X010014Y015221D01*
X010981Y015221D01*
X010883Y015319D02*
X009965Y015319D01*
X009947Y015347D02*
X009895Y015398D01*
X009835Y015439D01*
X009769Y015466D01*
X009728Y015474D01*
X010728Y015474D01*
X011776Y014427D01*
X011776Y014372D01*
X011831Y014237D01*
X011934Y014134D01*
X011992Y014110D01*
X011934Y014086D01*
X011934Y014085D01*
X011703Y014085D01*
X011673Y014115D01*
X011391Y014115D01*
X011192Y013916D01*
X011192Y013634D01*
X011391Y013435D01*
X011673Y013435D01*
X011703Y013465D01*
X011934Y013465D01*
X011934Y013464D01*
X012069Y013409D01*
X012569Y013409D01*
X012704Y013464D01*
X012807Y013568D01*
X012863Y013702D01*
X012863Y013848D01*
X012807Y013983D01*
X012704Y014086D01*
X012646Y014110D01*
X012704Y014134D01*
X012807Y014237D01*
X012863Y014372D01*
X012863Y014517D01*
X012807Y014652D01*
X012704Y014755D01*
X012646Y014779D01*
X012704Y014803D01*
X012807Y014906D01*
X012863Y015041D01*
X012863Y015187D01*
X012820Y015290D01*
X013005Y015474D01*
X013966Y015474D01*
X013925Y015466D01*
X013858Y015439D01*
X013798Y015398D01*
X013747Y015347D01*
X013707Y015287D01*
X013679Y015221D01*
X012849Y015221D01*
X012850Y015319D02*
X013728Y015319D01*
X013679Y015221D02*
X013668Y015164D01*
X014159Y015164D01*
X014159Y015474D01*
X014259Y015474D01*
X014259Y015164D01*
X014159Y015164D01*
X014159Y015064D01*
X013668Y015064D01*
X013679Y015007D01*
X013707Y014940D01*
X013747Y014880D01*
X013798Y014829D01*
X013858Y014789D01*
X013882Y014779D01*
X013824Y014755D01*
X013721Y014652D01*
X013665Y014517D01*
X013665Y014372D01*
X013721Y014237D01*
X013824Y014134D01*
X013882Y014110D01*
X013824Y014086D01*
X013721Y013983D01*
X013665Y013848D01*
X013665Y013702D01*
X013721Y013568D01*
X013824Y013464D01*
X013959Y013409D01*
X014459Y013409D01*
X014594Y013464D01*
X014697Y013568D01*
X014753Y013702D01*
X014753Y013848D01*
X014721Y013924D01*
X014856Y013790D01*
X015137Y013790D01*
X015336Y013989D01*
X015336Y014270D01*
X015137Y014470D01*
X015095Y014470D01*
X014857Y014707D01*
X014743Y014754D01*
X014595Y014754D01*
X014594Y014755D01*
X014536Y014779D01*
X014560Y014789D01*
X014620Y014829D01*
X014671Y014880D01*
X014711Y014940D01*
X014739Y015007D01*
X014750Y015064D01*
X014259Y015064D01*
X014259Y015164D01*
X014750Y015164D01*
X014739Y015221D01*
X015706Y015221D01*
X015607Y015319D02*
X014690Y015319D01*
X014671Y015347D02*
X014620Y015398D01*
X014560Y015439D01*
X014493Y015466D01*
X014452Y015474D01*
X015452Y015474D01*
X016500Y014427D01*
X016500Y014372D01*
X016556Y014237D01*
X016659Y014134D01*
X016717Y014110D01*
X016659Y014086D01*
X016658Y014085D01*
X016427Y014085D01*
X016397Y014115D01*
X016115Y014115D01*
X015916Y013916D01*
X015916Y013634D01*
X016115Y013435D01*
X016397Y013435D01*
X016427Y013465D01*
X016658Y013465D01*
X016659Y013464D01*
X016794Y013409D01*
X017294Y013409D01*
X017428Y013464D01*
X017532Y013568D01*
X017587Y013702D01*
X017587Y013848D01*
X017532Y013983D01*
X017428Y014086D01*
X017371Y014110D01*
X017428Y014134D01*
X017532Y014237D01*
X017587Y014372D01*
X017587Y014517D01*
X017532Y014652D01*
X017428Y014755D01*
X017371Y014779D01*
X017428Y014803D01*
X017532Y014906D01*
X017587Y015041D01*
X017587Y015187D01*
X017545Y015290D01*
X017730Y015474D01*
X018690Y015474D01*
X018649Y015466D01*
X018583Y015439D01*
X018523Y015398D01*
X018472Y015347D01*
X018431Y015287D01*
X018404Y015221D01*
X017573Y015221D01*
X017575Y015319D02*
X018453Y015319D01*
X018404Y015221D02*
X018393Y015164D01*
X018883Y015164D01*
X018883Y015064D01*
X018393Y015064D01*
X018404Y015007D01*
X018431Y014940D01*
X018472Y014880D01*
X018523Y014829D01*
X018583Y014789D01*
X018606Y014779D01*
X018549Y014755D01*
X018446Y014652D01*
X018390Y014517D01*
X018390Y014372D01*
X018446Y014237D01*
X018549Y014134D01*
X018606Y014110D01*
X018549Y014086D01*
X018446Y013983D01*
X018390Y013848D01*
X018390Y013702D01*
X018446Y013568D01*
X018549Y013464D01*
X018683Y013409D01*
X019184Y013409D01*
X019318Y013464D01*
X019421Y013568D01*
X019477Y013702D01*
X019477Y013848D01*
X019446Y013924D01*
X019580Y013790D01*
X019862Y013790D01*
X020061Y013989D01*
X020061Y014270D01*
X019862Y014470D01*
X019819Y014470D01*
X019582Y014707D01*
X019468Y014754D01*
X019319Y014754D01*
X019318Y014755D01*
X019261Y014779D01*
X019284Y014789D01*
X019344Y014829D01*
X019395Y014880D01*
X019435Y014940D01*
X019463Y015007D01*
X019474Y015064D01*
X018983Y015064D01*
X018983Y014811D01*
X018883Y014811D01*
X018883Y015064D01*
X018983Y015064D01*
X018983Y015164D01*
X018983Y015474D01*
X018883Y015474D01*
X018883Y015164D01*
X018983Y015164D01*
X019474Y015164D01*
X019463Y015221D01*
X020430Y015221D01*
X020332Y015319D02*
X019414Y015319D01*
X019395Y015347D02*
X019435Y015287D01*
X019463Y015221D01*
X019395Y015347D02*
X019344Y015398D01*
X019284Y015439D01*
X019218Y015466D01*
X019177Y015474D01*
X020177Y015474D01*
X021224Y014427D01*
X021224Y014372D01*
X021280Y014237D01*
X021383Y014134D01*
X021441Y014110D01*
X021383Y014086D01*
X021383Y014085D01*
X021152Y014085D01*
X021122Y014115D01*
X020840Y014115D01*
X020641Y013916D01*
X020641Y013634D01*
X020840Y013435D01*
X021122Y013435D01*
X021152Y013465D01*
X021383Y013465D01*
X021383Y013464D01*
X021518Y013409D01*
X022018Y013409D01*
X022153Y013464D01*
X022256Y013568D01*
X022312Y013702D01*
X022312Y013848D01*
X022256Y013983D01*
X022153Y014086D01*
X022095Y014110D01*
X022153Y014134D01*
X022256Y014237D01*
X022312Y014372D01*
X022312Y014517D01*
X022256Y014652D01*
X022153Y014755D01*
X022095Y014779D01*
X022153Y014803D01*
X022256Y014906D01*
X022312Y015041D01*
X022312Y015187D01*
X022269Y015290D01*
X022454Y015474D01*
X023415Y015474D01*
X023374Y015466D01*
X023307Y015439D01*
X023247Y015398D01*
X023196Y015347D01*
X023156Y015287D01*
X023128Y015221D01*
X022298Y015221D01*
X022299Y015319D02*
X023177Y015319D01*
X023128Y015221D02*
X023117Y015164D01*
X023608Y015164D01*
X023608Y015474D01*
X023708Y015474D01*
X023708Y015164D01*
X023608Y015164D01*
X023608Y015064D01*
X023117Y015064D01*
X023128Y015007D01*
X023156Y014940D01*
X023196Y014880D01*
X023247Y014829D01*
X023307Y014789D01*
X023331Y014779D01*
X023273Y014755D01*
X023170Y014652D01*
X023114Y014517D01*
X023114Y014372D01*
X023170Y014237D01*
X023273Y014134D01*
X023331Y014110D01*
X023273Y014086D01*
X023170Y013983D01*
X023114Y013848D01*
X023114Y013702D01*
X023170Y013568D01*
X023273Y013464D01*
X023408Y013409D01*
X023908Y013409D01*
X024043Y013464D01*
X024146Y013568D01*
X024202Y013702D01*
X024202Y013848D01*
X024170Y013924D01*
X024304Y013790D01*
X024586Y013790D01*
X024785Y013989D01*
X024785Y014270D01*
X024586Y014470D01*
X024544Y014470D01*
X024306Y014707D01*
X024192Y014754D01*
X024043Y014754D01*
X024043Y014755D01*
X023985Y014779D01*
X024009Y014789D01*
X024069Y014829D01*
X024120Y014880D01*
X024160Y014940D01*
X024187Y015007D01*
X024199Y015064D01*
X023708Y015064D01*
X023708Y015164D01*
X024199Y015164D01*
X024187Y015221D01*
X025155Y015221D01*
X025253Y015122D02*
X023708Y015122D01*
X023708Y015064D02*
X023708Y014811D01*
X023608Y014811D01*
X023608Y015064D01*
X023708Y015064D01*
X023708Y015024D02*
X023608Y015024D01*
X023608Y015122D02*
X022312Y015122D01*
X022305Y015024D02*
X023125Y015024D01*
X023166Y014925D02*
X022264Y014925D01*
X022177Y014827D02*
X023250Y014827D01*
X023246Y014728D02*
X022180Y014728D01*
X022265Y014630D02*
X023161Y014630D01*
X023120Y014531D02*
X022306Y014531D01*
X022312Y014433D02*
X023114Y014433D01*
X023130Y014334D02*
X022296Y014334D01*
X022255Y014236D02*
X023171Y014236D01*
X023270Y014137D02*
X022156Y014137D01*
X022200Y014039D02*
X023226Y014039D01*
X023152Y013940D02*
X022274Y013940D01*
X022312Y013842D02*
X023114Y013842D01*
X023114Y013743D02*
X022312Y013743D01*
X022288Y013645D02*
X023138Y013645D01*
X023191Y013546D02*
X022235Y013546D01*
X022113Y013448D02*
X023313Y013448D01*
X024003Y013448D02*
X025552Y013448D01*
X025564Y013435D02*
X025846Y013435D01*
X025876Y013465D01*
X026107Y013465D01*
X026108Y013464D01*
X026242Y013409D01*
X026743Y013409D01*
X026877Y013464D01*
X026980Y013568D01*
X027036Y013702D01*
X027036Y013848D01*
X026980Y013983D01*
X026877Y014086D01*
X026820Y014110D01*
X026877Y014134D01*
X026980Y014237D01*
X027036Y014372D01*
X027036Y014517D01*
X026980Y014652D01*
X026877Y014755D01*
X026820Y014779D01*
X026877Y014803D01*
X026934Y014859D01*
X027097Y014695D01*
X027097Y014540D01*
X027297Y014341D01*
X027578Y014341D01*
X027777Y014540D01*
X027777Y014822D01*
X027578Y015021D01*
X027423Y015021D01*
X027100Y015344D01*
X026958Y015344D01*
X026877Y015425D01*
X026743Y015480D01*
X026242Y015480D01*
X026108Y015425D01*
X026005Y015321D01*
X025949Y015187D01*
X025949Y015077D01*
X025237Y015789D01*
X026037Y015789D01*
X027296Y017049D01*
X027431Y017184D01*
X027431Y019737D01*
X027296Y019871D01*
X027100Y020068D01*
X026958Y020068D01*
X026877Y020149D01*
X026743Y020205D01*
X026242Y020205D01*
X026108Y020149D01*
X026005Y020046D01*
X025949Y019911D01*
X025949Y019802D01*
X025226Y020524D01*
X025092Y020659D01*
X022263Y020659D01*
X021809Y020205D01*
X021518Y020205D01*
X021383Y020149D01*
X021280Y020046D01*
X021224Y019911D01*
X021224Y019802D01*
X020502Y020524D01*
X020367Y020659D01*
X017539Y020659D01*
X017085Y020205D01*
X016794Y020205D01*
X016659Y020149D01*
X016556Y020046D01*
X016500Y019911D01*
X016500Y019802D01*
X015778Y020524D01*
X015643Y020659D01*
X012815Y020659D01*
X012361Y020205D01*
X012069Y020205D01*
X011934Y020149D01*
X011831Y020046D01*
X011776Y019911D01*
X011776Y019774D01*
X010905Y020594D01*
X010840Y020659D01*
X010836Y020659D01*
X010833Y020662D01*
X010741Y020659D01*
X008090Y020659D01*
X007955Y020524D01*
X007636Y020205D01*
X007345Y020205D01*
X007210Y020149D01*
X007107Y020046D01*
X007051Y019911D01*
X007051Y019802D01*
X006329Y020524D01*
X006194Y020659D01*
X003366Y020659D01*
X003231Y020524D01*
X002912Y020205D01*
X002620Y020205D01*
X002486Y020149D01*
X002383Y020046D01*
X002327Y019911D01*
X002327Y019765D01*
X002383Y019631D01*
X002486Y019527D01*
X002543Y019504D01*
X002486Y019480D01*
X002405Y019399D01*
X001830Y019399D01*
X001630Y019199D01*
X001630Y019298D01*
X004304Y021972D01*
X004439Y022107D01*
X004439Y022912D01*
X004509Y022982D01*
X004509Y023230D01*
X004333Y023406D01*
X004300Y023406D01*
X004300Y023850D01*
X004280Y023870D01*
X004300Y023890D01*
X004300Y024381D01*
X004333Y024381D01*
X004509Y024556D01*
X004509Y024774D01*
X004727Y024774D01*
X004903Y024950D01*
X004903Y025199D01*
X004833Y025269D01*
X004833Y025286D01*
X004380Y025739D01*
X004245Y025873D01*
X003305Y025873D01*
X003170Y025739D01*
X000670Y023239D01*
X000670Y007548D01*
X002670Y005548D01*
X002805Y005413D01*
X006805Y005413D01*
X006841Y005377D01*
X006753Y005413D01*
X006547Y005413D01*
X006355Y005334D01*
X006209Y005188D01*
X006130Y004997D01*
X006130Y004790D01*
X006209Y004599D01*
X006355Y004452D01*
X006547Y004373D01*
X006784Y004386D02*
X007516Y004386D01*
X007324Y004484D02*
X006976Y004484D01*
X007075Y004583D02*
X007225Y004583D01*
X007175Y004681D02*
X007125Y004681D01*
X007784Y004386D02*
X008516Y004386D01*
X008324Y004484D02*
X007976Y004484D01*
X008075Y004583D02*
X008225Y004583D01*
X008175Y004681D02*
X008125Y004681D01*
X008784Y004386D02*
X009516Y004386D01*
X009324Y004484D02*
X008976Y004484D01*
X009075Y004583D02*
X009225Y004583D01*
X009175Y004681D02*
X009125Y004681D01*
X009784Y004386D02*
X010516Y004386D01*
X010324Y004484D02*
X009976Y004484D01*
X010075Y004583D02*
X010225Y004583D01*
X010175Y004681D02*
X010125Y004681D01*
X010137Y005075D02*
X010163Y005075D01*
X010203Y005174D02*
X010097Y005174D01*
X010006Y005272D02*
X010294Y005272D01*
X010444Y005371D02*
X009856Y005371D01*
X009407Y005962D02*
X030950Y005962D01*
X030950Y006060D02*
X009308Y006060D01*
X009210Y006159D02*
X030950Y006159D01*
X030950Y006257D02*
X009111Y006257D01*
X009013Y006356D02*
X030950Y006356D01*
X030950Y006454D02*
X008914Y006454D01*
X008816Y006553D02*
X030950Y006553D01*
X030950Y006651D02*
X003717Y006651D01*
X003619Y006750D02*
X030950Y006750D01*
X030950Y006848D02*
X003520Y006848D01*
X003422Y006947D02*
X030950Y006947D01*
X030950Y007045D02*
X003323Y007045D01*
X003225Y007144D02*
X030950Y007144D01*
X030950Y007242D02*
X003126Y007242D01*
X003028Y007341D02*
X030950Y007341D01*
X030950Y007439D02*
X002929Y007439D01*
X002831Y007538D02*
X030950Y007538D01*
X030950Y007636D02*
X002732Y007636D01*
X002634Y007735D02*
X024208Y007735D01*
X024093Y007833D02*
X019890Y007833D01*
X019988Y007932D02*
X024025Y007932D01*
X023984Y008030D02*
X020061Y008030D01*
X020061Y008129D02*
X023975Y008129D01*
X023975Y008227D02*
X020061Y008227D01*
X020031Y008326D02*
X024011Y008326D01*
X024060Y008424D02*
X020031Y008424D01*
X020031Y008523D02*
X024135Y008523D01*
X024135Y008621D02*
X020031Y008621D01*
X020031Y008720D02*
X020831Y008720D01*
X020732Y008818D02*
X020031Y008818D01*
X020031Y008917D02*
X020641Y008917D01*
X020641Y009015D02*
X020031Y009015D01*
X020031Y009114D02*
X020641Y009114D01*
X020661Y009212D02*
X020031Y009212D01*
X020061Y009311D02*
X020760Y009311D01*
X021241Y009606D02*
X020000Y009606D01*
X020061Y009508D02*
X021285Y009508D01*
X021383Y009409D02*
X020061Y009409D01*
X019902Y009705D02*
X021222Y009705D01*
X021123Y009803D02*
X019761Y009803D01*
X019663Y009902D02*
X021025Y009902D01*
X020926Y010000D02*
X019539Y010000D01*
X019336Y010099D02*
X020828Y010099D01*
X020729Y010197D02*
X019423Y010197D01*
X019466Y010296D02*
X020631Y010296D01*
X020532Y010394D02*
X018983Y010394D01*
X018983Y010296D02*
X018883Y010296D01*
X018883Y010394D02*
X017587Y010394D01*
X017579Y010296D02*
X018401Y010296D01*
X018444Y010197D02*
X017538Y010197D01*
X017449Y010099D02*
X018531Y010099D01*
X018518Y010000D02*
X017459Y010000D01*
X017542Y009902D02*
X018435Y009902D01*
X018394Y009803D02*
X017583Y009803D01*
X017587Y009705D02*
X018390Y009705D01*
X018407Y009606D02*
X017570Y009606D01*
X017527Y009508D02*
X018450Y009508D01*
X018426Y009212D02*
X017551Y009212D01*
X017587Y009114D02*
X018390Y009114D01*
X018390Y009015D02*
X017587Y009015D01*
X017562Y008917D02*
X018415Y008917D01*
X018470Y008818D02*
X017507Y008818D01*
X017380Y008720D02*
X018598Y008720D01*
X019269Y008720D02*
X019411Y008720D01*
X019397Y008818D02*
X019411Y008818D01*
X019411Y008621D02*
X015306Y008621D01*
X015306Y008523D02*
X019411Y008523D01*
X019411Y008424D02*
X015306Y008424D01*
X015306Y008326D02*
X019411Y008326D01*
X019381Y008227D02*
X015336Y008227D01*
X015336Y008129D02*
X019381Y008129D01*
X019381Y008030D02*
X015336Y008030D01*
X015264Y007932D02*
X019453Y007932D01*
X019552Y007833D02*
X015165Y007833D01*
X014828Y007833D02*
X010441Y007833D01*
X010413Y007805D02*
X010612Y008004D01*
X010612Y008286D01*
X010582Y008316D01*
X010582Y009234D01*
X010612Y009264D01*
X010612Y009546D01*
X010413Y009745D01*
X010370Y009745D01*
X010133Y009983D01*
X010019Y010030D01*
X009870Y010030D01*
X009869Y010031D01*
X009812Y010055D01*
X009835Y010065D01*
X009895Y010105D01*
X009947Y010156D01*
X009987Y010216D01*
X010014Y010282D01*
X010026Y010339D01*
X009535Y010339D01*
X009535Y010087D01*
X009435Y010087D01*
X009435Y010339D01*
X008944Y010339D01*
X008955Y010282D01*
X008983Y010216D01*
X009023Y010156D01*
X009074Y010105D01*
X009134Y010065D01*
X009158Y010055D01*
X009100Y010031D01*
X008997Y009928D01*
X008941Y009793D01*
X008941Y009647D01*
X008997Y009512D01*
X009100Y009409D01*
X007980Y009409D01*
X008030Y009311D02*
X009049Y009311D01*
X009100Y009362D02*
X008997Y009258D01*
X008941Y009124D01*
X008941Y008978D01*
X008997Y008843D01*
X009100Y008740D01*
X009235Y008684D01*
X009735Y008684D01*
X009869Y008740D01*
X009962Y008833D01*
X009962Y008316D01*
X009932Y008286D01*
X009932Y008004D01*
X010131Y007805D01*
X010413Y007805D01*
X010539Y007932D02*
X014729Y007932D01*
X014656Y008030D02*
X010612Y008030D01*
X010612Y008129D02*
X014656Y008129D01*
X014656Y008227D02*
X010612Y008227D01*
X010582Y008326D02*
X014686Y008326D01*
X014686Y008424D02*
X010582Y008424D01*
X010582Y008523D02*
X014686Y008523D01*
X014686Y008621D02*
X010582Y008621D01*
X010582Y008720D02*
X011382Y008720D01*
X011284Y008818D02*
X010582Y008818D01*
X010582Y008917D02*
X011192Y008917D01*
X011192Y009015D02*
X010582Y009015D01*
X010582Y009114D02*
X011192Y009114D01*
X011213Y009212D02*
X010582Y009212D01*
X010612Y009311D02*
X011311Y009311D01*
X011836Y009508D02*
X010612Y009508D01*
X010612Y009409D02*
X011935Y009409D01*
X011793Y009606D02*
X010552Y009606D01*
X010453Y009705D02*
X011773Y009705D01*
X011675Y009803D02*
X010312Y009803D01*
X010214Y009902D02*
X011576Y009902D01*
X011478Y010000D02*
X010091Y010000D01*
X009887Y010099D02*
X011379Y010099D01*
X011281Y010197D02*
X009974Y010197D01*
X010017Y010296D02*
X011182Y010296D01*
X011084Y010394D02*
X009535Y010394D01*
X009535Y010439D02*
X009535Y010750D01*
X009435Y010750D01*
X009435Y010439D01*
X009535Y010439D01*
X009535Y010493D02*
X009435Y010493D01*
X009435Y010591D02*
X009535Y010591D01*
X009535Y010690D02*
X009435Y010690D01*
X009435Y010394D02*
X008139Y010394D01*
X008130Y010296D02*
X008952Y010296D01*
X008995Y010197D02*
X008089Y010197D01*
X008000Y010099D02*
X009083Y010099D01*
X009069Y010000D02*
X008010Y010000D01*
X008094Y009902D02*
X008986Y009902D01*
X008945Y009803D02*
X008134Y009803D01*
X008139Y009705D02*
X008941Y009705D01*
X008958Y009606D02*
X008122Y009606D01*
X008078Y009508D02*
X009001Y009508D01*
X009100Y009409D02*
X009158Y009385D01*
X009100Y009362D01*
X008978Y009212D02*
X008102Y009212D01*
X008139Y009114D02*
X008941Y009114D01*
X008941Y009015D02*
X008139Y009015D01*
X008113Y008917D02*
X008966Y008917D01*
X009022Y008818D02*
X008058Y008818D01*
X007931Y008720D02*
X009149Y008720D01*
X009821Y008720D02*
X009962Y008720D01*
X009948Y008818D02*
X009962Y008818D01*
X009962Y008621D02*
X005858Y008621D01*
X005858Y008523D02*
X009962Y008523D01*
X009962Y008424D02*
X005858Y008424D01*
X005858Y008326D02*
X009962Y008326D01*
X009932Y008227D02*
X005888Y008227D01*
X005888Y008129D02*
X009932Y008129D01*
X009932Y008030D02*
X005888Y008030D01*
X005815Y007932D02*
X010005Y007932D01*
X010103Y007833D02*
X005717Y007833D01*
X005379Y007833D02*
X002535Y007833D01*
X002437Y007932D02*
X005280Y007932D01*
X005208Y008030D02*
X002338Y008030D01*
X002240Y008129D02*
X005208Y008129D01*
X005208Y008227D02*
X002141Y008227D01*
X002043Y008326D02*
X005238Y008326D01*
X005238Y008424D02*
X001944Y008424D01*
X001880Y008523D02*
X005238Y008523D01*
X005238Y008621D02*
X001880Y008621D01*
X001880Y008720D02*
X001933Y008720D01*
X002233Y008720D02*
X002535Y008720D01*
X002485Y009361D02*
X002254Y009361D01*
X002224Y009391D01*
X001942Y009391D01*
X001880Y009508D02*
X002285Y009508D01*
X002187Y009606D02*
X001880Y009606D01*
X001880Y009705D02*
X002088Y009705D01*
X001990Y009803D02*
X001880Y009803D01*
X001880Y009902D02*
X001932Y009902D01*
X001932Y010000D02*
X001880Y010000D01*
X001880Y010099D02*
X001932Y010099D01*
X001932Y010197D02*
X001880Y010197D01*
X001880Y010296D02*
X001932Y010296D01*
X001932Y010394D02*
X001880Y010394D01*
X001880Y010493D02*
X001932Y010493D01*
X001932Y010591D02*
X001880Y010591D01*
X001880Y010690D02*
X001940Y010690D01*
X001880Y010788D02*
X002039Y010788D01*
X002137Y010887D02*
X001880Y010887D01*
X001880Y010985D02*
X002236Y010985D01*
X002334Y011084D02*
X001880Y011084D01*
X001880Y011182D02*
X002433Y011182D01*
X002531Y011281D02*
X001880Y011281D01*
X001880Y011379D02*
X002630Y011379D01*
X002728Y011478D02*
X001880Y011478D01*
X001880Y011576D02*
X027238Y011576D01*
X027637Y011576D02*
X030950Y011576D01*
X030950Y011478D02*
X027735Y011478D01*
X027777Y011379D02*
X030950Y011379D01*
X030950Y011281D02*
X027777Y011281D01*
X027777Y011182D02*
X030950Y011182D01*
X030950Y011084D02*
X027707Y011084D01*
X027609Y010985D02*
X030950Y010985D01*
X030950Y010887D02*
X025415Y010887D01*
X025513Y010788D02*
X030950Y010788D01*
X030950Y010690D02*
X028770Y010690D01*
X028865Y010591D02*
X030950Y010591D01*
X030950Y010493D02*
X028913Y010493D01*
X028915Y010296D02*
X030950Y010296D01*
X030950Y010394D02*
X028432Y010394D01*
X028432Y010296D02*
X028332Y010296D01*
X028332Y010394D02*
X027036Y010394D01*
X027028Y010296D02*
X027850Y010296D01*
X027893Y010197D02*
X026987Y010197D01*
X026897Y010099D02*
X027980Y010099D01*
X027967Y010000D02*
X026908Y010000D01*
X026991Y009902D02*
X027884Y009902D01*
X027843Y009803D02*
X027032Y009803D01*
X027036Y009705D02*
X027839Y009705D01*
X027856Y009606D02*
X027019Y009606D01*
X026976Y009508D02*
X027899Y009508D01*
X027875Y009212D02*
X027000Y009212D01*
X027036Y009114D02*
X027839Y009114D01*
X027839Y009015D02*
X027036Y009015D01*
X027011Y008917D02*
X027864Y008917D01*
X027919Y008818D02*
X026956Y008818D01*
X026828Y008720D02*
X028046Y008720D01*
X028718Y008720D02*
X028860Y008720D01*
X028860Y008818D02*
X028845Y008818D01*
X028860Y008621D02*
X024755Y008621D01*
X024755Y008720D02*
X025555Y008720D01*
X025457Y008818D02*
X024755Y008818D01*
X024755Y008917D02*
X025365Y008917D01*
X025365Y009015D02*
X024755Y009015D01*
X024755Y009114D02*
X025365Y009114D01*
X025386Y009212D02*
X024755Y009212D01*
X024785Y009508D02*
X026009Y009508D01*
X025966Y009606D02*
X024725Y009606D01*
X024626Y009705D02*
X025946Y009705D01*
X025848Y009803D02*
X024485Y009803D01*
X024387Y009902D02*
X025749Y009902D01*
X025651Y010000D02*
X024264Y010000D01*
X024060Y010099D02*
X025552Y010099D01*
X025454Y010197D02*
X024148Y010197D01*
X024190Y010296D02*
X025355Y010296D01*
X025257Y010394D02*
X023708Y010394D01*
X023708Y010439D02*
X023708Y010750D01*
X023608Y010750D01*
X023608Y010439D01*
X023608Y010339D01*
X023117Y010339D01*
X023128Y010282D01*
X023156Y010216D01*
X023196Y010156D01*
X023247Y010105D01*
X023307Y010065D01*
X023331Y010055D01*
X023273Y010031D01*
X023170Y009928D01*
X023114Y009793D01*
X023114Y009647D01*
X023170Y009512D01*
X023273Y009409D01*
X023222Y009311D02*
X022204Y009311D01*
X022153Y009409D02*
X022256Y009512D01*
X022312Y009647D01*
X022312Y009793D01*
X022256Y009928D01*
X022153Y010031D01*
X022095Y010055D01*
X022153Y010079D01*
X022256Y010182D01*
X022312Y010316D01*
X022312Y010462D01*
X022269Y010565D01*
X022454Y010750D01*
X023415Y010750D01*
X023374Y010742D01*
X023307Y010714D01*
X023247Y010674D01*
X023196Y010623D01*
X023156Y010563D01*
X023128Y010496D01*
X023117Y010439D01*
X023608Y010439D01*
X023708Y010439D01*
X023708Y010493D02*
X023608Y010493D01*
X023608Y010591D02*
X023708Y010591D01*
X023708Y010690D02*
X023608Y010690D01*
X023608Y010394D02*
X022312Y010394D01*
X022303Y010296D02*
X023126Y010296D01*
X023168Y010197D02*
X022262Y010197D01*
X022173Y010099D02*
X023256Y010099D01*
X023243Y010000D02*
X022183Y010000D01*
X022267Y009902D02*
X023159Y009902D01*
X023118Y009803D02*
X022308Y009803D01*
X022312Y009705D02*
X023114Y009705D01*
X023131Y009606D02*
X022295Y009606D01*
X022251Y009508D02*
X023175Y009508D01*
X023151Y009212D02*
X022275Y009212D01*
X022312Y009114D02*
X023114Y009114D01*
X023114Y009015D02*
X022312Y009015D01*
X022287Y008917D02*
X023139Y008917D01*
X023195Y008818D02*
X022231Y008818D01*
X022104Y008720D02*
X023322Y008720D01*
X023994Y008720D02*
X024135Y008720D01*
X024121Y008818D02*
X024135Y008818D01*
X023708Y010099D02*
X023608Y010099D01*
X023608Y010197D02*
X023708Y010197D01*
X023708Y010296D02*
X023608Y010296D01*
X023271Y010690D02*
X022394Y010690D01*
X022295Y010591D02*
X023175Y010591D01*
X023128Y010493D02*
X022299Y010493D01*
X024045Y010690D02*
X024961Y010690D01*
X025060Y010591D02*
X024141Y010591D01*
X024188Y010493D02*
X025158Y010493D01*
X025612Y010690D02*
X026097Y010690D01*
X026002Y010591D02*
X025710Y010591D01*
X025809Y010493D02*
X025961Y010493D01*
X025949Y010394D02*
X025907Y010394D01*
X025316Y010985D02*
X027266Y010985D01*
X026888Y010690D02*
X027995Y010690D01*
X027971Y010674D02*
X027920Y010623D01*
X027880Y010563D01*
X027853Y010496D01*
X027841Y010439D01*
X028332Y010439D01*
X028332Y010756D01*
X028169Y010756D01*
X028098Y010742D01*
X028031Y010714D01*
X027971Y010674D01*
X027899Y010591D02*
X026983Y010591D01*
X027024Y010493D02*
X027852Y010493D01*
X028332Y010493D02*
X028432Y010493D01*
X028432Y010591D02*
X028332Y010591D01*
X028332Y010690D02*
X028432Y010690D01*
X028432Y010197D02*
X028332Y010197D01*
X028332Y010099D02*
X028432Y010099D01*
X028784Y010099D02*
X030950Y010099D01*
X030950Y010197D02*
X028872Y010197D01*
X028988Y010000D02*
X030950Y010000D01*
X030950Y009902D02*
X029111Y009902D01*
X029210Y009803D02*
X030950Y009803D01*
X030950Y009705D02*
X029351Y009705D01*
X029449Y009606D02*
X030950Y009606D01*
X030950Y009508D02*
X029510Y009508D01*
X029510Y009409D02*
X030950Y009409D01*
X030950Y009311D02*
X029510Y009311D01*
X029480Y009212D02*
X030950Y009212D01*
X030950Y009114D02*
X029480Y009114D01*
X029480Y009015D02*
X030950Y009015D01*
X030950Y008917D02*
X029480Y008917D01*
X029480Y008818D02*
X030950Y008818D01*
X030950Y008720D02*
X029480Y008720D01*
X029480Y008621D02*
X030950Y008621D01*
X030950Y008523D02*
X029480Y008523D01*
X029555Y008424D02*
X030950Y008424D01*
X030950Y008326D02*
X029604Y008326D01*
X029640Y008227D02*
X030950Y008227D01*
X030950Y008129D02*
X029640Y008129D01*
X029631Y008030D02*
X030950Y008030D01*
X030950Y007932D02*
X029590Y007932D01*
X029522Y007833D02*
X030950Y007833D01*
X030950Y007735D02*
X029407Y007735D01*
X030950Y005863D02*
X017605Y005863D01*
X017704Y005765D02*
X030950Y005765D01*
X030950Y005666D02*
X017802Y005666D01*
X017901Y005568D02*
X030950Y005568D01*
X030950Y005469D02*
X017999Y005469D01*
X018456Y005371D02*
X019044Y005371D01*
X018894Y005272D02*
X018606Y005272D01*
X018697Y005174D02*
X018803Y005174D01*
X018763Y005075D02*
X018737Y005075D01*
X018725Y004681D02*
X018775Y004681D01*
X018825Y004583D02*
X018675Y004583D01*
X018576Y004484D02*
X018924Y004484D01*
X019116Y004386D02*
X018384Y004386D01*
X018116Y004386D02*
X017384Y004386D01*
X017576Y004484D02*
X017924Y004484D01*
X017825Y004583D02*
X017675Y004583D01*
X017725Y004681D02*
X017775Y004681D01*
X017116Y004386D02*
X016384Y004386D01*
X016576Y004484D02*
X016924Y004484D01*
X016825Y004583D02*
X016675Y004583D01*
X016725Y004681D02*
X016775Y004681D01*
X016763Y005075D02*
X016737Y005075D01*
X016697Y005174D02*
X016803Y005174D01*
X016894Y005272D02*
X016606Y005272D01*
X016456Y005371D02*
X017044Y005371D01*
X016044Y005371D02*
X015456Y005371D01*
X015606Y005272D02*
X015894Y005272D01*
X015803Y005174D02*
X015697Y005174D01*
X015737Y005075D02*
X015763Y005075D01*
X015775Y004681D02*
X015725Y004681D01*
X015675Y004583D02*
X015825Y004583D01*
X015924Y004484D02*
X015576Y004484D01*
X015384Y004386D02*
X016116Y004386D01*
X015116Y004386D02*
X013784Y004386D01*
X013976Y004484D02*
X014924Y004484D01*
X014825Y004583D02*
X014075Y004583D01*
X014125Y004681D02*
X014775Y004681D01*
X014734Y004780D02*
X014166Y004780D01*
X014170Y004878D02*
X014730Y004878D01*
X014730Y004977D02*
X014170Y004977D01*
X014137Y005075D02*
X014763Y005075D01*
X014803Y005174D02*
X014097Y005174D01*
X014006Y005272D02*
X014894Y005272D01*
X015044Y005371D02*
X013856Y005371D01*
X013444Y005371D02*
X012856Y005371D01*
X013006Y005272D02*
X013294Y005272D01*
X013203Y005174D02*
X013097Y005174D01*
X013137Y005075D02*
X013163Y005075D01*
X013175Y004681D02*
X013125Y004681D01*
X013075Y004583D02*
X013225Y004583D01*
X013324Y004484D02*
X012976Y004484D01*
X012784Y004386D02*
X013516Y004386D01*
X012516Y004386D02*
X011784Y004386D01*
X011976Y004484D02*
X012324Y004484D01*
X012225Y004583D02*
X012075Y004583D01*
X012125Y004681D02*
X012175Y004681D01*
X012163Y005075D02*
X012137Y005075D01*
X012097Y005174D02*
X012203Y005174D01*
X012294Y005272D02*
X012006Y005272D01*
X011856Y005371D02*
X012444Y005371D01*
X011444Y005371D02*
X010856Y005371D01*
X011006Y005272D02*
X011294Y005272D01*
X011203Y005174D02*
X011097Y005174D01*
X011137Y005075D02*
X011163Y005075D01*
X011175Y004681D02*
X011125Y004681D01*
X011075Y004583D02*
X011225Y004583D01*
X011324Y004484D02*
X010976Y004484D01*
X010784Y004386D02*
X011516Y004386D01*
X011682Y008720D02*
X011983Y008720D01*
X012655Y008720D02*
X013873Y008720D01*
X013746Y008818D02*
X012782Y008818D01*
X012838Y008917D02*
X013691Y008917D01*
X013665Y009015D02*
X012863Y009015D01*
X012863Y009114D02*
X013665Y009114D01*
X013702Y009212D02*
X012826Y009212D01*
X012755Y009311D02*
X013774Y009311D01*
X013824Y009409D02*
X013721Y009512D01*
X013665Y009647D01*
X013665Y009793D01*
X013721Y009928D01*
X013824Y010031D01*
X013882Y010055D01*
X013858Y010065D01*
X013798Y010105D01*
X013747Y010156D01*
X013707Y010216D01*
X013679Y010282D01*
X013668Y010339D01*
X014159Y010339D01*
X014159Y010439D01*
X013668Y010439D01*
X013679Y010496D01*
X013707Y010563D01*
X013747Y010623D01*
X013798Y010674D01*
X013858Y010714D01*
X013925Y010742D01*
X013966Y010750D01*
X013005Y010750D01*
X012820Y010565D01*
X012863Y010462D01*
X012863Y010316D01*
X012807Y010182D01*
X012704Y010079D01*
X012646Y010055D01*
X012704Y010031D01*
X012807Y009928D01*
X012863Y009793D01*
X012863Y009647D01*
X012807Y009512D01*
X012704Y009409D01*
X012803Y009508D02*
X013726Y009508D01*
X013682Y009606D02*
X012846Y009606D01*
X012863Y009705D02*
X013665Y009705D01*
X013670Y009803D02*
X012859Y009803D01*
X012818Y009902D02*
X013710Y009902D01*
X013794Y010000D02*
X012735Y010000D01*
X012724Y010099D02*
X013807Y010099D01*
X013719Y010197D02*
X012814Y010197D01*
X012854Y010296D02*
X013677Y010296D01*
X013679Y010493D02*
X012850Y010493D01*
X012847Y010591D02*
X013726Y010591D01*
X013822Y010690D02*
X012945Y010690D01*
X012863Y010394D02*
X014159Y010394D01*
X014159Y010439D02*
X014159Y010750D01*
X014259Y010750D01*
X014259Y010439D01*
X014159Y010439D01*
X014159Y010493D02*
X014259Y010493D01*
X014259Y010591D02*
X014159Y010591D01*
X014159Y010690D02*
X014259Y010690D01*
X014259Y010394D02*
X015808Y010394D01*
X015906Y010296D02*
X014741Y010296D01*
X014699Y010197D02*
X016005Y010197D01*
X016103Y010099D02*
X014611Y010099D01*
X014815Y010000D02*
X016202Y010000D01*
X016300Y009902D02*
X014938Y009902D01*
X015037Y009803D02*
X016399Y009803D01*
X016497Y009705D02*
X015178Y009705D01*
X015276Y009606D02*
X016517Y009606D01*
X016560Y009508D02*
X015336Y009508D01*
X015306Y009212D02*
X015937Y009212D01*
X015916Y009114D02*
X015306Y009114D01*
X015306Y009015D02*
X015916Y009015D01*
X015916Y008917D02*
X015306Y008917D01*
X015306Y008818D02*
X016008Y008818D01*
X016106Y008720D02*
X015306Y008720D01*
X014686Y008720D02*
X014545Y008720D01*
X014672Y008818D02*
X014686Y008818D01*
X014259Y010099D02*
X014159Y010099D01*
X014159Y010197D02*
X014259Y010197D01*
X014259Y010296D02*
X014159Y010296D01*
X014596Y010690D02*
X015512Y010690D01*
X015611Y010591D02*
X014692Y010591D01*
X014739Y010493D02*
X015709Y010493D01*
X016115Y009391D02*
X016397Y009391D01*
X016427Y009361D01*
X016658Y009361D01*
X016659Y009362D01*
X016717Y009385D01*
X016659Y009409D01*
X016708Y008720D02*
X016406Y008720D01*
X017575Y010493D02*
X018403Y010493D01*
X018450Y010591D02*
X017571Y010591D01*
X017669Y010690D02*
X018546Y010690D01*
X018883Y010690D02*
X018983Y010690D01*
X018983Y010591D02*
X018883Y010591D01*
X018883Y010493D02*
X018983Y010493D01*
X018983Y010197D02*
X018883Y010197D01*
X018883Y010099D02*
X018983Y010099D01*
X019464Y010493D02*
X020434Y010493D01*
X020335Y010591D02*
X019417Y010591D01*
X019321Y010690D02*
X020237Y010690D01*
X021131Y008720D02*
X021432Y008720D01*
X021458Y005371D02*
X022044Y005371D01*
X021894Y005272D02*
X021606Y005272D01*
X021689Y005174D02*
X021803Y005174D01*
X021763Y005075D02*
X021738Y005075D01*
X021726Y004681D02*
X021775Y004681D01*
X021825Y004583D02*
X021667Y004583D01*
X021572Y004484D02*
X021924Y004484D01*
X022116Y004386D02*
X021370Y004386D01*
X021300Y004386D02*
X021200Y004386D01*
X021130Y004386D02*
X020384Y004386D01*
X020576Y004484D02*
X020928Y004484D01*
X020833Y004583D02*
X020675Y004583D01*
X020725Y004681D02*
X020774Y004681D01*
X020762Y005075D02*
X020737Y005075D01*
X020697Y005174D02*
X020811Y005174D01*
X020894Y005272D02*
X020606Y005272D01*
X020456Y005371D02*
X021042Y005371D01*
X021200Y005371D02*
X021300Y005371D01*
X021300Y005272D02*
X021200Y005272D01*
X021200Y005174D02*
X021300Y005174D01*
X021300Y005075D02*
X021200Y005075D01*
X021200Y004977D02*
X021300Y004977D01*
X021300Y004780D02*
X021200Y004780D01*
X021200Y004681D02*
X021300Y004681D01*
X021300Y004583D02*
X021200Y004583D01*
X021200Y004484D02*
X021300Y004484D01*
X022384Y004386D02*
X030950Y004386D01*
X030950Y004484D02*
X022576Y004484D01*
X022675Y004583D02*
X030950Y004583D01*
X030950Y004681D02*
X022725Y004681D01*
X022766Y004780D02*
X030950Y004780D01*
X030950Y004878D02*
X022770Y004878D01*
X022770Y004977D02*
X030950Y004977D01*
X030950Y005075D02*
X022737Y005075D01*
X022697Y005174D02*
X030950Y005174D01*
X030950Y005272D02*
X022606Y005272D01*
X022456Y005371D02*
X030950Y005371D01*
X026157Y008720D02*
X025855Y008720D01*
X025876Y009361D02*
X025846Y009391D01*
X025564Y009391D01*
X025876Y009361D02*
X026107Y009361D01*
X026108Y009362D01*
X026165Y009385D01*
X026108Y009409D01*
X026148Y013448D02*
X025859Y013448D01*
X025564Y013435D02*
X025365Y013634D01*
X025365Y013916D01*
X025564Y014115D01*
X025846Y014115D01*
X025876Y014085D01*
X026107Y014085D01*
X026108Y014086D01*
X026165Y014110D01*
X026108Y014134D01*
X026005Y014237D01*
X025949Y014372D01*
X025949Y014427D01*
X024901Y015474D01*
X023901Y015474D01*
X023942Y015466D01*
X024009Y015439D01*
X024069Y015398D01*
X024120Y015347D01*
X024160Y015287D01*
X024187Y015221D01*
X024139Y015319D02*
X025056Y015319D01*
X024958Y015418D02*
X024040Y015418D01*
X023708Y015418D02*
X023608Y015418D01*
X023608Y015319D02*
X023708Y015319D01*
X023708Y015221D02*
X023608Y015221D01*
X023608Y014925D02*
X023708Y014925D01*
X023708Y014827D02*
X023608Y014827D01*
X024065Y014827D02*
X025549Y014827D01*
X025647Y014728D02*
X024255Y014728D01*
X024383Y014630D02*
X025746Y014630D01*
X025844Y014531D02*
X024482Y014531D01*
X024623Y014433D02*
X025943Y014433D01*
X025964Y014334D02*
X024721Y014334D01*
X024785Y014236D02*
X026006Y014236D01*
X026104Y014137D02*
X024785Y014137D01*
X024785Y014039D02*
X025488Y014039D01*
X025389Y013940D02*
X024737Y013940D01*
X024638Y013842D02*
X025365Y013842D01*
X025365Y013743D02*
X024202Y013743D01*
X024202Y013842D02*
X024252Y013842D01*
X024178Y013645D02*
X025365Y013645D01*
X025453Y013546D02*
X024125Y013546D01*
X024150Y014925D02*
X025450Y014925D01*
X025352Y015024D02*
X024191Y015024D01*
X023276Y015418D02*
X022397Y015418D01*
X021380Y014137D02*
X020061Y014137D01*
X020061Y014039D02*
X020764Y014039D01*
X020665Y013940D02*
X020013Y013940D01*
X019914Y013842D02*
X020641Y013842D01*
X020641Y013743D02*
X019477Y013743D01*
X019477Y013842D02*
X019528Y013842D01*
X019453Y013645D02*
X020641Y013645D01*
X020729Y013546D02*
X019400Y013546D01*
X019278Y013448D02*
X020827Y013448D01*
X021134Y013448D02*
X021423Y013448D01*
X021281Y014236D02*
X020061Y014236D01*
X019997Y014334D02*
X021240Y014334D01*
X021218Y014433D02*
X019898Y014433D01*
X019757Y014531D02*
X021120Y014531D01*
X021021Y014630D02*
X019659Y014630D01*
X019531Y014728D02*
X020923Y014728D01*
X020824Y014827D02*
X019341Y014827D01*
X019426Y014925D02*
X020726Y014925D01*
X020627Y015024D02*
X019466Y015024D01*
X019315Y015418D02*
X020233Y015418D01*
X020529Y015122D02*
X018983Y015122D01*
X018983Y015024D02*
X018883Y015024D01*
X018883Y015122D02*
X017587Y015122D01*
X017580Y015024D02*
X018400Y015024D01*
X018441Y014925D02*
X017540Y014925D01*
X017452Y014827D02*
X018526Y014827D01*
X018522Y014728D02*
X017455Y014728D01*
X017541Y014630D02*
X018436Y014630D01*
X018396Y014531D02*
X017582Y014531D01*
X017587Y014433D02*
X018390Y014433D01*
X018405Y014334D02*
X017572Y014334D01*
X017531Y014236D02*
X018447Y014236D01*
X018545Y014137D02*
X017432Y014137D01*
X017476Y014039D02*
X018502Y014039D01*
X018428Y013940D02*
X017549Y013940D01*
X017587Y013842D02*
X018390Y013842D01*
X018390Y013743D02*
X017587Y013743D01*
X017564Y013645D02*
X018414Y013645D01*
X018467Y013546D02*
X017510Y013546D01*
X017388Y013448D02*
X018589Y013448D01*
X018883Y014827D02*
X018983Y014827D01*
X018983Y014925D02*
X018883Y014925D01*
X018883Y015221D02*
X018983Y015221D01*
X018983Y015319D02*
X018883Y015319D01*
X018883Y015418D02*
X018983Y015418D01*
X018552Y015418D02*
X017673Y015418D01*
X016655Y014137D02*
X015336Y014137D01*
X015336Y014039D02*
X016039Y014039D01*
X015941Y013940D02*
X015288Y013940D01*
X015190Y013842D02*
X015916Y013842D01*
X015916Y013743D02*
X014753Y013743D01*
X014753Y013842D02*
X014803Y013842D01*
X014729Y013645D02*
X015916Y013645D01*
X016004Y013546D02*
X014676Y013546D01*
X014554Y013448D02*
X016103Y013448D01*
X016410Y013448D02*
X016699Y013448D01*
X016557Y014236D02*
X015336Y014236D01*
X015272Y014334D02*
X016515Y014334D01*
X016494Y014433D02*
X015174Y014433D01*
X015033Y014531D02*
X016395Y014531D01*
X016297Y014630D02*
X014935Y014630D01*
X014806Y014728D02*
X016198Y014728D01*
X016100Y014827D02*
X014617Y014827D01*
X014701Y014925D02*
X016001Y014925D01*
X015903Y015024D02*
X014742Y015024D01*
X014739Y015221D02*
X014711Y015287D01*
X014671Y015347D01*
X014591Y015418D02*
X015509Y015418D01*
X015804Y015122D02*
X014259Y015122D01*
X014259Y015064D02*
X014259Y014811D01*
X014159Y014811D01*
X014159Y015064D01*
X014259Y015064D01*
X014259Y015024D02*
X014159Y015024D01*
X014159Y015122D02*
X012863Y015122D01*
X012856Y015024D02*
X013676Y015024D01*
X013717Y014925D02*
X012815Y014925D01*
X012728Y014827D02*
X013802Y014827D01*
X013797Y014728D02*
X012731Y014728D01*
X012816Y014630D02*
X013712Y014630D01*
X013671Y014531D02*
X012857Y014531D01*
X012863Y014433D02*
X013665Y014433D01*
X013681Y014334D02*
X012848Y014334D01*
X012806Y014236D02*
X013722Y014236D01*
X013821Y014137D02*
X012708Y014137D01*
X012751Y014039D02*
X013777Y014039D01*
X013704Y013940D02*
X012825Y013940D01*
X012863Y013842D02*
X013665Y013842D01*
X013665Y013743D02*
X012863Y013743D01*
X012839Y013645D02*
X013689Y013645D01*
X013742Y013546D02*
X012786Y013546D01*
X012664Y013448D02*
X013864Y013448D01*
X014159Y014827D02*
X014259Y014827D01*
X014259Y014925D02*
X014159Y014925D01*
X014159Y015221D02*
X014259Y015221D01*
X014259Y015319D02*
X014159Y015319D01*
X014159Y015418D02*
X014259Y015418D01*
X013827Y015418D02*
X012949Y015418D01*
X011931Y014137D02*
X010612Y014137D01*
X010612Y014039D02*
X011315Y014039D01*
X011216Y013940D02*
X010564Y013940D01*
X010612Y013989D02*
X010612Y014270D01*
X010413Y014470D01*
X010370Y014470D01*
X010133Y014707D01*
X010019Y014754D01*
X009870Y014754D01*
X009869Y014755D01*
X009812Y014779D01*
X009835Y014789D01*
X009895Y014829D01*
X009947Y014880D01*
X009987Y014940D01*
X010014Y015007D01*
X010026Y015064D01*
X009535Y015064D01*
X009535Y015164D01*
X009435Y015164D01*
X009435Y015064D01*
X009535Y015064D01*
X009535Y014811D01*
X009435Y014811D01*
X009435Y015064D01*
X008944Y015064D01*
X008955Y015007D01*
X008983Y014940D01*
X009023Y014880D01*
X009074Y014829D01*
X009134Y014789D01*
X009158Y014779D01*
X009100Y014755D01*
X008997Y014652D01*
X008941Y014517D01*
X008941Y014372D01*
X008997Y014237D01*
X009100Y014134D01*
X009158Y014110D01*
X009100Y014086D01*
X008997Y013983D01*
X008941Y013848D01*
X008941Y013702D01*
X008997Y013568D01*
X009100Y013464D01*
X009235Y013409D01*
X009735Y013409D01*
X009869Y013464D01*
X009973Y013568D01*
X010028Y013702D01*
X010028Y013848D01*
X009997Y013924D01*
X010131Y013790D01*
X010413Y013790D01*
X010612Y013989D01*
X010465Y013842D02*
X011192Y013842D01*
X011192Y013743D02*
X010028Y013743D01*
X010028Y013842D02*
X010079Y013842D01*
X010005Y013645D02*
X011192Y013645D01*
X011280Y013546D02*
X009951Y013546D01*
X009829Y013448D02*
X011378Y013448D01*
X011685Y013448D02*
X011975Y013448D01*
X011832Y014236D02*
X010612Y014236D01*
X010548Y014334D02*
X011791Y014334D01*
X011769Y014433D02*
X010450Y014433D01*
X010309Y014531D02*
X011671Y014531D01*
X011572Y014630D02*
X010210Y014630D01*
X010082Y014728D02*
X011474Y014728D01*
X011375Y014827D02*
X009892Y014827D01*
X009977Y014925D02*
X011277Y014925D01*
X011178Y015024D02*
X010018Y015024D01*
X010014Y015221D02*
X009987Y015287D01*
X009947Y015347D01*
X009867Y015418D02*
X010784Y015418D01*
X011080Y015122D02*
X009535Y015122D01*
X009535Y015024D02*
X009435Y015024D01*
X009435Y015122D02*
X008139Y015122D01*
X008132Y015024D02*
X008952Y015024D01*
X008993Y014925D02*
X008091Y014925D01*
X008003Y014827D02*
X009077Y014827D01*
X009073Y014728D02*
X008007Y014728D01*
X008092Y014630D02*
X008988Y014630D01*
X008947Y014531D02*
X008133Y014531D01*
X008139Y014433D02*
X008941Y014433D01*
X008956Y014334D02*
X008123Y014334D01*
X008082Y014236D02*
X008998Y014236D01*
X009096Y014137D02*
X007983Y014137D01*
X008027Y014039D02*
X009053Y014039D01*
X008979Y013940D02*
X008100Y013940D01*
X008139Y013842D02*
X008941Y013842D01*
X008941Y013743D02*
X008139Y013743D01*
X008115Y013645D02*
X008965Y013645D01*
X009018Y013546D02*
X008062Y013546D01*
X007940Y013448D02*
X009140Y013448D01*
X009435Y014827D02*
X009535Y014827D01*
X009535Y014925D02*
X009435Y014925D01*
X009435Y015221D02*
X009535Y015221D01*
X009535Y015319D02*
X009435Y015319D01*
X009435Y015418D02*
X009535Y015418D01*
X009103Y015418D02*
X008224Y015418D01*
X007207Y014137D02*
X005888Y014137D01*
X005888Y014039D02*
X006590Y014039D01*
X006492Y013940D02*
X005839Y013940D01*
X005741Y013842D02*
X006467Y013842D01*
X006467Y013743D02*
X005304Y013743D01*
X005304Y013842D02*
X005355Y013842D01*
X005280Y013645D02*
X006467Y013645D01*
X006556Y013546D02*
X005227Y013546D01*
X005105Y013448D02*
X006654Y013448D01*
X006961Y013448D02*
X007250Y013448D01*
X007108Y014236D02*
X005888Y014236D01*
X005824Y014334D02*
X007067Y014334D01*
X007045Y014433D02*
X005725Y014433D01*
X005584Y014531D02*
X006947Y014531D01*
X006848Y014630D02*
X005486Y014630D01*
X005357Y014728D02*
X006750Y014728D01*
X006651Y014827D02*
X005168Y014827D01*
X005252Y014925D02*
X006553Y014925D01*
X006454Y015024D02*
X005293Y015024D01*
X005290Y015221D02*
X005262Y015287D01*
X005222Y015347D01*
X005142Y015418D02*
X006060Y015418D01*
X006356Y015122D02*
X004810Y015122D01*
X004810Y015024D02*
X004710Y015024D01*
X004710Y015122D02*
X003414Y015122D01*
X003407Y015024D02*
X004227Y015024D01*
X004268Y014925D02*
X003366Y014925D01*
X003279Y014827D02*
X004353Y014827D01*
X004349Y014728D02*
X003282Y014728D01*
X003368Y014630D02*
X004263Y014630D01*
X004222Y014531D02*
X003408Y014531D01*
X003414Y014433D02*
X004217Y014433D01*
X004232Y014334D02*
X003399Y014334D01*
X003357Y014236D02*
X004273Y014236D01*
X004372Y014137D02*
X003259Y014137D01*
X003302Y014039D02*
X004328Y014039D01*
X004255Y013940D02*
X003376Y013940D01*
X003414Y013842D02*
X004217Y013842D01*
X004217Y013743D02*
X003414Y013743D01*
X003390Y013645D02*
X004240Y013645D01*
X004294Y013546D02*
X003337Y013546D01*
X003215Y013448D02*
X004416Y013448D01*
X004710Y014827D02*
X004810Y014827D01*
X004810Y014925D02*
X004710Y014925D01*
X004710Y015221D02*
X004810Y015221D01*
X004810Y015319D02*
X004710Y015319D01*
X004710Y015418D02*
X004810Y015418D01*
X004378Y015418D02*
X003500Y015418D01*
X002732Y016206D02*
X001880Y016206D01*
X001880Y016304D02*
X024105Y016304D01*
X024105Y016272D02*
X024128Y016249D01*
X002775Y016249D01*
X002640Y016115D01*
X001932Y015406D01*
X001932Y014585D01*
X002067Y014451D01*
X002303Y014214D01*
X002405Y014214D01*
X002486Y014134D01*
X002543Y014110D01*
X002486Y014086D01*
X002485Y014085D01*
X002325Y014085D01*
X002245Y014165D01*
X001922Y014165D01*
X001880Y014124D01*
X001880Y018222D01*
X001942Y018160D01*
X002224Y018160D01*
X002254Y018190D01*
X002485Y018190D01*
X002486Y018189D01*
X002620Y018133D01*
X003121Y018133D01*
X003255Y018189D01*
X003358Y018292D01*
X003414Y018427D01*
X003414Y018573D01*
X003358Y018707D01*
X003255Y018810D01*
X003198Y018834D01*
X003255Y018858D01*
X003358Y018961D01*
X003414Y019096D01*
X003414Y019242D01*
X003358Y019377D01*
X003255Y019480D01*
X003198Y019504D01*
X003255Y019527D01*
X003358Y019631D01*
X003414Y019765D01*
X003414Y019911D01*
X003372Y020014D01*
X003556Y020199D01*
X004517Y020199D01*
X004476Y020191D01*
X004409Y020163D01*
X004349Y020123D01*
X004298Y020072D01*
X004258Y020012D01*
X004231Y019945D01*
X004219Y019888D01*
X004710Y019888D01*
X004710Y019788D01*
X004219Y019788D01*
X004231Y019731D01*
X004258Y019665D01*
X004298Y019605D01*
X004349Y019553D01*
X004409Y019513D01*
X004433Y019504D01*
X004375Y019480D01*
X004272Y019377D01*
X004217Y019242D01*
X004217Y019096D01*
X004272Y018961D01*
X004375Y018858D01*
X004433Y018834D01*
X004375Y018810D01*
X004272Y018707D01*
X004217Y018573D01*
X004217Y018427D01*
X004272Y018292D01*
X004375Y018189D01*
X004510Y018133D01*
X005010Y018133D01*
X005145Y018189D01*
X005248Y018292D01*
X005304Y018427D01*
X005304Y018573D01*
X005273Y018648D01*
X005407Y018514D01*
X005688Y018514D01*
X005888Y018713D01*
X005888Y018995D01*
X005688Y019194D01*
X005646Y019194D01*
X005408Y019432D01*
X005294Y019479D01*
X005146Y019479D01*
X005145Y019480D01*
X005087Y019504D01*
X005111Y019513D01*
X005171Y019553D01*
X005222Y019605D01*
X005262Y019665D01*
X005290Y019731D01*
X005301Y019788D01*
X004810Y019788D01*
X004810Y019535D01*
X004710Y019535D01*
X004710Y019788D01*
X004810Y019788D01*
X004810Y019888D01*
X004810Y020199D01*
X004710Y020199D01*
X004710Y019888D01*
X004810Y019888D01*
X005301Y019888D01*
X005290Y019945D01*
X005262Y020012D01*
X005222Y020072D01*
X005171Y020123D01*
X005111Y020163D01*
X005044Y020191D01*
X005004Y020199D01*
X006004Y020199D01*
X007051Y019151D01*
X007051Y019096D01*
X007107Y018961D01*
X007210Y018858D01*
X007268Y018834D01*
X007210Y018810D01*
X007209Y018810D01*
X006978Y018810D01*
X006948Y018840D01*
X006667Y018840D01*
X006467Y018640D01*
X006467Y018359D01*
X006667Y018160D01*
X006948Y018160D01*
X006978Y018190D01*
X007209Y018190D01*
X007210Y018189D01*
X007345Y018133D01*
X007845Y018133D01*
X007980Y018189D01*
X008083Y018292D01*
X008139Y018427D01*
X008139Y018573D01*
X008083Y018707D01*
X007980Y018810D01*
X007922Y018834D01*
X007980Y018858D01*
X008083Y018961D01*
X008139Y019096D01*
X008139Y019242D01*
X008083Y019377D01*
X007980Y019480D01*
X007922Y019504D01*
X007980Y019527D01*
X008083Y019631D01*
X008139Y019765D01*
X008139Y019911D01*
X008096Y020014D01*
X008281Y020199D01*
X009241Y020199D01*
X009201Y020191D01*
X009134Y020163D01*
X009074Y020123D01*
X009023Y020072D01*
X008983Y020012D01*
X008955Y019945D01*
X008944Y019888D01*
X009435Y019888D01*
X009435Y020199D01*
X009535Y020199D01*
X009535Y019888D01*
X010026Y019888D01*
X010014Y019945D01*
X009987Y020012D01*
X009947Y020072D01*
X009895Y020123D01*
X009835Y020163D01*
X009769Y020191D01*
X009728Y020199D01*
X010653Y020199D01*
X011776Y019142D01*
X011776Y019096D01*
X011831Y018961D01*
X011934Y018858D01*
X011992Y018834D01*
X011934Y018810D01*
X011703Y018810D01*
X011673Y018840D01*
X011391Y018840D01*
X011192Y018640D01*
X011192Y018359D01*
X011391Y018160D01*
X011673Y018160D01*
X011703Y018190D01*
X011934Y018190D01*
X011934Y018189D01*
X012069Y018133D01*
X012569Y018133D01*
X012704Y018189D01*
X012807Y018292D01*
X012863Y018427D01*
X012863Y018573D01*
X012807Y018707D01*
X012704Y018810D01*
X012646Y018834D01*
X012704Y018858D01*
X012807Y018961D01*
X012863Y019096D01*
X012863Y019242D01*
X012807Y019377D01*
X012704Y019480D01*
X012646Y019504D01*
X012704Y019527D01*
X012807Y019631D01*
X012863Y019765D01*
X012863Y019911D01*
X012820Y020014D01*
X013005Y020199D01*
X013966Y020199D01*
X013925Y020191D01*
X013858Y020163D01*
X013798Y020123D01*
X013747Y020072D01*
X013707Y020012D01*
X013679Y019945D01*
X013668Y019888D01*
X014159Y019888D01*
X014159Y019788D01*
X014259Y019788D01*
X014259Y019535D01*
X014159Y019535D01*
X014159Y019788D01*
X013668Y019788D01*
X013679Y019731D01*
X013707Y019665D01*
X013747Y019605D01*
X013798Y019553D01*
X013858Y019513D01*
X013882Y019504D01*
X013824Y019480D01*
X013721Y019377D01*
X013665Y019242D01*
X013665Y019096D01*
X013721Y018961D01*
X013824Y018858D01*
X013882Y018834D01*
X013824Y018810D01*
X013721Y018707D01*
X013665Y018573D01*
X013665Y018427D01*
X013721Y018292D01*
X013824Y018189D01*
X013959Y018133D01*
X014459Y018133D01*
X014594Y018189D01*
X014697Y018292D01*
X014753Y018427D01*
X014753Y018573D01*
X014721Y018648D01*
X014856Y018514D01*
X015137Y018514D01*
X015336Y018713D01*
X015336Y018995D01*
X015137Y019194D01*
X015095Y019194D01*
X014857Y019432D01*
X014743Y019479D01*
X014595Y019479D01*
X014594Y019480D01*
X014536Y019504D01*
X014560Y019513D01*
X014620Y019553D01*
X014671Y019605D01*
X014711Y019665D01*
X014739Y019731D01*
X014750Y019788D01*
X014259Y019788D01*
X014259Y019888D01*
X014750Y019888D01*
X014739Y019945D01*
X014711Y020012D01*
X014671Y020072D01*
X014620Y020123D01*
X014560Y020163D01*
X014493Y020191D01*
X014452Y020199D01*
X015452Y020199D01*
X016500Y019151D01*
X016500Y019096D01*
X016556Y018961D01*
X016659Y018858D01*
X016717Y018834D01*
X016659Y018810D01*
X016658Y018810D01*
X016427Y018810D01*
X016397Y018840D01*
X016115Y018840D01*
X015916Y018640D01*
X015916Y018359D01*
X016115Y018160D01*
X016397Y018160D01*
X016427Y018190D01*
X016658Y018190D01*
X016659Y018189D01*
X016794Y018133D01*
X017294Y018133D01*
X017428Y018189D01*
X017532Y018292D01*
X017587Y018427D01*
X017587Y018573D01*
X017532Y018707D01*
X017428Y018810D01*
X017371Y018834D01*
X017428Y018858D01*
X017532Y018961D01*
X017587Y019096D01*
X017587Y019242D01*
X017532Y019377D01*
X017428Y019480D01*
X017371Y019504D01*
X017428Y019527D01*
X017532Y019631D01*
X017587Y019765D01*
X017587Y019911D01*
X017545Y020014D01*
X017730Y020199D01*
X018690Y020199D01*
X018649Y020191D01*
X018583Y020163D01*
X018523Y020123D01*
X018472Y020072D01*
X018431Y020012D01*
X018404Y019945D01*
X018393Y019888D01*
X018883Y019888D01*
X018883Y019788D01*
X018393Y019788D01*
X018404Y019731D01*
X018431Y019665D01*
X018472Y019605D01*
X018523Y019553D01*
X018583Y019513D01*
X018606Y019504D01*
X018549Y019480D01*
X018446Y019377D01*
X018390Y019242D01*
X018390Y019096D01*
X018446Y018961D01*
X018549Y018858D01*
X018606Y018834D01*
X018549Y018810D01*
X018446Y018707D01*
X018390Y018573D01*
X018390Y018427D01*
X018446Y018292D01*
X018549Y018189D01*
X018683Y018133D01*
X019184Y018133D01*
X019318Y018189D01*
X019421Y018292D01*
X019477Y018427D01*
X019477Y018573D01*
X019446Y018648D01*
X019580Y018514D01*
X019862Y018514D01*
X020061Y018713D01*
X020061Y018995D01*
X019862Y019194D01*
X019819Y019194D01*
X019582Y019432D01*
X019468Y019479D01*
X019319Y019479D01*
X019318Y019480D01*
X019261Y019504D01*
X019284Y019513D01*
X019344Y019553D01*
X019395Y019605D01*
X019435Y019665D01*
X019463Y019731D01*
X019474Y019788D01*
X018983Y019788D01*
X018983Y019535D01*
X018883Y019535D01*
X018883Y019788D01*
X018983Y019788D01*
X018983Y019888D01*
X018983Y020199D01*
X018883Y020199D01*
X018883Y019888D01*
X018983Y019888D01*
X019474Y019888D01*
X019463Y019945D01*
X019435Y020012D01*
X019395Y020072D01*
X019344Y020123D01*
X019284Y020163D01*
X019218Y020191D01*
X019177Y020199D01*
X020177Y020199D01*
X021224Y019151D01*
X021224Y019096D01*
X021280Y018961D01*
X021383Y018858D01*
X021441Y018834D01*
X021383Y018810D01*
X021383Y018810D01*
X021152Y018810D01*
X021122Y018840D01*
X020840Y018840D01*
X020641Y018640D01*
X020641Y018359D01*
X020840Y018160D01*
X021122Y018160D01*
X021152Y018190D01*
X021383Y018190D01*
X021383Y018189D01*
X021518Y018133D01*
X022018Y018133D01*
X022153Y018189D01*
X022256Y018292D01*
X022312Y018427D01*
X022312Y018573D01*
X022256Y018707D01*
X022153Y018810D01*
X022095Y018834D01*
X022153Y018858D01*
X022256Y018961D01*
X022312Y019096D01*
X022312Y019242D01*
X022256Y019377D01*
X022153Y019480D01*
X022095Y019504D01*
X022153Y019527D01*
X022256Y019631D01*
X022312Y019765D01*
X022312Y019911D01*
X022269Y020014D01*
X022454Y020199D01*
X023415Y020199D01*
X023374Y020191D01*
X023307Y020163D01*
X023247Y020123D01*
X023196Y020072D01*
X023156Y020012D01*
X023128Y019945D01*
X023117Y019888D01*
X023608Y019888D01*
X023608Y019788D01*
X023708Y019788D01*
X023708Y019888D01*
X024199Y019888D01*
X024187Y019945D01*
X024160Y020012D01*
X024120Y020072D01*
X024069Y020123D01*
X024009Y020163D01*
X023942Y020191D01*
X023901Y020199D01*
X024901Y020199D01*
X025949Y019151D01*
X025949Y019096D01*
X026005Y018961D01*
X026108Y018858D01*
X026165Y018834D01*
X026108Y018810D01*
X026005Y018707D01*
X025949Y018573D01*
X025949Y018427D01*
X025958Y018404D01*
X025530Y017975D01*
X025442Y017888D01*
X025395Y017774D01*
X025395Y016584D01*
X025365Y016554D01*
X025365Y016272D01*
X025388Y016249D01*
X024762Y016249D01*
X024785Y016272D01*
X024785Y016554D01*
X024755Y016584D01*
X024755Y018916D01*
X024708Y019030D01*
X024621Y019117D01*
X024306Y019432D01*
X024192Y019479D01*
X024043Y019479D01*
X024043Y019480D01*
X023985Y019504D01*
X024009Y019513D01*
X024069Y019553D01*
X024120Y019605D01*
X024160Y019665D01*
X024187Y019731D01*
X024199Y019788D01*
X023708Y019788D01*
X023708Y019535D01*
X023608Y019535D01*
X023608Y019788D01*
X023117Y019788D01*
X023128Y019731D01*
X023156Y019665D01*
X023196Y019605D01*
X023247Y019553D01*
X023307Y019513D01*
X023331Y019504D01*
X023273Y019480D01*
X023170Y019377D01*
X023114Y019242D01*
X023114Y019096D01*
X023170Y018961D01*
X023273Y018858D01*
X023331Y018834D01*
X023273Y018810D01*
X023170Y018707D01*
X023114Y018573D01*
X023114Y018427D01*
X023170Y018292D01*
X023273Y018189D01*
X023408Y018133D01*
X023908Y018133D01*
X024043Y018189D01*
X024135Y018281D01*
X024135Y016584D01*
X024105Y016554D01*
X024105Y016272D01*
X024105Y016403D02*
X001880Y016403D01*
X001880Y016501D02*
X024105Y016501D01*
X024135Y016600D02*
X001880Y016600D01*
X001880Y016698D02*
X024135Y016698D01*
X024135Y016797D02*
X001880Y016797D01*
X001880Y016895D02*
X024135Y016895D01*
X024135Y016994D02*
X001880Y016994D01*
X001880Y017092D02*
X024135Y017092D01*
X024135Y017191D02*
X001880Y017191D01*
X001880Y017289D02*
X024135Y017289D01*
X024135Y017388D02*
X001880Y017388D01*
X001880Y017486D02*
X024135Y017486D01*
X024135Y017585D02*
X001880Y017585D01*
X001880Y017683D02*
X024135Y017683D01*
X024135Y017782D02*
X001880Y017782D01*
X001880Y017880D02*
X024135Y017880D01*
X024135Y017979D02*
X001880Y017979D01*
X001880Y018077D02*
X024135Y018077D01*
X024135Y018176D02*
X024011Y018176D01*
X024128Y018274D02*
X024135Y018274D01*
X024755Y018274D02*
X025829Y018274D01*
X025730Y018176D02*
X024755Y018176D01*
X024755Y018077D02*
X025632Y018077D01*
X025533Y017979D02*
X024755Y017979D01*
X024755Y017880D02*
X025439Y017880D01*
X025398Y017782D02*
X024755Y017782D01*
X024755Y017683D02*
X025395Y017683D01*
X025395Y017585D02*
X024755Y017585D01*
X024755Y017486D02*
X025395Y017486D01*
X025395Y017388D02*
X024755Y017388D01*
X024755Y017289D02*
X025395Y017289D01*
X025395Y017191D02*
X024755Y017191D01*
X024755Y017092D02*
X025395Y017092D01*
X025395Y016994D02*
X024755Y016994D01*
X024755Y016895D02*
X025395Y016895D01*
X025395Y016797D02*
X024755Y016797D01*
X024755Y016698D02*
X025395Y016698D01*
X025395Y016600D02*
X024755Y016600D01*
X024785Y016501D02*
X025365Y016501D01*
X025365Y016403D02*
X024785Y016403D01*
X024785Y016304D02*
X025365Y016304D01*
X025313Y015713D02*
X028995Y015713D01*
X029029Y015679D02*
X029311Y015679D01*
X029510Y015878D01*
X029510Y016160D01*
X029480Y016190D01*
X029480Y018916D01*
X029432Y019030D01*
X029345Y019117D01*
X029118Y019344D01*
X029118Y019344D01*
X029030Y019432D01*
X028916Y019479D01*
X028768Y019479D01*
X028767Y019480D01*
X028709Y019504D01*
X028733Y019513D01*
X028793Y019553D01*
X028844Y019605D01*
X028884Y019665D01*
X028912Y019731D01*
X028923Y019788D01*
X028432Y019788D01*
X028432Y019535D01*
X028332Y019535D01*
X028332Y019788D01*
X027841Y019788D01*
X027853Y019731D01*
X027880Y019665D01*
X027920Y019605D01*
X027971Y019553D01*
X028031Y019513D01*
X028055Y019504D01*
X027997Y019480D01*
X027894Y019377D01*
X027839Y019242D01*
X027839Y019096D01*
X027894Y018961D01*
X027997Y018858D01*
X028055Y018834D01*
X027997Y018810D01*
X027894Y018707D01*
X027839Y018573D01*
X027839Y018427D01*
X027894Y018292D01*
X027997Y018189D01*
X028132Y018133D01*
X028632Y018133D01*
X028767Y018189D01*
X028860Y018281D01*
X028860Y016190D01*
X028830Y016160D01*
X028830Y015878D01*
X029029Y015679D01*
X028896Y015812D02*
X026059Y015812D01*
X026158Y015910D02*
X028830Y015910D01*
X028830Y016009D02*
X026256Y016009D01*
X026355Y016107D02*
X028830Y016107D01*
X028860Y016206D02*
X026453Y016206D01*
X026552Y016304D02*
X028860Y016304D01*
X028860Y016403D02*
X026650Y016403D01*
X026749Y016501D02*
X028860Y016501D01*
X028860Y016600D02*
X026847Y016600D01*
X026946Y016698D02*
X028860Y016698D01*
X028860Y016797D02*
X027044Y016797D01*
X027143Y016895D02*
X028860Y016895D01*
X028860Y016994D02*
X027241Y016994D01*
X027340Y017092D02*
X028860Y017092D01*
X028860Y017191D02*
X027431Y017191D01*
X027431Y017289D02*
X028860Y017289D01*
X028860Y017388D02*
X027431Y017388D01*
X027431Y017486D02*
X028860Y017486D01*
X028860Y017585D02*
X027431Y017585D01*
X027431Y017683D02*
X028860Y017683D01*
X028860Y017782D02*
X027431Y017782D01*
X027431Y017880D02*
X028860Y017880D01*
X028860Y017979D02*
X027431Y017979D01*
X027431Y018077D02*
X028860Y018077D01*
X028860Y018176D02*
X028736Y018176D01*
X028853Y018274D02*
X028860Y018274D01*
X029480Y018274D02*
X030950Y018274D01*
X030950Y018176D02*
X029480Y018176D01*
X029480Y018077D02*
X030950Y018077D01*
X030950Y017979D02*
X029480Y017979D01*
X029480Y017880D02*
X030950Y017880D01*
X030950Y017782D02*
X029480Y017782D01*
X029480Y017683D02*
X030950Y017683D01*
X030950Y017585D02*
X029480Y017585D01*
X029480Y017486D02*
X030950Y017486D01*
X030950Y017388D02*
X029480Y017388D01*
X029480Y017289D02*
X030950Y017289D01*
X030950Y017191D02*
X029480Y017191D01*
X029480Y017092D02*
X030950Y017092D01*
X030950Y016994D02*
X029480Y016994D01*
X029480Y016895D02*
X030950Y016895D01*
X030950Y016797D02*
X029480Y016797D01*
X029480Y016698D02*
X030950Y016698D01*
X030950Y016600D02*
X029480Y016600D01*
X029480Y016501D02*
X030950Y016501D01*
X030950Y016403D02*
X029480Y016403D01*
X029480Y016304D02*
X030950Y016304D01*
X030950Y016206D02*
X029480Y016206D01*
X029510Y016107D02*
X030950Y016107D01*
X030950Y016009D02*
X029510Y016009D01*
X029510Y015910D02*
X030950Y015910D01*
X030950Y015812D02*
X029443Y015812D01*
X029345Y015713D02*
X030950Y015713D01*
X030950Y015615D02*
X025411Y015615D01*
X025510Y015516D02*
X030950Y015516D01*
X030950Y015418D02*
X028764Y015418D01*
X028793Y015398D02*
X028733Y015439D01*
X028666Y015466D01*
X028596Y015480D01*
X028432Y015480D01*
X028432Y015164D01*
X028332Y015164D01*
X028332Y015064D01*
X027841Y015064D01*
X027853Y015007D01*
X027880Y014940D01*
X027920Y014880D01*
X027971Y014829D01*
X028031Y014789D01*
X028055Y014779D01*
X027997Y014755D01*
X027894Y014652D01*
X027839Y014517D01*
X027839Y014372D01*
X027894Y014237D01*
X027997Y014134D01*
X028055Y014110D01*
X027997Y014086D01*
X027894Y013983D01*
X027839Y013848D01*
X027839Y013702D01*
X027894Y013568D01*
X027997Y013464D01*
X028132Y013409D01*
X028632Y013409D01*
X028767Y013464D01*
X028870Y013568D01*
X028926Y013702D01*
X028926Y013848D01*
X028895Y013924D01*
X029029Y013790D01*
X029311Y013790D01*
X029510Y013989D01*
X029510Y014270D01*
X029311Y014470D01*
X029268Y014470D01*
X029030Y014707D01*
X028916Y014754D01*
X028768Y014754D01*
X028767Y014755D01*
X028709Y014779D01*
X028733Y014789D01*
X028793Y014829D01*
X028844Y014880D01*
X028884Y014940D01*
X028912Y015007D01*
X028923Y015064D01*
X028432Y015064D01*
X028432Y014811D01*
X028332Y014811D01*
X028332Y015064D01*
X028432Y015064D01*
X028432Y015164D01*
X028923Y015164D01*
X028912Y015221D01*
X030950Y015221D01*
X030950Y015319D02*
X028863Y015319D01*
X028844Y015347D02*
X028793Y015398D01*
X028844Y015347D02*
X028884Y015287D01*
X028912Y015221D01*
X028915Y015024D02*
X030950Y015024D01*
X030950Y015122D02*
X028432Y015122D01*
X028432Y015024D02*
X028332Y015024D01*
X028332Y015122D02*
X027321Y015122D01*
X027420Y015024D02*
X027849Y015024D01*
X027890Y014925D02*
X027674Y014925D01*
X027772Y014827D02*
X027975Y014827D01*
X027971Y014728D02*
X027777Y014728D01*
X027777Y014630D02*
X027885Y014630D01*
X027844Y014531D02*
X027769Y014531D01*
X027839Y014433D02*
X027670Y014433D01*
X027854Y014334D02*
X027021Y014334D01*
X027036Y014433D02*
X027204Y014433D01*
X027106Y014531D02*
X027030Y014531D01*
X026990Y014630D02*
X027097Y014630D01*
X027065Y014728D02*
X026904Y014728D01*
X026901Y014827D02*
X026966Y014827D01*
X027223Y015221D02*
X027853Y015221D01*
X027841Y015164D01*
X028332Y015164D01*
X028332Y015480D01*
X028169Y015480D01*
X028098Y015466D01*
X028031Y015439D01*
X027971Y015398D01*
X027920Y015347D01*
X027880Y015287D01*
X027853Y015221D01*
X027902Y015319D02*
X027124Y015319D01*
X026884Y015418D02*
X028000Y015418D01*
X028332Y015418D02*
X028432Y015418D01*
X028432Y015319D02*
X028332Y015319D01*
X028332Y015221D02*
X028432Y015221D01*
X028432Y014925D02*
X028332Y014925D01*
X028332Y014827D02*
X028432Y014827D01*
X028790Y014827D02*
X030950Y014827D01*
X030950Y014925D02*
X028874Y014925D01*
X028980Y014728D02*
X030950Y014728D01*
X030950Y014630D02*
X029108Y014630D01*
X029206Y014531D02*
X030950Y014531D01*
X030950Y014433D02*
X029347Y014433D01*
X029446Y014334D02*
X030950Y014334D01*
X030950Y014236D02*
X029510Y014236D01*
X029510Y014137D02*
X030950Y014137D01*
X030950Y014039D02*
X029510Y014039D01*
X029461Y013940D02*
X030950Y013940D01*
X030950Y013842D02*
X029363Y013842D01*
X028977Y013842D02*
X028926Y013842D01*
X028926Y013743D02*
X030950Y013743D01*
X030950Y013645D02*
X028902Y013645D01*
X028849Y013546D02*
X030950Y013546D01*
X030950Y013448D02*
X028727Y013448D01*
X028038Y013448D02*
X026837Y013448D01*
X026959Y013546D02*
X027916Y013546D01*
X027862Y013645D02*
X027012Y013645D01*
X027036Y013743D02*
X027839Y013743D01*
X027839Y013842D02*
X027036Y013842D01*
X026998Y013940D02*
X027877Y013940D01*
X027950Y014039D02*
X026924Y014039D01*
X026881Y014137D02*
X027994Y014137D01*
X027895Y014236D02*
X026979Y014236D01*
X026004Y015319D02*
X025707Y015319D01*
X025805Y015221D02*
X025963Y015221D01*
X025949Y015122D02*
X025904Y015122D01*
X026101Y015418D02*
X025608Y015418D01*
X025927Y018373D02*
X024755Y018373D01*
X024755Y018471D02*
X025949Y018471D01*
X025949Y018570D02*
X024755Y018570D01*
X024755Y018668D02*
X025989Y018668D01*
X026064Y018767D02*
X024755Y018767D01*
X024755Y018865D02*
X026101Y018865D01*
X026004Y018964D02*
X024735Y018964D01*
X024675Y019062D02*
X025963Y019062D01*
X025939Y019161D02*
X024577Y019161D01*
X024478Y019259D02*
X025841Y019259D01*
X025742Y019358D02*
X024380Y019358D01*
X024246Y019456D02*
X025644Y019456D01*
X025545Y019555D02*
X024070Y019555D01*
X024152Y019653D02*
X025447Y019653D01*
X025348Y019752D02*
X024192Y019752D01*
X024186Y019949D02*
X025151Y019949D01*
X025053Y020047D02*
X024136Y020047D01*
X024034Y020146D02*
X024954Y020146D01*
X025250Y019850D02*
X023708Y019850D01*
X023708Y019888D02*
X023708Y020199D01*
X023608Y020199D01*
X023608Y019888D01*
X023708Y019888D01*
X023708Y019949D02*
X023608Y019949D01*
X023608Y020047D02*
X023708Y020047D01*
X023708Y020146D02*
X023608Y020146D01*
X023608Y019850D02*
X022312Y019850D01*
X022306Y019752D02*
X023124Y019752D01*
X023163Y019653D02*
X022265Y019653D01*
X022180Y019555D02*
X023246Y019555D01*
X023250Y019456D02*
X022176Y019456D01*
X022264Y019358D02*
X023162Y019358D01*
X023121Y019259D02*
X022305Y019259D01*
X022312Y019161D02*
X023114Y019161D01*
X023128Y019062D02*
X022298Y019062D01*
X022257Y018964D02*
X023169Y018964D01*
X023266Y018865D02*
X022160Y018865D01*
X022196Y018767D02*
X023230Y018767D01*
X023154Y018668D02*
X022272Y018668D01*
X022312Y018570D02*
X023114Y018570D01*
X023114Y018471D02*
X022312Y018471D01*
X022290Y018373D02*
X023136Y018373D01*
X023188Y018274D02*
X022238Y018274D01*
X022121Y018176D02*
X023305Y018176D01*
X023608Y019555D02*
X023708Y019555D01*
X023708Y019653D02*
X023608Y019653D01*
X023608Y019752D02*
X023708Y019752D01*
X023281Y020146D02*
X022401Y020146D01*
X022303Y020047D02*
X023180Y020047D01*
X023130Y019949D02*
X022296Y019949D01*
X021948Y020343D02*
X020683Y020343D01*
X020585Y020441D02*
X022046Y020441D01*
X022145Y020540D02*
X020486Y020540D01*
X020388Y020638D02*
X022243Y020638D01*
X021849Y020244D02*
X020782Y020244D01*
X020880Y020146D02*
X021380Y020146D01*
X021282Y020047D02*
X020979Y020047D01*
X021077Y019949D02*
X021240Y019949D01*
X021224Y019850D02*
X021176Y019850D01*
X020821Y019555D02*
X019346Y019555D01*
X019428Y019653D02*
X020722Y019653D01*
X020624Y019752D02*
X019467Y019752D01*
X019462Y019949D02*
X020427Y019949D01*
X020525Y019850D02*
X018983Y019850D01*
X018983Y019752D02*
X018883Y019752D01*
X018883Y019850D02*
X017587Y019850D01*
X017582Y019752D02*
X018400Y019752D01*
X018439Y019653D02*
X017541Y019653D01*
X017456Y019555D02*
X018521Y019555D01*
X018525Y019456D02*
X017452Y019456D01*
X017539Y019358D02*
X018438Y019358D01*
X018397Y019259D02*
X017580Y019259D01*
X017587Y019161D02*
X018390Y019161D01*
X018404Y019062D02*
X017573Y019062D01*
X017533Y018964D02*
X018444Y018964D01*
X018541Y018865D02*
X017436Y018865D01*
X017472Y018767D02*
X018505Y018767D01*
X018429Y018668D02*
X017548Y018668D01*
X017587Y018570D02*
X018390Y018570D01*
X018390Y018471D02*
X017587Y018471D01*
X017565Y018373D02*
X018412Y018373D01*
X018463Y018274D02*
X017514Y018274D01*
X017397Y018176D02*
X018580Y018176D01*
X019287Y018176D02*
X020824Y018176D01*
X020725Y018274D02*
X019404Y018274D01*
X019455Y018373D02*
X020641Y018373D01*
X020641Y018471D02*
X019477Y018471D01*
X019477Y018570D02*
X019524Y018570D01*
X019918Y018570D02*
X020641Y018570D01*
X020669Y018668D02*
X020016Y018668D01*
X020061Y018767D02*
X020767Y018767D01*
X021279Y018964D02*
X020061Y018964D01*
X020061Y018865D02*
X021376Y018865D01*
X021238Y019062D02*
X019993Y019062D01*
X019895Y019161D02*
X021215Y019161D01*
X021116Y019259D02*
X019754Y019259D01*
X019655Y019358D02*
X021018Y019358D01*
X020919Y019456D02*
X019522Y019456D01*
X018983Y019555D02*
X018883Y019555D01*
X018883Y019653D02*
X018983Y019653D01*
X018983Y019949D02*
X018883Y019949D01*
X018883Y020047D02*
X018983Y020047D01*
X018983Y020146D02*
X018883Y020146D01*
X018557Y020146D02*
X017677Y020146D01*
X017578Y020047D02*
X018455Y020047D01*
X018405Y019949D02*
X017572Y019949D01*
X017223Y020343D02*
X015959Y020343D01*
X016057Y020244D02*
X017125Y020244D01*
X017322Y020441D02*
X015860Y020441D01*
X015762Y020540D02*
X017420Y020540D01*
X017519Y020638D02*
X015663Y020638D01*
X015505Y020146D02*
X014586Y020146D01*
X014687Y020047D02*
X015604Y020047D01*
X015702Y019949D02*
X014737Y019949D01*
X014743Y019752D02*
X015899Y019752D01*
X015801Y019850D02*
X014259Y019850D01*
X014259Y019888D02*
X014259Y020199D01*
X014159Y020199D01*
X014159Y019888D01*
X014259Y019888D01*
X014259Y019949D02*
X014159Y019949D01*
X014159Y020047D02*
X014259Y020047D01*
X014259Y020146D02*
X014159Y020146D01*
X014159Y019850D02*
X012863Y019850D01*
X012857Y019752D02*
X013675Y019752D01*
X013715Y019653D02*
X012817Y019653D01*
X012731Y019555D02*
X013797Y019555D01*
X013801Y019456D02*
X012727Y019456D01*
X012815Y019358D02*
X013713Y019358D01*
X013673Y019259D02*
X012856Y019259D01*
X012863Y019161D02*
X013665Y019161D01*
X013679Y019062D02*
X012849Y019062D01*
X012808Y018964D02*
X013720Y018964D01*
X013817Y018865D02*
X012711Y018865D01*
X012748Y018767D02*
X013781Y018767D01*
X013705Y018668D02*
X012823Y018668D01*
X012863Y018570D02*
X013665Y018570D01*
X013665Y018471D02*
X012863Y018471D01*
X012841Y018373D02*
X013688Y018373D01*
X013739Y018274D02*
X012790Y018274D01*
X012673Y018176D02*
X013856Y018176D01*
X014562Y018176D02*
X016099Y018176D01*
X016001Y018274D02*
X014679Y018274D01*
X014730Y018373D02*
X015916Y018373D01*
X015916Y018471D02*
X014753Y018471D01*
X014753Y018570D02*
X014800Y018570D01*
X015193Y018570D02*
X015916Y018570D01*
X015944Y018668D02*
X015292Y018668D01*
X015336Y018767D02*
X016043Y018767D01*
X016555Y018964D02*
X015336Y018964D01*
X015336Y018865D02*
X016652Y018865D01*
X016514Y019062D02*
X015269Y019062D01*
X015170Y019161D02*
X016490Y019161D01*
X016392Y019259D02*
X015029Y019259D01*
X014931Y019358D02*
X016293Y019358D01*
X016195Y019456D02*
X014798Y019456D01*
X014621Y019555D02*
X016096Y019555D01*
X015998Y019653D02*
X014704Y019653D01*
X014259Y019653D02*
X014159Y019653D01*
X014159Y019555D02*
X014259Y019555D01*
X014259Y019752D02*
X014159Y019752D01*
X013833Y020146D02*
X012952Y020146D01*
X012854Y020047D02*
X013731Y020047D01*
X013681Y019949D02*
X012847Y019949D01*
X012597Y020441D02*
X011067Y020441D01*
X011171Y020343D02*
X012499Y020343D01*
X012400Y020244D02*
X011276Y020244D01*
X011381Y020146D02*
X011931Y020146D01*
X011833Y020047D02*
X011485Y020047D01*
X011590Y019949D02*
X011791Y019949D01*
X011776Y019850D02*
X011695Y019850D01*
X011337Y019555D02*
X009897Y019555D01*
X009895Y019553D02*
X009947Y019605D01*
X009987Y019665D01*
X010014Y019731D01*
X010026Y019788D01*
X009535Y019788D01*
X009535Y019888D01*
X009435Y019888D01*
X009435Y019788D01*
X009535Y019788D01*
X009535Y019535D01*
X009435Y019535D01*
X009435Y019788D01*
X008944Y019788D01*
X008955Y019731D01*
X008983Y019665D01*
X009023Y019605D01*
X009074Y019553D01*
X009134Y019513D01*
X009158Y019504D01*
X009100Y019480D01*
X008997Y019377D01*
X008941Y019242D01*
X008941Y019096D01*
X008997Y018961D01*
X009100Y018858D01*
X009158Y018834D01*
X009100Y018810D01*
X008997Y018707D01*
X008941Y018573D01*
X008941Y018427D01*
X008997Y018292D01*
X009100Y018189D01*
X009235Y018133D01*
X009735Y018133D01*
X009869Y018189D01*
X009973Y018292D01*
X010028Y018427D01*
X010028Y018573D01*
X009997Y018648D01*
X010131Y018514D01*
X010413Y018514D01*
X010612Y018713D01*
X010612Y018995D01*
X010413Y019194D01*
X010370Y019194D01*
X010133Y019432D01*
X010019Y019479D01*
X009870Y019479D01*
X009869Y019480D01*
X009812Y019504D01*
X009835Y019513D01*
X009895Y019553D01*
X009979Y019653D02*
X011233Y019653D01*
X011128Y019752D02*
X010018Y019752D01*
X010013Y019949D02*
X010919Y019949D01*
X011023Y019850D02*
X009535Y019850D01*
X009535Y019752D02*
X009435Y019752D01*
X009435Y019850D02*
X008139Y019850D01*
X008133Y019752D02*
X008951Y019752D01*
X008990Y019653D02*
X008092Y019653D01*
X008007Y019555D02*
X009072Y019555D01*
X009077Y019456D02*
X008003Y019456D01*
X008091Y019358D02*
X008989Y019358D01*
X008948Y019259D02*
X008131Y019259D01*
X008139Y019161D02*
X008941Y019161D01*
X008955Y019062D02*
X008125Y019062D01*
X008084Y018964D02*
X008996Y018964D01*
X009093Y018865D02*
X007987Y018865D01*
X008023Y018767D02*
X009056Y018767D01*
X008981Y018668D02*
X008099Y018668D01*
X008139Y018570D02*
X008941Y018570D01*
X008941Y018471D02*
X008139Y018471D01*
X008116Y018373D02*
X008963Y018373D01*
X009014Y018274D02*
X008065Y018274D01*
X007948Y018176D02*
X009131Y018176D01*
X009838Y018176D02*
X011375Y018176D01*
X011276Y018274D02*
X009955Y018274D01*
X010006Y018373D02*
X011192Y018373D01*
X011192Y018471D02*
X010028Y018471D01*
X010028Y018570D02*
X010075Y018570D01*
X010469Y018570D02*
X011192Y018570D01*
X011220Y018668D02*
X010567Y018668D01*
X010612Y018767D02*
X011318Y018767D01*
X011830Y018964D02*
X010612Y018964D01*
X010612Y018865D02*
X011927Y018865D01*
X011934Y018810D02*
X011934Y018810D01*
X011790Y019062D02*
X010544Y019062D01*
X010446Y019161D02*
X011756Y019161D01*
X011651Y019259D02*
X010305Y019259D01*
X010207Y019358D02*
X011547Y019358D01*
X011442Y019456D02*
X010073Y019456D01*
X009535Y019555D02*
X009435Y019555D01*
X009435Y019653D02*
X009535Y019653D01*
X009535Y019949D02*
X009435Y019949D01*
X009435Y020047D02*
X009535Y020047D01*
X009535Y020146D02*
X009435Y020146D01*
X009108Y020146D02*
X008228Y020146D01*
X008129Y020047D02*
X009006Y020047D01*
X008957Y019949D02*
X008123Y019949D01*
X007774Y020343D02*
X006510Y020343D01*
X006411Y020441D02*
X007873Y020441D01*
X007971Y020540D02*
X006313Y020540D01*
X006214Y020638D02*
X008070Y020638D01*
X007676Y020244D02*
X006608Y020244D01*
X006707Y020146D02*
X007207Y020146D01*
X007109Y020047D02*
X006805Y020047D01*
X006904Y019949D02*
X007067Y019949D01*
X007051Y019850D02*
X007002Y019850D01*
X006647Y019555D02*
X005172Y019555D01*
X005255Y019653D02*
X006549Y019653D01*
X006450Y019752D02*
X005294Y019752D01*
X005288Y019949D02*
X006253Y019949D01*
X006155Y020047D02*
X005238Y020047D01*
X005137Y020146D02*
X006056Y020146D01*
X006352Y019850D02*
X004810Y019850D01*
X004810Y019752D02*
X004710Y019752D01*
X004710Y019850D02*
X003414Y019850D01*
X003409Y019752D02*
X004227Y019752D01*
X004266Y019653D02*
X003368Y019653D01*
X003283Y019555D02*
X004348Y019555D01*
X004352Y019456D02*
X003279Y019456D01*
X003366Y019358D02*
X004265Y019358D01*
X004224Y019259D02*
X003407Y019259D01*
X003414Y019161D02*
X004217Y019161D01*
X004230Y019062D02*
X003400Y019062D01*
X003359Y018964D02*
X004271Y018964D01*
X004368Y018865D02*
X003262Y018865D01*
X003299Y018767D02*
X004332Y018767D01*
X004256Y018668D02*
X003374Y018668D01*
X003414Y018570D02*
X004217Y018570D01*
X004217Y018471D02*
X003414Y018471D01*
X003392Y018373D02*
X004239Y018373D01*
X004290Y018274D02*
X003341Y018274D01*
X003224Y018176D02*
X004407Y018176D01*
X005114Y018176D02*
X006650Y018176D01*
X006552Y018274D02*
X005230Y018274D01*
X005282Y018373D02*
X006467Y018373D01*
X006467Y018471D02*
X005304Y018471D01*
X005304Y018570D02*
X005351Y018570D01*
X005744Y018570D02*
X006467Y018570D01*
X006495Y018668D02*
X005843Y018668D01*
X005888Y018767D02*
X006594Y018767D01*
X007106Y018964D02*
X005888Y018964D01*
X005888Y018865D02*
X007203Y018865D01*
X007065Y019062D02*
X005820Y019062D01*
X005722Y019161D02*
X007041Y019161D01*
X006943Y019259D02*
X005581Y019259D01*
X005482Y019358D02*
X006844Y019358D01*
X006746Y019456D02*
X005349Y019456D01*
X004810Y019555D02*
X004710Y019555D01*
X004710Y019653D02*
X004810Y019653D01*
X004810Y019949D02*
X004710Y019949D01*
X004710Y020047D02*
X004810Y020047D01*
X004810Y020146D02*
X004710Y020146D01*
X004384Y020146D02*
X003503Y020146D01*
X003405Y020047D02*
X004282Y020047D01*
X004232Y019949D02*
X003399Y019949D01*
X003050Y020343D02*
X002675Y020343D01*
X002773Y020441D02*
X003148Y020441D01*
X003247Y020540D02*
X002872Y020540D01*
X002970Y020638D02*
X003345Y020638D01*
X003167Y020835D02*
X030950Y020835D01*
X030950Y020737D02*
X003069Y020737D01*
X003266Y020934D02*
X030950Y020934D01*
X030950Y021032D02*
X003364Y021032D01*
X003463Y021131D02*
X030950Y021131D01*
X030950Y021229D02*
X021129Y021229D01*
X021166Y021245D02*
X021298Y021377D01*
X021370Y021550D01*
X021370Y021737D01*
X021298Y021910D01*
X021166Y022042D01*
X020993Y022113D01*
X018095Y022113D01*
X017120Y023088D01*
X017120Y023669D01*
X017150Y023742D01*
X017209Y023599D01*
X017355Y023452D01*
X017547Y023373D01*
X017753Y023373D01*
X017945Y023452D01*
X018091Y023599D01*
X018150Y023742D01*
X018209Y023599D01*
X018355Y023452D01*
X018547Y023373D01*
X018753Y023373D01*
X018945Y023452D01*
X019091Y023599D01*
X019170Y023790D01*
X019170Y023997D01*
X019091Y024188D01*
X018945Y024334D01*
X018753Y024413D01*
X018547Y024413D01*
X018355Y024334D01*
X018209Y024188D01*
X018150Y024045D01*
X018091Y024188D01*
X017945Y024334D01*
X017753Y024413D01*
X017547Y024413D01*
X017355Y024334D01*
X017209Y024188D01*
X017150Y024045D01*
X017091Y024188D01*
X016945Y024334D01*
X016753Y024413D01*
X016547Y024413D01*
X016355Y024334D01*
X016209Y024188D01*
X016149Y024042D01*
X016132Y024093D01*
X016095Y024166D01*
X016047Y024232D01*
X015989Y024290D01*
X015923Y024338D01*
X015850Y024375D01*
X015772Y024401D01*
X015700Y024412D01*
X015700Y023943D01*
X015600Y023943D01*
X015600Y023843D01*
X015700Y023843D01*
X015700Y023375D01*
X015772Y023386D01*
X015850Y023411D01*
X015923Y023449D01*
X015989Y023497D01*
X016047Y023555D01*
X016095Y023621D01*
X016132Y023694D01*
X016149Y023745D01*
X016180Y023669D01*
X016180Y022800D01*
X016252Y022627D01*
X017502Y021377D01*
X017634Y021245D01*
X017807Y021173D01*
X020993Y021173D01*
X021166Y021245D01*
X021249Y021328D02*
X030950Y021328D01*
X030950Y021426D02*
X021319Y021426D01*
X021360Y021525D02*
X030950Y021525D01*
X030950Y021623D02*
X021370Y021623D01*
X021370Y021722D02*
X030950Y021722D01*
X030950Y021820D02*
X021335Y021820D01*
X021289Y021919D02*
X030950Y021919D01*
X030950Y022017D02*
X021191Y022017D01*
X020230Y020146D02*
X019310Y020146D01*
X019412Y020047D02*
X020328Y020047D01*
X021138Y018176D02*
X021415Y018176D01*
X018092Y022116D02*
X030950Y022116D01*
X030950Y022214D02*
X017994Y022214D01*
X017895Y022313D02*
X030950Y022313D01*
X030950Y022411D02*
X017797Y022411D01*
X017698Y022510D02*
X030950Y022510D01*
X030950Y022608D02*
X017600Y022608D01*
X017501Y022707D02*
X030950Y022707D01*
X030950Y022805D02*
X017403Y022805D01*
X017304Y022904D02*
X030950Y022904D01*
X030950Y023002D02*
X017206Y023002D01*
X017120Y023101D02*
X030950Y023101D01*
X030950Y023199D02*
X017120Y023199D01*
X017120Y023298D02*
X030950Y023298D01*
X030950Y023396D02*
X018809Y023396D01*
X018987Y023495D02*
X030950Y023495D01*
X030950Y023593D02*
X019085Y023593D01*
X019129Y023692D02*
X030950Y023692D01*
X030950Y023790D02*
X019170Y023790D01*
X019170Y023889D02*
X030950Y023889D01*
X030950Y023987D02*
X019170Y023987D01*
X019133Y024086D02*
X030950Y024086D01*
X030950Y024184D02*
X019092Y024184D01*
X018996Y024283D02*
X030950Y024283D01*
X030950Y024381D02*
X018831Y024381D01*
X018469Y024381D02*
X017831Y024381D01*
X017996Y024283D02*
X018304Y024283D01*
X018208Y024184D02*
X018092Y024184D01*
X018133Y024086D02*
X018167Y024086D01*
X018171Y023692D02*
X018129Y023692D01*
X018085Y023593D02*
X018215Y023593D01*
X018313Y023495D02*
X017987Y023495D01*
X017809Y023396D02*
X018491Y023396D01*
X017491Y023396D02*
X017120Y023396D01*
X017120Y023495D02*
X017313Y023495D01*
X017215Y023593D02*
X017120Y023593D01*
X017129Y023692D02*
X017171Y023692D01*
X017167Y024086D02*
X017133Y024086D01*
X017092Y024184D02*
X017208Y024184D01*
X017304Y024283D02*
X016996Y024283D01*
X016831Y024381D02*
X017469Y024381D01*
X016469Y024381D02*
X015831Y024381D01*
X015700Y024381D02*
X015600Y024381D01*
X015600Y024412D02*
X015528Y024401D01*
X015450Y024375D01*
X015377Y024338D01*
X015311Y024290D01*
X015253Y024232D01*
X015205Y024166D01*
X015168Y024093D01*
X015150Y024037D01*
X015132Y024093D01*
X015095Y024166D01*
X015047Y024232D01*
X014989Y024290D01*
X014923Y024338D01*
X014850Y024375D01*
X014772Y024401D01*
X014700Y024412D01*
X014700Y023943D01*
X015169Y023943D01*
X015600Y023943D01*
X015600Y024412D01*
X015600Y024283D02*
X015700Y024283D01*
X015700Y024184D02*
X015600Y024184D01*
X015600Y024086D02*
X015700Y024086D01*
X015700Y023987D02*
X015600Y023987D01*
X015600Y023889D02*
X014700Y023889D01*
X014700Y023843D02*
X014700Y023943D01*
X014600Y023943D01*
X014600Y024412D01*
X014528Y024401D01*
X014450Y024375D01*
X014377Y024338D01*
X014311Y024290D01*
X014253Y024232D01*
X014205Y024166D01*
X014168Y024093D01*
X014151Y024042D01*
X014091Y024188D01*
X013945Y024334D01*
X013753Y024413D01*
X013547Y024413D01*
X013355Y024334D01*
X013209Y024188D01*
X013130Y023997D01*
X013130Y023790D01*
X013209Y023599D01*
X013355Y023452D01*
X013547Y023373D01*
X013753Y023373D01*
X013945Y023452D01*
X014091Y023599D01*
X014151Y023745D01*
X014168Y023694D01*
X014205Y023621D01*
X014253Y023555D01*
X014311Y023497D01*
X014377Y023449D01*
X014450Y023411D01*
X014528Y023386D01*
X014600Y023375D01*
X014600Y023843D01*
X014700Y023843D01*
X014700Y023375D01*
X014772Y023386D01*
X014850Y023411D01*
X014923Y023449D01*
X014989Y023497D01*
X015047Y023555D01*
X015095Y023621D01*
X015132Y023694D01*
X015150Y023749D01*
X015168Y023694D01*
X015205Y023621D01*
X015253Y023555D01*
X015311Y023497D01*
X015377Y023449D01*
X015450Y023411D01*
X015528Y023386D01*
X015600Y023375D01*
X015600Y023843D01*
X014700Y023843D01*
X014700Y023790D02*
X014600Y023790D01*
X014600Y023692D02*
X014700Y023692D01*
X014700Y023593D02*
X014600Y023593D01*
X014600Y023495D02*
X014700Y023495D01*
X014700Y023396D02*
X014600Y023396D01*
X014497Y023396D02*
X013809Y023396D01*
X013987Y023495D02*
X014314Y023495D01*
X014225Y023593D02*
X014085Y023593D01*
X014129Y023692D02*
X014169Y023692D01*
X014166Y024086D02*
X014133Y024086D01*
X014092Y024184D02*
X014219Y024184D01*
X014304Y024283D02*
X013996Y024283D01*
X013831Y024381D02*
X014469Y024381D01*
X014600Y024381D02*
X014700Y024381D01*
X014700Y024283D02*
X014600Y024283D01*
X014600Y024184D02*
X014700Y024184D01*
X014700Y024086D02*
X014600Y024086D01*
X014600Y023987D02*
X014700Y023987D01*
X014996Y024283D02*
X015304Y024283D01*
X015219Y024184D02*
X015081Y024184D01*
X015134Y024086D02*
X015166Y024086D01*
X015169Y023692D02*
X015131Y023692D01*
X015075Y023593D02*
X015225Y023593D01*
X015314Y023495D02*
X014986Y023495D01*
X014803Y023396D02*
X015497Y023396D01*
X015600Y023396D02*
X015700Y023396D01*
X015700Y023495D02*
X015600Y023495D01*
X015600Y023593D02*
X015700Y023593D01*
X015700Y023692D02*
X015600Y023692D01*
X015600Y023790D02*
X015700Y023790D01*
X015803Y023396D02*
X016180Y023396D01*
X016180Y023298D02*
X004441Y023298D01*
X004509Y023199D02*
X016180Y023199D01*
X016180Y023101D02*
X004509Y023101D01*
X004509Y023002D02*
X016180Y023002D01*
X016180Y022904D02*
X004439Y022904D01*
X004439Y022805D02*
X016180Y022805D01*
X016219Y022707D02*
X004439Y022707D01*
X004439Y022608D02*
X016270Y022608D01*
X016369Y022510D02*
X004439Y022510D01*
X004439Y022411D02*
X016467Y022411D01*
X016566Y022313D02*
X004439Y022313D01*
X004439Y022214D02*
X016664Y022214D01*
X016763Y022116D02*
X004439Y022116D01*
X004349Y022017D02*
X016861Y022017D01*
X016960Y021919D02*
X004251Y021919D01*
X004152Y021820D02*
X017058Y021820D01*
X017157Y021722D02*
X004054Y021722D01*
X003955Y021623D02*
X017255Y021623D01*
X017354Y021525D02*
X003857Y021525D01*
X003758Y021426D02*
X017452Y021426D01*
X017551Y021328D02*
X003660Y021328D01*
X003561Y021229D02*
X017671Y021229D01*
X016656Y020146D02*
X016156Y020146D01*
X016254Y020047D02*
X016557Y020047D01*
X016516Y019949D02*
X016353Y019949D01*
X016451Y019850D02*
X016500Y019850D01*
X016413Y018176D02*
X016690Y018176D01*
X012794Y020638D02*
X010860Y020638D01*
X010962Y020540D02*
X012696Y020540D01*
X010814Y020047D02*
X009963Y020047D01*
X009861Y020146D02*
X010709Y020146D01*
X011689Y018176D02*
X011966Y018176D01*
X007242Y018176D02*
X006965Y018176D01*
X003502Y021820D02*
X001380Y021820D01*
X001380Y021722D02*
X003403Y021722D01*
X003305Y021623D02*
X001380Y021623D01*
X001380Y021525D02*
X003206Y021525D01*
X003108Y021426D02*
X001380Y021426D01*
X001380Y021328D02*
X003009Y021328D01*
X002911Y021229D02*
X001380Y021229D01*
X001380Y021131D02*
X002812Y021131D01*
X002714Y021032D02*
X001380Y021032D01*
X001380Y020934D02*
X002615Y020934D01*
X002517Y020835D02*
X001380Y020835D01*
X001380Y020737D02*
X002418Y020737D01*
X002320Y020638D02*
X001380Y020638D01*
X001380Y020540D02*
X002221Y020540D01*
X002123Y020441D02*
X001380Y020441D01*
X001380Y020343D02*
X002024Y020343D01*
X001926Y020244D02*
X001380Y020244D01*
X001380Y020146D02*
X001827Y020146D01*
X001729Y020047D02*
X001380Y020047D01*
X001380Y019949D02*
X001630Y019949D01*
X001532Y019850D02*
X001380Y019850D01*
X001380Y019752D02*
X001433Y019752D01*
X001380Y019699D02*
X001380Y022798D01*
X003524Y024942D01*
X003615Y024850D01*
X003615Y024568D01*
X003582Y024575D01*
X003559Y024575D01*
X003537Y024575D01*
X003493Y024566D01*
X003451Y024549D01*
X003414Y024524D01*
X003382Y024492D01*
X003357Y024454D01*
X003339Y024413D01*
X003331Y024369D01*
X003331Y024189D01*
X003559Y024189D01*
X003559Y024575D01*
X003559Y024189D01*
X003559Y024189D01*
X003559Y024189D01*
X003331Y024189D01*
X003331Y024009D01*
X003339Y023964D01*
X003357Y023923D01*
X003375Y023895D01*
X003331Y023850D01*
X003331Y023346D01*
X003465Y023212D01*
X003615Y023212D01*
X003615Y022936D01*
X003515Y022836D01*
X003515Y022588D01*
X003691Y022412D01*
X003940Y022412D01*
X003979Y022452D01*
X003979Y022298D01*
X001380Y019699D01*
X001690Y019358D02*
X001789Y019358D01*
X001788Y019456D02*
X002462Y019456D01*
X002458Y019555D02*
X001887Y019555D01*
X001985Y019653D02*
X002373Y019653D01*
X002332Y019752D02*
X002084Y019752D01*
X002182Y019850D02*
X002327Y019850D01*
X002342Y019949D02*
X002281Y019949D01*
X002379Y020047D02*
X002384Y020047D01*
X002478Y020146D02*
X002483Y020146D01*
X002576Y020244D02*
X002951Y020244D01*
X001691Y019259D02*
X001630Y019259D01*
X000670Y019259D02*
X000350Y019259D01*
X000350Y019161D02*
X000670Y019161D01*
X000670Y019062D02*
X000350Y019062D01*
X000350Y018964D02*
X000670Y018964D01*
X000670Y018865D02*
X000350Y018865D01*
X000350Y018767D02*
X000670Y018767D01*
X000670Y018668D02*
X000350Y018668D01*
X000350Y018570D02*
X000670Y018570D01*
X000670Y018471D02*
X000350Y018471D01*
X000350Y018373D02*
X000670Y018373D01*
X000670Y018274D02*
X000350Y018274D01*
X000350Y018176D02*
X000670Y018176D01*
X000670Y018077D02*
X000350Y018077D01*
X000350Y017979D02*
X000670Y017979D01*
X000670Y017880D02*
X000350Y017880D01*
X000350Y017782D02*
X000670Y017782D01*
X000670Y017683D02*
X000350Y017683D01*
X000350Y017585D02*
X000670Y017585D01*
X000670Y017486D02*
X000350Y017486D01*
X000350Y017388D02*
X000670Y017388D01*
X000670Y017289D02*
X000350Y017289D01*
X000350Y017191D02*
X000670Y017191D01*
X000670Y017092D02*
X000350Y017092D01*
X000350Y016994D02*
X000670Y016994D01*
X000670Y016895D02*
X000350Y016895D01*
X000350Y016797D02*
X000670Y016797D01*
X000670Y016698D02*
X000350Y016698D01*
X000350Y016600D02*
X000670Y016600D01*
X000670Y016501D02*
X000350Y016501D01*
X000350Y016403D02*
X000670Y016403D01*
X000670Y016304D02*
X000350Y016304D01*
X000350Y016206D02*
X000670Y016206D01*
X000670Y016107D02*
X000350Y016107D01*
X000350Y016009D02*
X000670Y016009D01*
X000670Y015910D02*
X000350Y015910D01*
X000350Y015812D02*
X000670Y015812D01*
X000670Y015713D02*
X000350Y015713D01*
X000350Y015615D02*
X000670Y015615D01*
X000670Y015516D02*
X000350Y015516D01*
X000350Y015418D02*
X000670Y015418D01*
X000670Y015319D02*
X000350Y015319D01*
X000350Y015221D02*
X000670Y015221D01*
X000670Y015122D02*
X000350Y015122D01*
X000350Y015024D02*
X000670Y015024D01*
X000670Y014925D02*
X000350Y014925D01*
X000350Y014827D02*
X000670Y014827D01*
X000670Y014728D02*
X000350Y014728D01*
X000350Y014630D02*
X000670Y014630D01*
X000670Y014531D02*
X000350Y014531D01*
X000350Y014433D02*
X000670Y014433D01*
X000670Y014334D02*
X000350Y014334D01*
X000350Y014236D02*
X000670Y014236D01*
X000670Y014137D02*
X000350Y014137D01*
X000350Y014039D02*
X000670Y014039D01*
X000670Y013940D02*
X000350Y013940D01*
X000350Y013842D02*
X000670Y013842D01*
X000670Y013743D02*
X000350Y013743D01*
X000350Y013645D02*
X000670Y013645D01*
X000670Y013546D02*
X000350Y013546D01*
X000350Y013448D02*
X000670Y013448D01*
X000670Y013349D02*
X000350Y013349D01*
X000350Y013251D02*
X000670Y013251D01*
X000670Y013152D02*
X000350Y013152D01*
X000350Y013054D02*
X000670Y013054D01*
X000670Y012955D02*
X000350Y012955D01*
X000350Y012857D02*
X000670Y012857D01*
X000670Y012758D02*
X000350Y012758D01*
X000350Y012660D02*
X000670Y012660D01*
X000670Y012561D02*
X000350Y012561D01*
X000350Y012463D02*
X000670Y012463D01*
X000670Y012364D02*
X000350Y012364D01*
X000350Y012266D02*
X000670Y012266D01*
X000670Y012167D02*
X000350Y012167D01*
X000350Y012069D02*
X000670Y012069D01*
X000670Y011970D02*
X000350Y011970D01*
X000350Y011872D02*
X000670Y011872D01*
X000670Y011773D02*
X000350Y011773D01*
X000350Y011675D02*
X000670Y011675D01*
X000670Y011576D02*
X000350Y011576D01*
X000350Y011478D02*
X000670Y011478D01*
X000670Y011379D02*
X000350Y011379D01*
X000350Y011281D02*
X000670Y011281D01*
X000670Y011182D02*
X000350Y011182D01*
X000350Y011084D02*
X000670Y011084D01*
X000670Y010985D02*
X000350Y010985D01*
X000350Y010887D02*
X000670Y010887D01*
X000670Y010788D02*
X000350Y010788D01*
X000350Y010690D02*
X000670Y010690D01*
X000670Y010591D02*
X000350Y010591D01*
X000350Y010493D02*
X000670Y010493D01*
X000670Y010394D02*
X000350Y010394D01*
X000350Y010296D02*
X000670Y010296D01*
X000670Y010197D02*
X000350Y010197D01*
X000350Y010099D02*
X000670Y010099D01*
X000670Y010000D02*
X000350Y010000D01*
X000350Y009902D02*
X000670Y009902D01*
X000670Y009803D02*
X000350Y009803D01*
X000350Y009705D02*
X000670Y009705D01*
X000670Y009606D02*
X000350Y009606D01*
X000350Y009508D02*
X000670Y009508D01*
X000670Y009409D02*
X000350Y009409D01*
X000350Y009311D02*
X000670Y009311D01*
X000670Y009212D02*
X000350Y009212D01*
X000350Y009114D02*
X000670Y009114D01*
X000670Y009015D02*
X000350Y009015D01*
X000350Y008917D02*
X000670Y008917D01*
X000670Y008818D02*
X000350Y008818D01*
X000350Y008720D02*
X000670Y008720D01*
X000670Y008621D02*
X000350Y008621D01*
X000350Y008523D02*
X000670Y008523D01*
X000670Y008424D02*
X000350Y008424D01*
X000350Y008326D02*
X000670Y008326D01*
X000670Y008227D02*
X000350Y008227D01*
X000350Y008129D02*
X000670Y008129D01*
X000670Y008030D02*
X000350Y008030D01*
X000350Y007932D02*
X000670Y007932D01*
X000670Y007833D02*
X000350Y007833D01*
X000350Y007735D02*
X000670Y007735D01*
X000670Y007636D02*
X000350Y007636D01*
X000350Y007538D02*
X000680Y007538D01*
X000779Y007439D02*
X000350Y007439D01*
X000350Y007341D02*
X000877Y007341D01*
X000976Y007242D02*
X000350Y007242D01*
X000350Y007144D02*
X001074Y007144D01*
X001173Y007045D02*
X000350Y007045D01*
X000350Y006947D02*
X001271Y006947D01*
X001370Y006848D02*
X000350Y006848D01*
X000350Y006750D02*
X001468Y006750D01*
X001567Y006651D02*
X000350Y006651D01*
X000350Y006553D02*
X001665Y006553D01*
X001764Y006454D02*
X000350Y006454D01*
X000350Y006356D02*
X001862Y006356D01*
X001961Y006257D02*
X000350Y006257D01*
X000350Y006159D02*
X002059Y006159D01*
X002158Y006060D02*
X000350Y006060D01*
X000350Y005962D02*
X002256Y005962D01*
X002355Y005863D02*
X000350Y005863D01*
X000350Y005765D02*
X002453Y005765D01*
X002552Y005666D02*
X000350Y005666D01*
X000350Y005568D02*
X002650Y005568D01*
X002749Y005469D02*
X000350Y005469D01*
X000350Y005371D02*
X006444Y005371D01*
X006294Y005272D02*
X000350Y005272D01*
X000350Y005174D02*
X006203Y005174D01*
X006163Y005075D02*
X000350Y005075D01*
X000350Y004977D02*
X006130Y004977D01*
X006130Y004878D02*
X000350Y004878D01*
X000350Y004780D02*
X006134Y004780D01*
X006175Y004681D02*
X000350Y004681D01*
X000350Y004583D02*
X006225Y004583D01*
X006324Y004484D02*
X000350Y004484D01*
X003206Y008720D02*
X004424Y008720D01*
X004297Y008818D02*
X003334Y008818D01*
X003389Y008917D02*
X004242Y008917D01*
X004217Y009015D02*
X003414Y009015D01*
X003414Y009114D02*
X004217Y009114D01*
X004253Y009212D02*
X003377Y009212D01*
X003306Y009311D02*
X004325Y009311D01*
X004375Y009409D02*
X004272Y009512D01*
X004217Y009647D01*
X004217Y009793D01*
X004272Y009928D01*
X004375Y010031D01*
X004433Y010055D01*
X004409Y010065D01*
X004349Y010105D01*
X004298Y010156D01*
X004258Y010216D01*
X004231Y010282D01*
X004219Y010339D01*
X004710Y010339D01*
X004710Y010439D01*
X004219Y010439D01*
X004231Y010496D01*
X004258Y010563D01*
X004298Y010623D01*
X004349Y010674D01*
X004409Y010714D01*
X004476Y010742D01*
X004517Y010750D01*
X003556Y010750D01*
X003372Y010565D01*
X003414Y010462D01*
X003414Y010316D01*
X003358Y010182D01*
X003255Y010079D01*
X003198Y010055D01*
X003255Y010031D01*
X003358Y009928D01*
X003414Y009793D01*
X003414Y009647D01*
X003358Y009512D01*
X003255Y009409D01*
X003354Y009508D02*
X004277Y009508D01*
X004233Y009606D02*
X003397Y009606D01*
X003414Y009705D02*
X004217Y009705D01*
X004221Y009803D02*
X003410Y009803D01*
X003369Y009902D02*
X004262Y009902D01*
X004345Y010000D02*
X003286Y010000D01*
X003275Y010099D02*
X004358Y010099D01*
X004271Y010197D02*
X003365Y010197D01*
X003406Y010296D02*
X004228Y010296D01*
X004230Y010493D02*
X003402Y010493D01*
X003398Y010591D02*
X004277Y010591D01*
X004373Y010690D02*
X003496Y010690D01*
X003414Y010394D02*
X004710Y010394D01*
X004710Y010439D02*
X004710Y010750D01*
X004810Y010750D01*
X004810Y010439D01*
X004710Y010439D01*
X004710Y010493D02*
X004810Y010493D01*
X004810Y010591D02*
X004710Y010591D01*
X004710Y010690D02*
X004810Y010690D01*
X004810Y010394D02*
X006359Y010394D01*
X006458Y010296D02*
X005293Y010296D01*
X005250Y010197D02*
X006556Y010197D01*
X006655Y010099D02*
X005162Y010099D01*
X005366Y010000D02*
X006753Y010000D01*
X006852Y009902D02*
X005489Y009902D01*
X005588Y009803D02*
X006950Y009803D01*
X007049Y009705D02*
X005729Y009705D01*
X005827Y009606D02*
X007068Y009606D01*
X007112Y009508D02*
X005888Y009508D01*
X005858Y009212D02*
X006488Y009212D01*
X006467Y009114D02*
X005858Y009114D01*
X005858Y009015D02*
X006467Y009015D01*
X006467Y008917D02*
X005858Y008917D01*
X005858Y008818D02*
X006559Y008818D01*
X006658Y008720D02*
X005858Y008720D01*
X005238Y008720D02*
X005096Y008720D01*
X005223Y008818D02*
X005238Y008818D01*
X004810Y010099D02*
X004710Y010099D01*
X004710Y010197D02*
X004810Y010197D01*
X004810Y010296D02*
X004710Y010296D01*
X005147Y010690D02*
X006064Y010690D01*
X006162Y010591D02*
X005243Y010591D01*
X005291Y010493D02*
X006261Y010493D01*
X006667Y009391D02*
X006948Y009391D01*
X006978Y009361D01*
X007209Y009361D01*
X007210Y009362D01*
X007268Y009385D01*
X007210Y009409D01*
X007259Y008720D02*
X006957Y008720D01*
X008126Y010493D02*
X008954Y010493D01*
X009002Y010591D02*
X008122Y010591D01*
X008221Y010690D02*
X009097Y010690D01*
X009435Y010296D02*
X009535Y010296D01*
X009535Y010197D02*
X009435Y010197D01*
X009435Y010099D02*
X009535Y010099D01*
X010015Y010493D02*
X010985Y010493D01*
X010887Y010591D02*
X009968Y010591D01*
X009872Y010690D02*
X010788Y010690D01*
X002543Y009385D02*
X002486Y009362D01*
X002485Y009361D01*
X002486Y009409D02*
X002543Y009385D01*
X001880Y011675D02*
X030950Y011675D01*
X030950Y011773D02*
X001880Y011773D01*
X001880Y011872D02*
X030950Y011872D01*
X030950Y011970D02*
X001880Y011970D01*
X001880Y012069D02*
X030950Y012069D01*
X030950Y012167D02*
X001880Y012167D01*
X001880Y012266D02*
X030950Y012266D01*
X030950Y012364D02*
X001880Y012364D01*
X001880Y012463D02*
X030950Y012463D01*
X030950Y012561D02*
X001880Y012561D01*
X001880Y012660D02*
X030950Y012660D01*
X030950Y012758D02*
X001880Y012758D01*
X001880Y012857D02*
X030950Y012857D01*
X030950Y012955D02*
X001880Y012955D01*
X001880Y013054D02*
X030950Y013054D01*
X030950Y013152D02*
X001880Y013152D01*
X001880Y013251D02*
X030950Y013251D01*
X030950Y013349D02*
X001880Y013349D01*
X002307Y013448D02*
X002526Y013448D01*
X002482Y014137D02*
X002272Y014137D01*
X002281Y014236D02*
X001880Y014236D01*
X001880Y014334D02*
X002183Y014334D01*
X002084Y014433D02*
X001880Y014433D01*
X001880Y014531D02*
X001986Y014531D01*
X001932Y014630D02*
X001880Y014630D01*
X001880Y014728D02*
X001932Y014728D01*
X001932Y014827D02*
X001880Y014827D01*
X001880Y014925D02*
X001932Y014925D01*
X001932Y015024D02*
X001880Y015024D01*
X001880Y015122D02*
X001932Y015122D01*
X001932Y015221D02*
X001880Y015221D01*
X001880Y015319D02*
X001932Y015319D01*
X001944Y015418D02*
X001880Y015418D01*
X001880Y015516D02*
X002042Y015516D01*
X002141Y015615D02*
X001880Y015615D01*
X001880Y015713D02*
X002239Y015713D01*
X002338Y015812D02*
X001880Y015812D01*
X001880Y015910D02*
X002436Y015910D01*
X002535Y016009D02*
X001880Y016009D01*
X001880Y016107D02*
X002633Y016107D01*
X001894Y014137D02*
X001880Y014137D01*
X001880Y018176D02*
X001926Y018176D01*
X002240Y018176D02*
X002517Y018176D01*
X000670Y019358D02*
X000350Y019358D01*
X000350Y019456D02*
X000670Y019456D01*
X000670Y019555D02*
X000350Y019555D01*
X000350Y019653D02*
X000670Y019653D01*
X000670Y019752D02*
X000350Y019752D01*
X000350Y019850D02*
X000670Y019850D01*
X000670Y019949D02*
X000350Y019949D01*
X000350Y020047D02*
X000670Y020047D01*
X000670Y020146D02*
X000350Y020146D01*
X000350Y020244D02*
X000670Y020244D01*
X000670Y020343D02*
X000350Y020343D01*
X000350Y020441D02*
X000670Y020441D01*
X000670Y020540D02*
X000350Y020540D01*
X000350Y020638D02*
X000670Y020638D01*
X000670Y020737D02*
X000350Y020737D01*
X000350Y020835D02*
X000670Y020835D01*
X000670Y020934D02*
X000350Y020934D01*
X000350Y021032D02*
X000670Y021032D01*
X000670Y021131D02*
X000350Y021131D01*
X000350Y021229D02*
X000670Y021229D01*
X000670Y021328D02*
X000350Y021328D01*
X000350Y021426D02*
X000670Y021426D01*
X000670Y021525D02*
X000350Y021525D01*
X000350Y021623D02*
X000670Y021623D01*
X000670Y021722D02*
X000350Y021722D01*
X000350Y021820D02*
X000670Y021820D01*
X000670Y021919D02*
X000350Y021919D01*
X000350Y022017D02*
X000670Y022017D01*
X000670Y022116D02*
X000350Y022116D01*
X000350Y022214D02*
X000670Y022214D01*
X000670Y022313D02*
X000350Y022313D01*
X000350Y022411D02*
X000670Y022411D01*
X000670Y022510D02*
X000350Y022510D01*
X000350Y022608D02*
X000670Y022608D01*
X000670Y022707D02*
X000350Y022707D01*
X000350Y022805D02*
X000670Y022805D01*
X000670Y022904D02*
X000350Y022904D01*
X000350Y023002D02*
X000670Y023002D01*
X000670Y023101D02*
X000350Y023101D01*
X000350Y023199D02*
X000670Y023199D01*
X000729Y023298D02*
X000350Y023298D01*
X000350Y023396D02*
X000828Y023396D01*
X000926Y023495D02*
X000350Y023495D01*
X000350Y023593D02*
X001025Y023593D01*
X001123Y023692D02*
X000350Y023692D01*
X000350Y023790D02*
X001222Y023790D01*
X001320Y023889D02*
X000350Y023889D01*
X000350Y023987D02*
X001419Y023987D01*
X001517Y024086D02*
X000350Y024086D01*
X000350Y024184D02*
X001616Y024184D01*
X001714Y024283D02*
X000350Y024283D01*
X000350Y024381D02*
X001813Y024381D01*
X001911Y024480D02*
X000350Y024480D01*
X000350Y024578D02*
X002010Y024578D01*
X002108Y024677D02*
X000350Y024677D01*
X000350Y024775D02*
X002207Y024775D01*
X002305Y024874D02*
X000350Y024874D01*
X000350Y024972D02*
X002404Y024972D01*
X002502Y025071D02*
X000350Y025071D01*
X000350Y025169D02*
X002601Y025169D01*
X002699Y025268D02*
X000350Y025268D01*
X000350Y025366D02*
X002798Y025366D01*
X002896Y025465D02*
X000350Y025465D01*
X000350Y025563D02*
X002995Y025563D01*
X003093Y025662D02*
X000350Y025662D01*
X000350Y025760D02*
X003192Y025760D01*
X003290Y025859D02*
X000350Y025859D01*
X000350Y025957D02*
X008011Y025957D01*
X007927Y026041D02*
X008420Y025548D01*
X008420Y024361D01*
X008355Y024334D01*
X008209Y024188D01*
X008150Y024045D01*
X008091Y024188D01*
X007945Y024334D01*
X007753Y024413D01*
X007547Y024413D01*
X007355Y024334D01*
X007209Y024188D01*
X007150Y024045D01*
X007091Y024188D01*
X006945Y024334D01*
X006753Y024413D01*
X006547Y024413D01*
X006355Y024334D01*
X006209Y024188D01*
X006130Y023997D01*
X006130Y023790D01*
X006209Y023599D01*
X006355Y023452D01*
X006547Y023373D01*
X006753Y023373D01*
X006945Y023452D01*
X007091Y023599D01*
X007150Y023742D01*
X007209Y023599D01*
X007355Y023452D01*
X007547Y023373D01*
X007753Y023373D01*
X007945Y023452D01*
X008091Y023599D01*
X008150Y023742D01*
X008209Y023599D01*
X008355Y023452D01*
X008547Y023373D01*
X008753Y023373D01*
X008945Y023452D01*
X009091Y023599D01*
X009150Y023742D01*
X009209Y023599D01*
X009355Y023452D01*
X009547Y023373D01*
X009753Y023373D01*
X009945Y023452D01*
X010091Y023599D01*
X010150Y023742D01*
X010209Y023599D01*
X010355Y023452D01*
X010547Y023373D01*
X010753Y023373D01*
X010945Y023452D01*
X011091Y023599D01*
X011150Y023742D01*
X011209Y023599D01*
X011355Y023452D01*
X011547Y023373D01*
X011753Y023373D01*
X011945Y023452D01*
X012091Y023599D01*
X012170Y023790D01*
X012170Y023997D01*
X012091Y024188D01*
X011945Y024334D01*
X011924Y024342D01*
X012245Y024663D01*
X021995Y024663D01*
X023373Y026041D01*
X029165Y026041D01*
X029253Y026128D01*
X029253Y032158D01*
X029165Y032246D01*
X023135Y032246D01*
X023047Y032158D01*
X023047Y026366D01*
X021805Y025123D01*
X012055Y025123D01*
X011420Y024489D01*
X011420Y024361D01*
X011355Y024334D01*
X011209Y024188D01*
X011150Y024045D01*
X011091Y024188D01*
X010945Y024334D01*
X010880Y024361D01*
X010880Y024548D01*
X011745Y025413D01*
X015555Y025413D01*
X015745Y025413D01*
X016373Y026041D01*
X022165Y026041D01*
X022253Y026128D01*
X022253Y032158D01*
X022165Y032246D01*
X016135Y032246D01*
X016047Y032158D01*
X016047Y026366D01*
X015555Y025873D01*
X011555Y025873D01*
X010555Y024873D01*
X010420Y024739D01*
X010420Y024361D01*
X010355Y024334D01*
X010209Y024188D01*
X010150Y024045D01*
X010091Y024188D01*
X009945Y024334D01*
X009880Y024361D01*
X009880Y026041D01*
X015165Y026041D01*
X015253Y026128D01*
X015253Y032158D01*
X015165Y032246D01*
X009135Y032246D01*
X009047Y032158D01*
X009047Y026128D01*
X009135Y026041D01*
X009420Y026041D01*
X009420Y024361D01*
X009355Y024334D01*
X009209Y024188D01*
X009150Y024045D01*
X009091Y024188D01*
X008945Y024334D01*
X008880Y024361D01*
X008880Y025739D01*
X008253Y026366D01*
X008253Y032158D01*
X008165Y032246D01*
X002135Y032246D01*
X002047Y032158D01*
X002047Y026128D01*
X002135Y026041D01*
X007927Y026041D01*
X008109Y025859D02*
X004260Y025859D01*
X004358Y025760D02*
X008208Y025760D01*
X008306Y025662D02*
X004457Y025662D01*
X004380Y025739D02*
X004380Y025739D01*
X004555Y025563D02*
X008405Y025563D01*
X008420Y025465D02*
X004654Y025465D01*
X004752Y025366D02*
X008420Y025366D01*
X008420Y025268D02*
X004834Y025268D01*
X004903Y025169D02*
X008420Y025169D01*
X008420Y025071D02*
X004903Y025071D01*
X004903Y024972D02*
X008420Y024972D01*
X008420Y024874D02*
X004826Y024874D01*
X004728Y024775D02*
X008420Y024775D01*
X008420Y024677D02*
X004509Y024677D01*
X004509Y024578D02*
X008420Y024578D01*
X008420Y024480D02*
X004432Y024480D01*
X004334Y024381D02*
X006469Y024381D01*
X006304Y024283D02*
X004300Y024283D01*
X004300Y024184D02*
X006208Y024184D01*
X006167Y024086D02*
X004300Y024086D01*
X004300Y023987D02*
X006130Y023987D01*
X006130Y023889D02*
X004299Y023889D01*
X004300Y023790D02*
X006130Y023790D01*
X006171Y023692D02*
X004300Y023692D01*
X004300Y023593D02*
X006215Y023593D01*
X006313Y023495D02*
X004300Y023495D01*
X004343Y023396D02*
X006491Y023396D01*
X006809Y023396D02*
X007491Y023396D01*
X007313Y023495D02*
X006987Y023495D01*
X007085Y023593D02*
X007215Y023593D01*
X007171Y023692D02*
X007129Y023692D01*
X007133Y024086D02*
X007167Y024086D01*
X007208Y024184D02*
X007092Y024184D01*
X006996Y024283D02*
X007304Y024283D01*
X007469Y024381D02*
X006831Y024381D01*
X007809Y023396D02*
X008491Y023396D01*
X008313Y023495D02*
X007987Y023495D01*
X008085Y023593D02*
X008215Y023593D01*
X008171Y023692D02*
X008129Y023692D01*
X008133Y024086D02*
X008167Y024086D01*
X008208Y024184D02*
X008092Y024184D01*
X007996Y024283D02*
X008304Y024283D01*
X008420Y024381D02*
X007831Y024381D01*
X008880Y024381D02*
X009420Y024381D01*
X009420Y024480D02*
X008880Y024480D01*
X008880Y024578D02*
X009420Y024578D01*
X009420Y024677D02*
X008880Y024677D01*
X008880Y024775D02*
X009420Y024775D01*
X009420Y024874D02*
X008880Y024874D01*
X008880Y024972D02*
X009420Y024972D01*
X009420Y025071D02*
X008880Y025071D01*
X008880Y025169D02*
X009420Y025169D01*
X009420Y025268D02*
X008880Y025268D01*
X008880Y025366D02*
X009420Y025366D01*
X009420Y025465D02*
X008880Y025465D01*
X008880Y025563D02*
X009420Y025563D01*
X009420Y025662D02*
X008880Y025662D01*
X008858Y025760D02*
X009420Y025760D01*
X009420Y025859D02*
X008760Y025859D01*
X008661Y025957D02*
X009420Y025957D01*
X009120Y026056D02*
X008563Y026056D01*
X008464Y026154D02*
X009047Y026154D01*
X009047Y026253D02*
X008366Y026253D01*
X008267Y026351D02*
X009047Y026351D01*
X009047Y026450D02*
X008253Y026450D01*
X008253Y026548D02*
X009047Y026548D01*
X009047Y026647D02*
X008253Y026647D01*
X008253Y026745D02*
X009047Y026745D01*
X009047Y026844D02*
X008253Y026844D01*
X008253Y026942D02*
X009047Y026942D01*
X009047Y027041D02*
X008253Y027041D01*
X008253Y027139D02*
X009047Y027139D01*
X009047Y027238D02*
X008253Y027238D01*
X008253Y027336D02*
X009047Y027336D01*
X009047Y027435D02*
X008253Y027435D01*
X008253Y027533D02*
X009047Y027533D01*
X009047Y027632D02*
X008253Y027632D01*
X008253Y027730D02*
X009047Y027730D01*
X009047Y027829D02*
X008253Y027829D01*
X008253Y027927D02*
X009047Y027927D01*
X009047Y028026D02*
X008253Y028026D01*
X008253Y028124D02*
X009047Y028124D01*
X009047Y028223D02*
X008253Y028223D01*
X008253Y028321D02*
X009047Y028321D01*
X009047Y028420D02*
X008253Y028420D01*
X008253Y028518D02*
X009047Y028518D01*
X009047Y028617D02*
X008253Y028617D01*
X008253Y028715D02*
X009047Y028715D01*
X009047Y028814D02*
X008253Y028814D01*
X008253Y028912D02*
X009047Y028912D01*
X009047Y029011D02*
X008253Y029011D01*
X008253Y029109D02*
X009047Y029109D01*
X009047Y029208D02*
X008253Y029208D01*
X008253Y029306D02*
X009047Y029306D01*
X009047Y029405D02*
X008253Y029405D01*
X008253Y029503D02*
X009047Y029503D01*
X009047Y029602D02*
X008253Y029602D01*
X008253Y029700D02*
X009047Y029700D01*
X009047Y029799D02*
X008253Y029799D01*
X008253Y029897D02*
X009047Y029897D01*
X009047Y029996D02*
X008253Y029996D01*
X008253Y030094D02*
X009047Y030094D01*
X009047Y030193D02*
X008253Y030193D01*
X008253Y030291D02*
X009047Y030291D01*
X009047Y030390D02*
X008253Y030390D01*
X008253Y030488D02*
X009047Y030488D01*
X009047Y030587D02*
X008253Y030587D01*
X008253Y030685D02*
X009047Y030685D01*
X009047Y030784D02*
X008253Y030784D01*
X008253Y030882D02*
X009047Y030882D01*
X009047Y030981D02*
X008253Y030981D01*
X008253Y031079D02*
X009047Y031079D01*
X009047Y031178D02*
X008253Y031178D01*
X008253Y031276D02*
X009047Y031276D01*
X009047Y031375D02*
X008253Y031375D01*
X008253Y031473D02*
X009047Y031473D01*
X009047Y031572D02*
X008253Y031572D01*
X008253Y031670D02*
X009047Y031670D01*
X009047Y031769D02*
X008253Y031769D01*
X008253Y031867D02*
X009047Y031867D01*
X009047Y031966D02*
X008253Y031966D01*
X008253Y032064D02*
X009047Y032064D01*
X009052Y032163D02*
X008248Y032163D01*
X009880Y025957D02*
X015639Y025957D01*
X015737Y026056D02*
X015180Y026056D01*
X015253Y026154D02*
X015836Y026154D01*
X015934Y026253D02*
X015253Y026253D01*
X015253Y026351D02*
X016033Y026351D01*
X016047Y026450D02*
X015253Y026450D01*
X015253Y026548D02*
X016047Y026548D01*
X016047Y026647D02*
X015253Y026647D01*
X015253Y026745D02*
X016047Y026745D01*
X016047Y026844D02*
X015253Y026844D01*
X015253Y026942D02*
X016047Y026942D01*
X016047Y027041D02*
X015253Y027041D01*
X015253Y027139D02*
X016047Y027139D01*
X016047Y027238D02*
X015253Y027238D01*
X015253Y027336D02*
X016047Y027336D01*
X016047Y027435D02*
X015253Y027435D01*
X015253Y027533D02*
X016047Y027533D01*
X016047Y027632D02*
X015253Y027632D01*
X015253Y027730D02*
X016047Y027730D01*
X016047Y027829D02*
X015253Y027829D01*
X015253Y027927D02*
X016047Y027927D01*
X016047Y028026D02*
X015253Y028026D01*
X015253Y028124D02*
X016047Y028124D01*
X016047Y028223D02*
X015253Y028223D01*
X015253Y028321D02*
X016047Y028321D01*
X016047Y028420D02*
X015253Y028420D01*
X015253Y028518D02*
X016047Y028518D01*
X016047Y028617D02*
X015253Y028617D01*
X015253Y028715D02*
X016047Y028715D01*
X016047Y028814D02*
X015253Y028814D01*
X015253Y028912D02*
X016047Y028912D01*
X016047Y029011D02*
X015253Y029011D01*
X015253Y029109D02*
X016047Y029109D01*
X016047Y029208D02*
X015253Y029208D01*
X015253Y029306D02*
X016047Y029306D01*
X016047Y029405D02*
X015253Y029405D01*
X015253Y029503D02*
X016047Y029503D01*
X016047Y029602D02*
X015253Y029602D01*
X015253Y029700D02*
X016047Y029700D01*
X016047Y029799D02*
X015253Y029799D01*
X015253Y029897D02*
X016047Y029897D01*
X016047Y029996D02*
X015253Y029996D01*
X015253Y030094D02*
X016047Y030094D01*
X016047Y030193D02*
X015253Y030193D01*
X015253Y030291D02*
X016047Y030291D01*
X016047Y030390D02*
X015253Y030390D01*
X015253Y030488D02*
X016047Y030488D01*
X016047Y030587D02*
X015253Y030587D01*
X015253Y030685D02*
X016047Y030685D01*
X016047Y030784D02*
X015253Y030784D01*
X015253Y030882D02*
X016047Y030882D01*
X016047Y030981D02*
X015253Y030981D01*
X015253Y031079D02*
X016047Y031079D01*
X016047Y031178D02*
X015253Y031178D01*
X015253Y031276D02*
X016047Y031276D01*
X016047Y031375D02*
X015253Y031375D01*
X015253Y031473D02*
X016047Y031473D01*
X016047Y031572D02*
X015253Y031572D01*
X015253Y031670D02*
X016047Y031670D01*
X016047Y031769D02*
X015253Y031769D01*
X015253Y031867D02*
X016047Y031867D01*
X016047Y031966D02*
X015253Y031966D01*
X015253Y032064D02*
X016047Y032064D01*
X016052Y032163D02*
X015248Y032163D01*
X016289Y025957D02*
X022639Y025957D01*
X022540Y025859D02*
X016191Y025859D01*
X016092Y025760D02*
X022442Y025760D01*
X022343Y025662D02*
X015994Y025662D01*
X015895Y025563D02*
X022245Y025563D01*
X022146Y025465D02*
X015797Y025465D01*
X015469Y024381D02*
X014831Y024381D01*
X015996Y024283D02*
X016304Y024283D01*
X016208Y024184D02*
X016081Y024184D01*
X016134Y024086D02*
X016167Y024086D01*
X016171Y023692D02*
X016131Y023692D01*
X016180Y023593D02*
X016075Y023593D01*
X015986Y023495D02*
X016180Y023495D01*
X013491Y023396D02*
X011809Y023396D01*
X011987Y023495D02*
X013313Y023495D01*
X013215Y023593D02*
X012085Y023593D01*
X012129Y023692D02*
X013171Y023692D01*
X013130Y023790D02*
X012170Y023790D01*
X012170Y023889D02*
X013130Y023889D01*
X013130Y023987D02*
X012170Y023987D01*
X012133Y024086D02*
X013167Y024086D01*
X013208Y024184D02*
X012092Y024184D01*
X011996Y024283D02*
X013304Y024283D01*
X013469Y024381D02*
X011963Y024381D01*
X012062Y024480D02*
X030950Y024480D01*
X030950Y024578D02*
X012160Y024578D01*
X011805Y024874D02*
X011206Y024874D01*
X011304Y024972D02*
X011904Y024972D01*
X012002Y025071D02*
X011403Y025071D01*
X011501Y025169D02*
X021851Y025169D01*
X021949Y025268D02*
X011600Y025268D01*
X011698Y025366D02*
X022048Y025366D01*
X022403Y025071D02*
X030950Y025071D01*
X030950Y025169D02*
X022501Y025169D01*
X022600Y025268D02*
X030950Y025268D01*
X030950Y025366D02*
X022698Y025366D01*
X022797Y025465D02*
X030950Y025465D01*
X030950Y025563D02*
X022895Y025563D01*
X022994Y025662D02*
X030950Y025662D01*
X030950Y025760D02*
X023092Y025760D01*
X023191Y025859D02*
X030950Y025859D01*
X030950Y025957D02*
X023289Y025957D01*
X022934Y026253D02*
X022253Y026253D01*
X022253Y026351D02*
X023033Y026351D01*
X023047Y026450D02*
X022253Y026450D01*
X022253Y026548D02*
X023047Y026548D01*
X023047Y026647D02*
X022253Y026647D01*
X022253Y026745D02*
X023047Y026745D01*
X023047Y026844D02*
X022253Y026844D01*
X022253Y026942D02*
X023047Y026942D01*
X023047Y027041D02*
X022253Y027041D01*
X022253Y027139D02*
X023047Y027139D01*
X023047Y027238D02*
X022253Y027238D01*
X022253Y027336D02*
X023047Y027336D01*
X023047Y027435D02*
X022253Y027435D01*
X022253Y027533D02*
X023047Y027533D01*
X023047Y027632D02*
X022253Y027632D01*
X022253Y027730D02*
X023047Y027730D01*
X023047Y027829D02*
X022253Y027829D01*
X022253Y027927D02*
X023047Y027927D01*
X023047Y028026D02*
X022253Y028026D01*
X022253Y028124D02*
X023047Y028124D01*
X023047Y028223D02*
X022253Y028223D01*
X022253Y028321D02*
X023047Y028321D01*
X023047Y028420D02*
X022253Y028420D01*
X022253Y028518D02*
X023047Y028518D01*
X023047Y028617D02*
X022253Y028617D01*
X022253Y028715D02*
X023047Y028715D01*
X023047Y028814D02*
X022253Y028814D01*
X022253Y028912D02*
X023047Y028912D01*
X023047Y029011D02*
X022253Y029011D01*
X022253Y029109D02*
X023047Y029109D01*
X023047Y029208D02*
X022253Y029208D01*
X022253Y029306D02*
X023047Y029306D01*
X023047Y029405D02*
X022253Y029405D01*
X022253Y029503D02*
X023047Y029503D01*
X023047Y029602D02*
X022253Y029602D01*
X022253Y029700D02*
X023047Y029700D01*
X023047Y029799D02*
X022253Y029799D01*
X022253Y029897D02*
X023047Y029897D01*
X023047Y029996D02*
X022253Y029996D01*
X022253Y030094D02*
X023047Y030094D01*
X023047Y030193D02*
X022253Y030193D01*
X022253Y030291D02*
X023047Y030291D01*
X023047Y030390D02*
X022253Y030390D01*
X022253Y030488D02*
X023047Y030488D01*
X023047Y030587D02*
X022253Y030587D01*
X022253Y030685D02*
X023047Y030685D01*
X023047Y030784D02*
X022253Y030784D01*
X022253Y030882D02*
X023047Y030882D01*
X023047Y030981D02*
X022253Y030981D01*
X022253Y031079D02*
X023047Y031079D01*
X023047Y031178D02*
X022253Y031178D01*
X022253Y031276D02*
X023047Y031276D01*
X023047Y031375D02*
X022253Y031375D01*
X022253Y031473D02*
X023047Y031473D01*
X023047Y031572D02*
X022253Y031572D01*
X022253Y031670D02*
X023047Y031670D01*
X023047Y031769D02*
X022253Y031769D01*
X022253Y031867D02*
X023047Y031867D01*
X023047Y031966D02*
X022253Y031966D01*
X022253Y032064D02*
X023047Y032064D01*
X023052Y032163D02*
X022248Y032163D01*
X022253Y026154D02*
X022836Y026154D01*
X022737Y026056D02*
X022180Y026056D01*
X022304Y024972D02*
X030950Y024972D01*
X030950Y024874D02*
X022206Y024874D01*
X022107Y024775D02*
X030950Y024775D01*
X030950Y024677D02*
X022009Y024677D01*
X025112Y020638D02*
X030950Y020638D01*
X030950Y020540D02*
X025211Y020540D01*
X025226Y020524D02*
X025226Y020524D01*
X025309Y020441D02*
X030950Y020441D01*
X030950Y020343D02*
X025408Y020343D01*
X025506Y020244D02*
X030950Y020244D01*
X030950Y020146D02*
X028759Y020146D01*
X028733Y020163D02*
X028666Y020191D01*
X028596Y020205D01*
X028432Y020205D01*
X028432Y019888D01*
X028332Y019888D01*
X028332Y019788D01*
X028432Y019788D01*
X028432Y019888D01*
X028923Y019888D01*
X028912Y019945D01*
X028884Y020012D01*
X028844Y020072D01*
X028793Y020123D01*
X028733Y020163D01*
X028861Y020047D02*
X030950Y020047D01*
X030950Y019949D02*
X028910Y019949D01*
X028916Y019752D02*
X030950Y019752D01*
X030950Y019850D02*
X028432Y019850D01*
X028432Y019752D02*
X028332Y019752D01*
X028332Y019850D02*
X027317Y019850D01*
X027219Y019949D02*
X027854Y019949D01*
X027853Y019945D02*
X027841Y019888D01*
X028332Y019888D01*
X028332Y020205D01*
X028169Y020205D01*
X028098Y020191D01*
X028031Y020163D01*
X027971Y020123D01*
X027920Y020072D01*
X027880Y020012D01*
X027853Y019945D01*
X027904Y020047D02*
X027120Y020047D01*
X026880Y020146D02*
X028006Y020146D01*
X028332Y020146D02*
X028432Y020146D01*
X028432Y020047D02*
X028332Y020047D01*
X028332Y019949D02*
X028432Y019949D01*
X028432Y019653D02*
X028332Y019653D01*
X028332Y019555D02*
X028432Y019555D01*
X028794Y019555D02*
X030950Y019555D01*
X030950Y019653D02*
X028877Y019653D01*
X028971Y019456D02*
X030950Y019456D01*
X030950Y019358D02*
X029104Y019358D01*
X029203Y019259D02*
X030950Y019259D01*
X030950Y019161D02*
X029301Y019161D01*
X029400Y019062D02*
X030950Y019062D01*
X030950Y018964D02*
X029460Y018964D01*
X029480Y018865D02*
X030950Y018865D01*
X030950Y018767D02*
X029480Y018767D01*
X029480Y018668D02*
X030950Y018668D01*
X030950Y018570D02*
X029480Y018570D01*
X029480Y018471D02*
X030950Y018471D01*
X030950Y018373D02*
X029480Y018373D01*
X028029Y018176D02*
X027431Y018176D01*
X027431Y018274D02*
X027912Y018274D01*
X027861Y018373D02*
X027431Y018373D01*
X027431Y018471D02*
X027839Y018471D01*
X027839Y018570D02*
X027431Y018570D01*
X027431Y018668D02*
X027878Y018668D01*
X027954Y018767D02*
X027431Y018767D01*
X027431Y018865D02*
X027990Y018865D01*
X027893Y018964D02*
X027431Y018964D01*
X027431Y019062D02*
X027853Y019062D01*
X027839Y019161D02*
X027431Y019161D01*
X027431Y019259D02*
X027846Y019259D01*
X027887Y019358D02*
X027431Y019358D01*
X027431Y019456D02*
X027974Y019456D01*
X027970Y019555D02*
X027431Y019555D01*
X027431Y019653D02*
X027888Y019653D01*
X027849Y019752D02*
X027416Y019752D01*
X026105Y020146D02*
X025605Y020146D01*
X025703Y020047D02*
X026006Y020047D01*
X025964Y019949D02*
X025802Y019949D01*
X025900Y019850D02*
X025949Y019850D01*
X029180Y026056D02*
X030950Y026056D01*
X030950Y026154D02*
X029253Y026154D01*
X029253Y026253D02*
X030950Y026253D01*
X030950Y026351D02*
X029253Y026351D01*
X029253Y026450D02*
X030950Y026450D01*
X030950Y026548D02*
X029253Y026548D01*
X029253Y026647D02*
X030950Y026647D01*
X030950Y026745D02*
X029253Y026745D01*
X029253Y026844D02*
X030950Y026844D01*
X030950Y026942D02*
X029253Y026942D01*
X029253Y027041D02*
X030950Y027041D01*
X030950Y027139D02*
X029253Y027139D01*
X029253Y027238D02*
X030950Y027238D01*
X030950Y027336D02*
X029253Y027336D01*
X029253Y027435D02*
X030950Y027435D01*
X030950Y027533D02*
X029253Y027533D01*
X029253Y027632D02*
X030950Y027632D01*
X030950Y027730D02*
X029253Y027730D01*
X029253Y027829D02*
X030950Y027829D01*
X030950Y027927D02*
X029253Y027927D01*
X029253Y028026D02*
X030950Y028026D01*
X030950Y028124D02*
X029253Y028124D01*
X029253Y028223D02*
X030950Y028223D01*
X030950Y028321D02*
X029253Y028321D01*
X029253Y028420D02*
X030950Y028420D01*
X030950Y028518D02*
X029253Y028518D01*
X029253Y028617D02*
X030950Y028617D01*
X030950Y028715D02*
X029253Y028715D01*
X029253Y028814D02*
X030950Y028814D01*
X030950Y028912D02*
X029253Y028912D01*
X029253Y029011D02*
X030950Y029011D01*
X030950Y029109D02*
X029253Y029109D01*
X029253Y029208D02*
X030950Y029208D01*
X030950Y029306D02*
X029253Y029306D01*
X029253Y029405D02*
X030950Y029405D01*
X030950Y029503D02*
X029253Y029503D01*
X029253Y029602D02*
X030950Y029602D01*
X030950Y029700D02*
X029253Y029700D01*
X029253Y029799D02*
X030950Y029799D01*
X030950Y029897D02*
X029253Y029897D01*
X029253Y029996D02*
X030950Y029996D01*
X030950Y030094D02*
X029253Y030094D01*
X029253Y030193D02*
X030950Y030193D01*
X030950Y030291D02*
X029253Y030291D01*
X029253Y030390D02*
X030950Y030390D01*
X030950Y030488D02*
X029253Y030488D01*
X029253Y030587D02*
X030950Y030587D01*
X030950Y030685D02*
X029253Y030685D01*
X029253Y030784D02*
X030950Y030784D01*
X030950Y030882D02*
X029253Y030882D01*
X029253Y030981D02*
X030950Y030981D01*
X030950Y031079D02*
X029253Y031079D01*
X029253Y031178D02*
X030950Y031178D01*
X030950Y031276D02*
X029253Y031276D01*
X029253Y031375D02*
X030950Y031375D01*
X030950Y031473D02*
X029253Y031473D01*
X029253Y031572D02*
X030950Y031572D01*
X030950Y031670D02*
X029253Y031670D01*
X029253Y031769D02*
X030950Y031769D01*
X030950Y031867D02*
X029253Y031867D01*
X029253Y031966D02*
X030950Y031966D01*
X030950Y032064D02*
X029253Y032064D01*
X029248Y032163D02*
X030950Y032163D01*
X030950Y032261D02*
X000350Y032261D01*
X000350Y032163D02*
X002052Y032163D01*
X002047Y032064D02*
X000350Y032064D01*
X000350Y031966D02*
X002047Y031966D01*
X002047Y031867D02*
X000350Y031867D01*
X000350Y031769D02*
X002047Y031769D01*
X002047Y031670D02*
X000350Y031670D01*
X000350Y031572D02*
X002047Y031572D01*
X002047Y031473D02*
X000350Y031473D01*
X000350Y031375D02*
X002047Y031375D01*
X002047Y031276D02*
X000350Y031276D01*
X000350Y031178D02*
X002047Y031178D01*
X002047Y031079D02*
X000350Y031079D01*
X000350Y030981D02*
X002047Y030981D01*
X002047Y030882D02*
X000350Y030882D01*
X000350Y030784D02*
X002047Y030784D01*
X002047Y030685D02*
X000350Y030685D01*
X000350Y030587D02*
X002047Y030587D01*
X002047Y030488D02*
X000350Y030488D01*
X000350Y030390D02*
X002047Y030390D01*
X002047Y030291D02*
X000350Y030291D01*
X000350Y030193D02*
X002047Y030193D01*
X002047Y030094D02*
X000350Y030094D01*
X000350Y029996D02*
X002047Y029996D01*
X002047Y029897D02*
X000350Y029897D01*
X000350Y029799D02*
X002047Y029799D01*
X002047Y029700D02*
X000350Y029700D01*
X000350Y029602D02*
X002047Y029602D01*
X002047Y029503D02*
X000350Y029503D01*
X000350Y029405D02*
X002047Y029405D01*
X002047Y029306D02*
X000350Y029306D01*
X000350Y029208D02*
X002047Y029208D01*
X002047Y029109D02*
X000350Y029109D01*
X000350Y029011D02*
X002047Y029011D01*
X002047Y028912D02*
X000350Y028912D01*
X000350Y028814D02*
X002047Y028814D01*
X002047Y028715D02*
X000350Y028715D01*
X000350Y028617D02*
X002047Y028617D01*
X002047Y028518D02*
X000350Y028518D01*
X000350Y028420D02*
X002047Y028420D01*
X002047Y028321D02*
X000350Y028321D01*
X000350Y028223D02*
X002047Y028223D01*
X002047Y028124D02*
X000350Y028124D01*
X000350Y028026D02*
X002047Y028026D01*
X002047Y027927D02*
X000350Y027927D01*
X000350Y027829D02*
X002047Y027829D01*
X002047Y027730D02*
X000350Y027730D01*
X000350Y027632D02*
X002047Y027632D01*
X002047Y027533D02*
X000350Y027533D01*
X000350Y027435D02*
X002047Y027435D01*
X002047Y027336D02*
X000350Y027336D01*
X000350Y027238D02*
X002047Y027238D01*
X002047Y027139D02*
X000350Y027139D01*
X000350Y027041D02*
X002047Y027041D01*
X002047Y026942D02*
X000350Y026942D01*
X000350Y026844D02*
X002047Y026844D01*
X002047Y026745D02*
X000350Y026745D01*
X000350Y026647D02*
X002047Y026647D01*
X002047Y026548D02*
X000350Y026548D01*
X000350Y026450D02*
X002047Y026450D01*
X002047Y026351D02*
X000350Y026351D01*
X000350Y026253D02*
X002047Y026253D01*
X002047Y026154D02*
X000350Y026154D01*
X000350Y026056D02*
X002120Y026056D01*
X003357Y024775D02*
X003615Y024775D01*
X003615Y024677D02*
X003259Y024677D01*
X003160Y024578D02*
X003615Y024578D01*
X003559Y024480D02*
X003559Y024480D01*
X003559Y024381D02*
X003559Y024381D01*
X003559Y024283D02*
X003559Y024283D01*
X003331Y024283D02*
X002865Y024283D01*
X002963Y024381D02*
X003333Y024381D01*
X003374Y024480D02*
X003062Y024480D01*
X003331Y024184D02*
X002766Y024184D01*
X002668Y024086D02*
X003331Y024086D01*
X003335Y023987D02*
X002569Y023987D01*
X002471Y023889D02*
X003369Y023889D01*
X003331Y023790D02*
X002372Y023790D01*
X002274Y023692D02*
X003331Y023692D01*
X003331Y023593D02*
X002175Y023593D01*
X002077Y023495D02*
X003331Y023495D01*
X003331Y023396D02*
X001978Y023396D01*
X001880Y023298D02*
X003379Y023298D01*
X003615Y023199D02*
X001781Y023199D01*
X001683Y023101D02*
X003615Y023101D01*
X003615Y023002D02*
X001584Y023002D01*
X001486Y022904D02*
X003583Y022904D01*
X003515Y022805D02*
X001387Y022805D01*
X001380Y022707D02*
X003515Y022707D01*
X003515Y022608D02*
X001380Y022608D01*
X001380Y022510D02*
X003593Y022510D01*
X003815Y022712D02*
X003815Y023598D01*
X004071Y023598D02*
X004071Y023244D01*
X004209Y023106D01*
X003979Y022411D02*
X001380Y022411D01*
X001380Y022313D02*
X003979Y022313D01*
X003896Y022214D02*
X001380Y022214D01*
X001380Y022116D02*
X003797Y022116D01*
X003699Y022017D02*
X001380Y022017D01*
X001380Y021919D02*
X003600Y021919D01*
X003815Y024189D02*
X003815Y025074D01*
X003592Y024874D02*
X003456Y024874D01*
X004071Y024543D02*
X004071Y024189D01*
X004071Y024543D02*
X004209Y024681D01*
X008809Y023396D02*
X009491Y023396D01*
X009313Y023495D02*
X008987Y023495D01*
X009085Y023593D02*
X009215Y023593D01*
X009171Y023692D02*
X009129Y023692D01*
X009133Y024086D02*
X009167Y024086D01*
X009208Y024184D02*
X009092Y024184D01*
X008996Y024283D02*
X009304Y024283D01*
X009880Y024381D02*
X010420Y024381D01*
X010420Y024480D02*
X009880Y024480D01*
X009880Y024578D02*
X010420Y024578D01*
X010420Y024677D02*
X009880Y024677D01*
X009880Y024775D02*
X010457Y024775D01*
X010555Y024874D02*
X009880Y024874D01*
X009880Y024972D02*
X010654Y024972D01*
X010752Y025071D02*
X009880Y025071D01*
X009880Y025169D02*
X010851Y025169D01*
X010949Y025268D02*
X009880Y025268D01*
X009880Y025366D02*
X011048Y025366D01*
X011146Y025465D02*
X009880Y025465D01*
X009880Y025563D02*
X011245Y025563D01*
X011343Y025662D02*
X009880Y025662D01*
X009880Y025760D02*
X011442Y025760D01*
X011540Y025859D02*
X009880Y025859D01*
X011009Y024677D02*
X011608Y024677D01*
X011510Y024578D02*
X010910Y024578D01*
X010880Y024480D02*
X011420Y024480D01*
X011420Y024381D02*
X010880Y024381D01*
X010996Y024283D02*
X011304Y024283D01*
X011208Y024184D02*
X011092Y024184D01*
X011133Y024086D02*
X011167Y024086D01*
X011171Y023692D02*
X011129Y023692D01*
X011085Y023593D02*
X011215Y023593D01*
X011313Y023495D02*
X010987Y023495D01*
X010809Y023396D02*
X011491Y023396D01*
X010491Y023396D02*
X009809Y023396D01*
X009987Y023495D02*
X010313Y023495D01*
X010215Y023593D02*
X010085Y023593D01*
X010129Y023692D02*
X010171Y023692D01*
X010167Y024086D02*
X010133Y024086D01*
X010092Y024184D02*
X010208Y024184D01*
X010304Y024283D02*
X009996Y024283D01*
X011107Y024775D02*
X011707Y024775D01*
X000350Y032360D02*
X030950Y032360D01*
X030950Y032458D02*
X000350Y032458D01*
X000350Y032557D02*
X030950Y032557D01*
X030950Y032655D02*
X000350Y032655D01*
X000350Y032754D02*
X030950Y032754D01*
X030950Y032852D02*
X000350Y032852D01*
X000350Y032951D02*
X030950Y032951D01*
X030950Y033049D02*
X000350Y033049D01*
X000350Y033148D02*
X030950Y033148D01*
X030950Y033246D02*
X000350Y033246D01*
X000350Y033345D02*
X030950Y033345D01*
X030950Y033443D02*
X000350Y033443D01*
X000350Y033542D02*
X030950Y033542D01*
X030950Y033640D02*
X000350Y033640D01*
X000350Y033739D02*
X030950Y033739D01*
X030950Y033837D02*
X000350Y033837D01*
X000350Y033936D02*
X030950Y033936D01*
X020044Y005371D02*
X019456Y005371D01*
X019606Y005272D02*
X019894Y005272D01*
X019803Y005174D02*
X019697Y005174D01*
X019737Y005075D02*
X019763Y005075D01*
X019775Y004681D02*
X019725Y004681D01*
X019675Y004583D02*
X019825Y004583D01*
X019924Y004484D02*
X019576Y004484D01*
X019384Y004386D02*
X020116Y004386D01*
D16*
X020400Y007393D03*
X020400Y009893D03*
X022900Y006643D03*
X025650Y007393D03*
X027650Y007393D03*
X025150Y009893D03*
X015650Y009893D03*
X015650Y007393D03*
X010900Y007393D03*
X010900Y009893D03*
X006150Y009893D03*
X006150Y007393D03*
X001150Y004893D03*
X001650Y022893D03*
X001650Y024393D03*
X003815Y025074D03*
X004209Y024681D03*
X004603Y025074D03*
X004209Y023106D03*
X003815Y022712D03*
X008150Y025393D03*
X009150Y025393D03*
X010150Y025393D03*
X016150Y025393D03*
X023650Y025893D03*
X024700Y024343D03*
X025450Y022843D03*
X025450Y022443D03*
X025850Y022443D03*
X025850Y022843D03*
X026900Y022893D03*
X028150Y025893D03*
D17*
X020981Y018500D03*
X019721Y018854D03*
X016256Y018500D03*
X014996Y018854D03*
X011532Y018500D03*
X010272Y018854D03*
X006807Y018500D03*
X005548Y018854D03*
X002083Y018500D03*
X005548Y014130D03*
X006807Y013775D03*
X010272Y014130D03*
X011532Y013775D03*
X014996Y014130D03*
X016256Y013775D03*
X019721Y014130D03*
X020981Y013775D03*
X024445Y014130D03*
X025705Y013775D03*
X027437Y014681D03*
X025705Y016413D03*
X025075Y016413D03*
X024445Y016413D03*
X029170Y016019D03*
X029170Y014130D03*
X027437Y011295D03*
X029170Y009405D03*
X025705Y009051D03*
X024445Y009405D03*
X020981Y009051D03*
X019721Y009405D03*
X019721Y008145D03*
X016256Y009051D03*
X014996Y009405D03*
X014996Y008145D03*
X011532Y009051D03*
X010272Y009405D03*
X010272Y008145D03*
X006807Y009051D03*
X005548Y009405D03*
X005548Y008145D03*
X002083Y009051D03*
D18*
X016650Y022893D02*
X017900Y021643D01*
X020900Y021643D01*
X016650Y022893D02*
X016650Y023893D01*
X024445Y008145D02*
X029170Y008145D01*
D19*
X029170Y008145D03*
X024445Y008145D03*
X020900Y021643D03*
X002083Y013775D03*
D20*
X002870Y013775D01*
X004760Y014444D02*
X005233Y014444D01*
X005548Y014130D01*
X006807Y013775D02*
X007595Y013775D01*
X009485Y014444D02*
X009957Y014444D01*
X010272Y014130D01*
X011532Y013775D02*
X012319Y013775D01*
X014209Y014444D02*
X014681Y014444D01*
X014996Y014130D01*
X016256Y013775D02*
X017044Y013775D01*
X018933Y014444D02*
X019406Y014444D01*
X019721Y014130D01*
X020981Y013775D02*
X021768Y013775D01*
X023658Y014444D02*
X024130Y014444D01*
X024445Y014130D01*
X025705Y013775D02*
X026493Y013775D01*
X028382Y014444D02*
X028855Y014444D01*
X029170Y014130D01*
X029170Y016019D02*
X029170Y018854D01*
X028855Y019169D01*
X028382Y019169D01*
X026493Y018500D02*
X025705Y017712D01*
X025705Y016413D01*
X024445Y016413D02*
X024445Y018854D01*
X024130Y019169D01*
X023658Y019169D01*
X021768Y018500D02*
X020981Y018500D01*
X019721Y018854D02*
X019406Y019169D01*
X018933Y019169D01*
X017044Y018500D02*
X016256Y018500D01*
X014996Y018854D02*
X014681Y019169D01*
X014209Y019169D01*
X012319Y018500D02*
X011532Y018500D01*
X010272Y018854D02*
X009957Y019169D01*
X009485Y019169D01*
X007595Y018500D02*
X006807Y018500D01*
X005548Y018854D02*
X005233Y019169D01*
X004760Y019169D01*
X002870Y018500D02*
X002083Y018500D01*
X004760Y009720D02*
X005233Y009720D01*
X005548Y009405D01*
X005548Y008145D01*
X006807Y009051D02*
X007595Y009051D01*
X009485Y009720D02*
X009957Y009720D01*
X010272Y009405D01*
X010272Y008145D01*
X011532Y009051D02*
X012319Y009051D01*
X014209Y009720D02*
X014681Y009720D01*
X014996Y009405D01*
X014996Y008145D01*
X016256Y009051D02*
X017044Y009051D01*
X018933Y009720D02*
X019406Y009720D01*
X019721Y009405D01*
X019721Y008145D01*
X020981Y009051D02*
X021768Y009051D01*
X023658Y009720D02*
X024130Y009720D01*
X024445Y009405D01*
X024445Y008145D01*
X025705Y009051D02*
X026493Y009051D01*
X028382Y009720D02*
X028855Y009720D01*
X029170Y009405D01*
X029170Y008145D01*
X002870Y009051D02*
X002083Y009051D01*
D21*
X002398Y009720D02*
X002162Y009956D01*
X002162Y010586D01*
X002870Y011295D01*
X027437Y011295D01*
X026493Y009720D02*
X026256Y009720D01*
X024996Y010980D01*
X022359Y010980D01*
X021768Y010389D01*
X021768Y009720D02*
X021532Y009720D01*
X020272Y010980D01*
X017634Y010980D01*
X017044Y010389D01*
X017044Y009720D02*
X016807Y009720D01*
X015548Y010980D01*
X012910Y010980D01*
X012319Y010389D01*
X012319Y009720D02*
X012083Y009720D01*
X010823Y010980D01*
X008185Y010980D01*
X007595Y010389D01*
X007595Y009720D02*
X007359Y009720D01*
X006099Y010980D01*
X003461Y010980D01*
X002870Y010389D01*
X002870Y009720D02*
X002398Y009720D01*
X001650Y008393D02*
X003650Y006393D01*
X008650Y006393D01*
X009400Y005643D01*
X017500Y005643D01*
X018250Y004893D01*
X009650Y004893D02*
X008400Y006143D01*
X003400Y006143D01*
X001400Y008143D01*
X001400Y019393D01*
X004209Y022202D01*
X004209Y023106D01*
X004209Y024681D02*
X004209Y025153D01*
X003969Y025393D01*
X003650Y025393D01*
X001150Y022893D01*
X001150Y007893D01*
X003150Y005893D01*
X007650Y005893D01*
X008650Y004893D01*
X007650Y004893D02*
X006900Y005643D01*
X002900Y005643D01*
X000900Y007643D01*
X000900Y023143D01*
X003400Y025643D01*
X004150Y025643D01*
X004603Y025191D01*
X004603Y025074D01*
X008650Y025643D02*
X005150Y029143D01*
X008650Y025643D02*
X008650Y023893D01*
X009650Y023893D02*
X009650Y026643D01*
X012150Y029143D01*
X011650Y025643D02*
X010650Y024643D01*
X010650Y023893D01*
X011650Y023893D02*
X011650Y024393D01*
X012150Y024893D01*
X021900Y024893D01*
X026150Y029143D01*
X019150Y029143D02*
X015650Y025643D01*
X011650Y025643D01*
X010744Y020429D02*
X008185Y020429D01*
X007595Y019838D01*
X007595Y019169D02*
X007359Y019169D01*
X006099Y020429D01*
X003461Y020429D01*
X002870Y019838D01*
X002870Y019169D02*
X001926Y019169D01*
X001650Y018893D01*
X001650Y008393D01*
X002398Y014444D02*
X002162Y014681D01*
X002162Y015311D01*
X002870Y016019D01*
X025941Y016019D01*
X027201Y017279D01*
X027201Y019641D01*
X027004Y019838D01*
X026493Y019838D01*
X026493Y019169D02*
X026256Y019169D01*
X024996Y020429D01*
X022359Y020429D01*
X021768Y019838D01*
X021768Y019169D02*
X021532Y019169D01*
X020272Y020429D01*
X017634Y020429D01*
X017044Y019838D01*
X017044Y019169D02*
X016807Y019169D01*
X015548Y020429D01*
X012910Y020429D01*
X012319Y019838D01*
X012319Y019169D02*
X012083Y019169D01*
X010744Y020429D01*
X010823Y015704D02*
X008185Y015704D01*
X007595Y015114D01*
X007595Y014444D02*
X007359Y014444D01*
X006099Y015704D01*
X003461Y015704D01*
X002870Y015114D01*
X002870Y014444D02*
X002398Y014444D01*
X010823Y015704D02*
X012083Y014444D01*
X012319Y014444D01*
X012319Y015114D02*
X012910Y015704D01*
X015548Y015704D01*
X016807Y014444D01*
X017044Y014444D01*
X017044Y015114D02*
X017634Y015704D01*
X020272Y015704D01*
X021532Y014444D01*
X021768Y014444D01*
X021768Y015114D02*
X022359Y015704D01*
X024996Y015704D01*
X026256Y014444D01*
X026493Y014444D01*
X026493Y015114D02*
X027004Y015114D01*
X027437Y014681D01*
M02*
