G75*
%MOIN*%
%OFA0B0*%
%FSLAX24Y24*%
%IPPOS*%
%LPD*%
%AMOC8*
5,1,8,0,0,1.08239X$1,22.5*
%
%ADD10R,0.0926X0.3210*%
%ADD11R,0.0787X0.0787*%
%ADD12R,0.0217X0.0138*%
%ADD13R,0.0138X0.0217*%
%ADD14R,0.1556X0.1162*%
%ADD15R,0.0493X0.0454*%
%ADD16R,0.0572X0.0690*%
%ADD17R,0.0651X0.0847*%
%ADD18R,0.0454X0.0493*%
%ADD19R,0.0485X0.0473*%
%ADD20R,0.0454X0.0611*%
%ADD21R,0.2501X0.2186*%
%ADD22R,0.0690X0.0454*%
%ADD23R,0.0473X0.0485*%
%ADD24R,0.0847X0.0651*%
%ADD25C,0.0800*%
D10*
X022028Y019143D03*
X024272Y019143D03*
D11*
X025650Y022643D03*
D12*
X025099Y022545D03*
X025099Y022742D03*
X025099Y022939D03*
X025099Y022348D03*
X026201Y022348D03*
X026201Y022545D03*
X026201Y022742D03*
X026201Y022939D03*
D13*
X025945Y023194D03*
X025748Y023194D03*
X025552Y023194D03*
X025355Y023194D03*
X025355Y022092D03*
X025552Y022092D03*
X025748Y022092D03*
X025945Y022092D03*
D14*
X026650Y020600D03*
X026650Y017687D03*
D15*
X026650Y024809D03*
X026650Y025478D03*
X027400Y025478D03*
X027400Y024809D03*
X025650Y006228D03*
X025650Y005559D03*
X004585Y023559D03*
X004585Y024228D03*
D16*
G36*
X022163Y022368D02*
X022568Y021963D01*
X022081Y021476D01*
X021676Y021881D01*
X022163Y022368D01*
G37*
G36*
X022719Y021811D02*
X023124Y021406D01*
X022637Y020919D01*
X022232Y021324D01*
X022719Y021811D01*
G37*
D17*
G36*
X022801Y023089D02*
X023260Y022630D01*
X022663Y022033D01*
X022204Y022492D01*
X022801Y023089D01*
G37*
G36*
X023551Y023839D02*
X024010Y023380D01*
X023413Y022783D01*
X022954Y023242D01*
X023551Y023839D01*
G37*
G36*
X024387Y023004D02*
X024846Y022545D01*
X024249Y021948D01*
X023790Y022407D01*
X024387Y023004D01*
G37*
G36*
X023637Y022254D02*
X024096Y021795D01*
X023499Y021198D01*
X023040Y021657D01*
X023637Y022254D01*
G37*
X028309Y019643D03*
X028309Y018643D03*
X028309Y017643D03*
X029491Y017643D03*
X029491Y018643D03*
X029491Y019643D03*
X024741Y006643D03*
X023559Y006643D03*
X017491Y021393D03*
X016309Y021393D03*
X002741Y022143D03*
X001559Y022143D03*
D18*
X002815Y023143D03*
X002815Y023893D03*
X003485Y023893D03*
X003485Y023143D03*
X021815Y005893D03*
X022485Y005893D03*
X025065Y023893D03*
X025735Y023893D03*
X026565Y023893D03*
X027235Y023893D03*
D19*
X025900Y024799D03*
X025900Y025488D03*
X025150Y025488D03*
X025150Y024799D03*
X024400Y024799D03*
X024400Y025488D03*
X022150Y010488D03*
X022150Y009799D03*
X017900Y009549D03*
X017900Y010238D03*
X004150Y008488D03*
X004150Y007799D03*
D20*
X024026Y005576D03*
X024774Y005576D03*
X024400Y004710D03*
D21*
X029384Y005893D03*
D22*
X026510Y004996D03*
X026510Y006791D03*
D23*
X017244Y020393D03*
X016556Y020393D03*
X003494Y024643D03*
X002806Y024643D03*
D24*
X003150Y008734D03*
X003150Y007553D03*
X023150Y009553D03*
X023150Y010734D03*
D25*
X006650Y004893D03*
X007650Y004893D03*
X008650Y004893D03*
X009650Y004893D03*
X010650Y004893D03*
X011650Y004893D03*
X012650Y004893D03*
X013650Y004893D03*
X015250Y004893D03*
X016250Y004893D03*
X017250Y004893D03*
X018250Y004893D03*
X019250Y004893D03*
X020250Y004893D03*
X021250Y004893D03*
X022250Y004893D03*
X018650Y023893D03*
X017650Y023893D03*
X016650Y023893D03*
X015650Y023893D03*
X014650Y023893D03*
X013650Y023893D03*
X011650Y023893D03*
X010650Y023893D03*
X009650Y023893D03*
X008650Y023893D03*
X007650Y023893D03*
X006650Y023893D03*
M02*
