G75*
%MOIN*%
%OFA0B0*%
%FSLAX24Y24*%
%IPPOS*%
%LPD*%
%AMOC8*
5,1,8,0,0,1.08239X$1,22.5*
%
%ADD10C,0.0040*%
%ADD11C,0.0120*%
%ADD12C,0.0080*%
%ADD13R,0.2441X0.0492*%
%ADD14R,0.0300X0.0340*%
D10*
X003064Y005662D02*
X002987Y005739D01*
X002987Y005892D01*
X003064Y005969D01*
X002987Y006122D02*
X002987Y006429D01*
X002987Y006276D02*
X003447Y006276D01*
X003294Y006122D01*
X003371Y005969D02*
X003447Y005892D01*
X003447Y005739D01*
X003371Y005662D01*
X003064Y005662D01*
X003914Y005753D02*
X003914Y005906D01*
X003991Y005983D01*
X003914Y006136D02*
X003914Y006443D01*
X003914Y006290D02*
X004374Y006290D01*
X004221Y006136D01*
X004298Y005983D02*
X004374Y005906D01*
X004374Y005753D01*
X004298Y005676D01*
X003991Y005676D01*
X003914Y005753D01*
X003991Y006597D02*
X003914Y006673D01*
X003914Y006827D01*
X003991Y006904D01*
X004144Y006904D01*
X004221Y006827D01*
X004221Y006750D01*
X004144Y006597D01*
X004374Y006597D01*
X004374Y006904D01*
X003447Y006890D02*
X003371Y006736D01*
X003217Y006583D01*
X003217Y006813D01*
X003140Y006890D01*
X003064Y006890D01*
X002987Y006813D01*
X002987Y006660D01*
X003064Y006583D01*
X003217Y006583D01*
X014467Y020169D02*
X014774Y020169D01*
X014621Y020169D02*
X014621Y020630D01*
X014774Y020476D01*
X014928Y020169D02*
X015235Y020169D01*
X015081Y020169D02*
X015081Y020630D01*
X015235Y020476D01*
X015388Y020553D02*
X015465Y020630D01*
X015618Y020630D01*
X015695Y020553D01*
X015695Y020246D01*
X015618Y020169D01*
X015465Y020169D01*
X015388Y020246D01*
X015300Y021096D02*
X014993Y021096D01*
X015146Y021096D02*
X015146Y021557D01*
X015300Y021403D01*
X015453Y021480D02*
X015530Y021557D01*
X015683Y021557D01*
X015760Y021480D01*
X015760Y021173D01*
X015683Y021096D01*
X015530Y021096D01*
X015453Y021173D01*
X014839Y021096D02*
X014532Y021403D01*
X014532Y021480D01*
X014609Y021557D01*
X014762Y021557D01*
X014839Y021480D01*
X014839Y021096D02*
X014532Y021096D01*
X021037Y022785D02*
X021037Y022893D01*
X021091Y022948D01*
X021199Y022948D01*
X021362Y022785D01*
X021254Y022676D01*
X021145Y022676D01*
X021037Y022785D01*
X021362Y022785D02*
X021362Y023002D01*
X021308Y023165D01*
X021662Y023410D02*
X021987Y023735D01*
X021987Y023410D01*
X021770Y023627D01*
X021987Y023193D02*
X021987Y023084D01*
X022096Y022976D01*
X022204Y022976D01*
X022421Y023193D01*
X022421Y023301D01*
X022313Y023410D01*
X022204Y023410D01*
X022737Y023834D02*
X022737Y023943D01*
X022737Y023834D02*
X022846Y023726D01*
X022954Y023726D01*
X023171Y023943D01*
X023171Y024051D01*
X023063Y024160D01*
X022954Y024160D01*
X022900Y024323D02*
X022737Y024160D01*
X022683Y024323D01*
X022629Y024377D01*
X022520Y024377D01*
X022412Y024268D01*
X022412Y024160D01*
X022520Y024051D01*
X022629Y024051D01*
X022900Y024323D02*
X022683Y024540D01*
X023939Y024124D02*
X023939Y023663D01*
X023863Y023894D02*
X024170Y023894D01*
X023939Y024124D01*
X024323Y024047D02*
X024323Y023894D01*
X024400Y023817D01*
X024630Y023817D01*
X024477Y023817D02*
X024323Y023663D01*
X024630Y023663D02*
X024630Y024124D01*
X024400Y024124D01*
X024323Y024047D01*
X025059Y023234D02*
X025256Y023234D01*
X025059Y023234D02*
X025059Y023037D01*
X025059Y022250D02*
X025059Y022053D01*
X025256Y022053D01*
X025321Y021624D02*
X025474Y021624D01*
X025551Y021547D01*
X025551Y021240D01*
X025474Y021163D01*
X025321Y021163D01*
X025244Y021240D01*
X025090Y021163D02*
X024783Y021163D01*
X024937Y021163D02*
X024937Y021624D01*
X025090Y021470D01*
X025244Y021547D02*
X025321Y021624D01*
X025704Y021624D02*
X025858Y021624D01*
X025781Y021624D02*
X025781Y021163D01*
X025858Y021163D02*
X025704Y021163D01*
X025428Y020545D02*
X025428Y017741D01*
X026575Y016801D02*
X026575Y016341D01*
X026422Y016341D02*
X026729Y016341D01*
X026882Y016418D02*
X026882Y016725D01*
X026959Y016801D01*
X027189Y016801D01*
X027189Y016341D01*
X026959Y016341D01*
X026882Y016418D01*
X026729Y016648D02*
X026575Y016801D01*
X027872Y017741D02*
X027872Y020545D01*
X026241Y022053D02*
X026044Y022053D01*
X026241Y022053D02*
X026241Y022250D01*
X026783Y022913D02*
X027090Y022913D01*
X026937Y022913D02*
X026937Y023374D01*
X027090Y023220D01*
X027244Y023144D02*
X027321Y023067D01*
X027551Y023067D01*
X027397Y023067D02*
X027244Y022913D01*
X027244Y023144D02*
X027244Y023297D01*
X027321Y023374D01*
X027551Y023374D01*
X027551Y022913D01*
X026241Y023037D02*
X026241Y023234D01*
X026044Y023234D01*
X026060Y026098D02*
X025753Y026098D01*
X025676Y026175D01*
X025676Y026329D01*
X025753Y026405D01*
X025676Y026559D02*
X025983Y026866D01*
X026060Y026866D01*
X026136Y026789D01*
X026136Y026635D01*
X026060Y026559D01*
X026060Y026405D02*
X026136Y026329D01*
X026136Y026175D01*
X026060Y026098D01*
X026420Y026163D02*
X026880Y026163D01*
X026880Y026394D01*
X026804Y026470D01*
X026650Y026470D01*
X026573Y026394D01*
X026573Y026163D01*
X026573Y026317D02*
X026420Y026470D01*
X026420Y026624D02*
X026727Y026931D01*
X026804Y026931D01*
X026880Y026854D01*
X026880Y026700D01*
X026804Y026624D01*
X027170Y026700D02*
X027170Y026854D01*
X027247Y026931D01*
X027323Y026931D01*
X027400Y026854D01*
X027400Y026777D01*
X027400Y026854D02*
X027477Y026931D01*
X027554Y026931D01*
X027630Y026854D01*
X027630Y026700D01*
X027554Y026624D01*
X027554Y026470D02*
X027400Y026470D01*
X027323Y026394D01*
X027323Y026163D01*
X027170Y026163D02*
X027630Y026163D01*
X027630Y026394D01*
X027554Y026470D01*
X027323Y026317D02*
X027170Y026470D01*
X027247Y026624D02*
X027170Y026700D01*
X026420Y026624D02*
X026420Y026931D01*
X025676Y026866D02*
X025676Y026559D01*
X025386Y026635D02*
X025386Y026789D01*
X025310Y026866D01*
X025233Y026866D01*
X025156Y026789D01*
X025079Y026866D01*
X025003Y026866D01*
X024926Y026789D01*
X024926Y026635D01*
X025003Y026559D01*
X025003Y026405D02*
X024926Y026329D01*
X024926Y026175D01*
X025003Y026098D01*
X025310Y026098D01*
X025386Y026175D01*
X025386Y026329D01*
X025310Y026405D01*
X025310Y026559D02*
X025386Y026635D01*
X025156Y026712D02*
X025156Y026789D01*
X024636Y026712D02*
X024176Y026712D01*
X024176Y026559D02*
X024176Y026866D01*
X024483Y026559D02*
X024636Y026712D01*
X024560Y026405D02*
X024636Y026329D01*
X024636Y026175D01*
X024560Y026098D01*
X024253Y026098D01*
X024176Y026175D01*
X024176Y026329D01*
X024253Y026405D01*
X021688Y022785D02*
X021579Y022785D01*
X021688Y022785D02*
X021796Y022676D01*
X021796Y022568D01*
X021579Y022351D01*
X021471Y022351D01*
X021362Y022459D01*
X021362Y022568D01*
X030033Y019797D02*
X030033Y019490D01*
X030110Y019413D01*
X030264Y019413D01*
X030340Y019490D01*
X030494Y019490D02*
X030571Y019413D01*
X030724Y019413D01*
X030801Y019490D01*
X030801Y019797D01*
X030724Y019874D01*
X030571Y019874D01*
X030494Y019797D01*
X030340Y019797D02*
X030340Y019720D01*
X030264Y019644D01*
X030033Y019644D01*
X030033Y019797D02*
X030110Y019874D01*
X030264Y019874D01*
X030340Y019797D01*
X030264Y018874D02*
X030110Y018874D01*
X030033Y018797D01*
X030033Y018720D01*
X030110Y018644D01*
X030264Y018644D01*
X030340Y018720D01*
X030340Y018797D01*
X030264Y018874D01*
X030264Y018644D02*
X030340Y018567D01*
X030340Y018490D01*
X030264Y018413D01*
X030110Y018413D01*
X030033Y018490D01*
X030033Y018567D01*
X030110Y018644D01*
X030494Y018797D02*
X030571Y018874D01*
X030724Y018874D01*
X030801Y018797D01*
X030801Y018490D01*
X030724Y018413D01*
X030571Y018413D01*
X030494Y018490D01*
X030571Y017874D02*
X030724Y017874D01*
X030801Y017797D01*
X030801Y017490D01*
X030724Y017413D01*
X030571Y017413D01*
X030494Y017490D01*
X030340Y017490D02*
X030340Y017413D01*
X030340Y017490D02*
X030033Y017797D01*
X030033Y017874D01*
X030340Y017874D01*
X030494Y017797D02*
X030571Y017874D01*
X023313Y012434D02*
X023083Y012204D01*
X023083Y012511D01*
X022853Y012434D02*
X023313Y012434D01*
X022853Y012051D02*
X022853Y011744D01*
X022853Y011897D02*
X023313Y011897D01*
X023160Y011744D01*
X023237Y011590D02*
X023313Y011514D01*
X023313Y011360D01*
X023237Y011283D01*
X022930Y011283D01*
X022853Y011360D01*
X022853Y011514D01*
X022930Y011590D01*
X022386Y011579D02*
X022386Y011425D01*
X022310Y011348D01*
X022003Y011348D01*
X021926Y011425D01*
X021926Y011579D01*
X022003Y011655D01*
X021926Y011809D02*
X021926Y012116D01*
X021926Y011962D02*
X022386Y011962D01*
X022233Y011809D01*
X022310Y011655D02*
X022386Y011579D01*
X022310Y012269D02*
X022386Y012346D01*
X022386Y012499D01*
X022310Y012576D01*
X022233Y012576D01*
X022156Y012499D01*
X022079Y012576D01*
X022003Y012576D01*
X021926Y012499D01*
X021926Y012346D01*
X022003Y012269D01*
X022156Y012423D02*
X022156Y012499D01*
X018886Y010576D02*
X018886Y010269D01*
X018886Y009962D02*
X018426Y009962D01*
X018426Y009809D02*
X018426Y010116D01*
X018426Y010269D02*
X018503Y010269D01*
X018810Y010576D01*
X018886Y010576D01*
X018886Y009962D02*
X018733Y009809D01*
X018810Y009655D02*
X018886Y009579D01*
X018886Y009425D01*
X018810Y009348D01*
X018503Y009348D01*
X018426Y009425D01*
X018426Y009579D01*
X018503Y009655D01*
X021863Y006874D02*
X022170Y006874D01*
X022170Y006644D01*
X022016Y006720D01*
X021939Y006720D01*
X021863Y006644D01*
X021863Y006490D01*
X021939Y006413D01*
X022093Y006413D01*
X022170Y006490D01*
X022323Y006413D02*
X022477Y006567D01*
X022400Y006567D02*
X022630Y006567D01*
X022630Y006413D02*
X022630Y006874D01*
X022400Y006874D01*
X022323Y006797D01*
X022323Y006644D01*
X022400Y006567D01*
X023282Y007423D02*
X023282Y007730D01*
X023359Y007807D01*
X023512Y007807D01*
X023589Y007730D01*
X023589Y007653D01*
X023512Y007577D01*
X023282Y007577D01*
X023282Y007423D02*
X023359Y007346D01*
X023512Y007346D01*
X023589Y007423D01*
X023743Y007346D02*
X024050Y007346D01*
X023896Y007346D02*
X023896Y007807D01*
X024050Y007653D01*
X024203Y007730D02*
X024280Y007807D01*
X024433Y007807D01*
X024510Y007730D01*
X024510Y007423D01*
X024433Y007346D01*
X024280Y007346D01*
X024203Y007423D01*
X023170Y005181D02*
X023170Y004874D01*
X023170Y005027D02*
X023630Y005027D01*
X023477Y004874D01*
X023554Y004720D02*
X023247Y004720D01*
X023170Y004644D01*
X023170Y004490D01*
X023247Y004413D01*
X023554Y004413D01*
X023630Y004490D01*
X023630Y004644D01*
X023554Y004720D01*
X023323Y004567D02*
X023170Y004720D01*
X025420Y004780D02*
X025420Y004933D01*
X025497Y005010D01*
X025573Y005010D01*
X025650Y004933D01*
X025650Y004703D01*
X025497Y004703D01*
X025420Y004780D01*
X025420Y004549D02*
X025573Y004396D01*
X025573Y004473D02*
X025573Y004243D01*
X025420Y004243D02*
X025880Y004243D01*
X025880Y004473D01*
X025804Y004549D01*
X025650Y004549D01*
X025573Y004473D01*
X025650Y004703D02*
X025804Y004856D01*
X025880Y005010D01*
X028363Y007413D02*
X028670Y007413D01*
X028363Y007720D01*
X028363Y007797D01*
X028439Y007874D01*
X028593Y007874D01*
X028670Y007797D01*
X028823Y007797D02*
X028823Y007490D01*
X028900Y007413D01*
X029053Y007413D01*
X029130Y007490D01*
X029130Y007797D01*
X029053Y007874D01*
X028900Y007874D01*
X028823Y007797D01*
X028977Y007567D02*
X028823Y007413D01*
X005630Y023348D02*
X005630Y023579D01*
X005554Y023655D01*
X005400Y023655D01*
X005323Y023579D01*
X005323Y023348D01*
X005170Y023348D02*
X005630Y023348D01*
X005323Y023502D02*
X005170Y023655D01*
X005247Y023809D02*
X005170Y023885D01*
X005170Y024039D01*
X005247Y024116D01*
X005554Y024116D01*
X005630Y024039D01*
X005630Y023885D01*
X005554Y023809D01*
X005477Y023809D01*
X005400Y023885D01*
X005400Y024116D01*
X004683Y022307D02*
X004760Y022230D01*
X004760Y021923D01*
X004683Y021846D01*
X004530Y021846D01*
X004453Y021923D01*
X004300Y021846D02*
X003993Y021846D01*
X004146Y021846D02*
X004146Y022307D01*
X004300Y022153D01*
X004453Y022230D02*
X004530Y022307D01*
X004683Y022307D01*
X003839Y022230D02*
X003839Y022153D01*
X003762Y022077D01*
X003609Y022077D01*
X003532Y022000D01*
X003532Y021923D01*
X003609Y021846D01*
X003762Y021846D01*
X003839Y021923D01*
X003839Y022000D01*
X003762Y022077D01*
X003609Y022077D02*
X003532Y022153D01*
X003532Y022230D01*
X003609Y022307D01*
X003762Y022307D01*
X003839Y022230D01*
X002380Y022913D02*
X002380Y023374D01*
X002150Y023374D01*
X002073Y023297D01*
X002073Y023144D01*
X002150Y023067D01*
X002380Y023067D01*
X002227Y023067D02*
X002073Y022913D01*
X001920Y022913D02*
X001920Y022990D01*
X001613Y023297D01*
X001613Y023374D01*
X001920Y023374D01*
X001843Y023663D02*
X001920Y023740D01*
X001920Y023817D01*
X001843Y023894D01*
X001689Y023894D01*
X001613Y023817D01*
X001613Y023740D01*
X001689Y023663D01*
X001843Y023663D01*
X002073Y023663D02*
X002227Y023817D01*
X002150Y023817D02*
X002380Y023817D01*
X002380Y023663D02*
X002380Y024124D01*
X002150Y024124D01*
X002073Y024047D01*
X002073Y023894D01*
X002150Y023817D01*
X001920Y023970D02*
X001920Y024047D01*
X001843Y024124D01*
X001689Y024124D01*
X001613Y024047D01*
X001613Y023970D01*
X001689Y023894D01*
X001843Y023894D02*
X001920Y023970D01*
X002294Y025169D02*
X002447Y025169D01*
X002524Y025246D01*
X002217Y025553D01*
X002217Y025246D01*
X002294Y025169D01*
X002524Y025246D02*
X002524Y025553D01*
X002447Y025630D01*
X002294Y025630D01*
X002217Y025553D01*
X002678Y025169D02*
X002985Y025169D01*
X002831Y025169D02*
X002831Y025630D01*
X002985Y025476D01*
X003138Y025553D02*
X003215Y025630D01*
X003368Y025630D01*
X003445Y025553D01*
X003445Y025246D01*
X003368Y025169D01*
X003215Y025169D01*
X003138Y025246D01*
D11*
X025158Y022151D03*
D12*
X026256Y019357D02*
X027044Y019357D01*
X026650Y018817D01*
X026256Y019357D01*
X027550Y007183D02*
X027550Y004603D01*
X029910Y004603D01*
X029910Y007183D02*
X027550Y007183D01*
D13*
X026650Y018563D03*
D14*
X027360Y005893D03*
M02*
